<svg width="13" height="16" viewBox="0 0 13 16" fill="none" xmlns="http://www.w3.org/2000/svg">
<path d="M6.12508 8.16667C6.93269 8.16667 7.72216 7.92719 8.39366 7.4785C9.06516 7.02982 9.58853 6.39209 9.89759 5.64596C10.2066 4.89983 10.2875 4.07881 10.13 3.28672C9.9724 2.49463 9.5835 1.76705 9.01244 1.19598C8.44137 0.624918 7.71379 0.236018 6.9217 0.078462C6.12961 -0.0790944 5.30859 0.00176925 4.56246 0.310827C3.81633 0.619885 3.1786 1.14326 2.72991 1.81476C2.28123 2.48626 2.04175 3.27573 2.04175 4.08334C2.04283 5.16597 2.47338 6.20396 3.23892 6.9695C4.00446 7.73503 5.04245 8.16559 6.12508 8.16667ZM6.12508 1.36111C6.66349 1.36111 7.1898 1.52077 7.63747 1.81989C8.08513 2.11901 8.43405 2.54417 8.64009 3.04159C8.84613 3.53901 8.90004 4.08636 8.795 4.61442C8.68996 5.14247 8.43069 5.62753 8.04998 6.00824C7.66927 6.38895 7.18422 6.64821 6.65616 6.75325C6.1281 6.85829 5.58075 6.80438 5.08333 6.59834C4.58591 6.3923 4.16076 6.04339 3.86164 5.59572C3.56252 5.14805 3.40286 4.62174 3.40286 4.08334C3.40286 3.36136 3.68966 2.66895 4.20018 2.15843C4.7107 1.64792 5.4031 1.36111 6.12508 1.36111Z" fill="#06C8F7"/>
<path d="M6.125 8.52783C4.5011 8.52963 2.94423 9.17552 1.79596 10.3238C0.64769 11.4721 0.00180133 13.0289 0 14.6528C0 14.8333 0.0717012 15.0064 0.19933 15.1341C0.326959 15.2617 0.500061 15.3334 0.680556 15.3334C0.86105 15.3334 1.03415 15.2617 1.16178 15.1341C1.28941 15.0064 1.36111 14.8333 1.36111 14.6528C1.36111 13.3894 1.86302 12.1777 2.75642 11.2843C3.64982 10.3909 4.86154 9.88894 6.125 9.88894C7.38846 9.88894 8.60018 10.3909 9.49358 11.2843C10.387 12.1777 10.8889 13.3894 10.8889 14.6528C10.8889 14.8333 10.9606 15.0064 11.0882 15.1341C11.2158 15.2617 11.389 15.3334 11.5694 15.3334C11.7499 15.3334 11.923 15.2617 12.0507 15.1341C12.1783 15.0064 12.25 14.8333 12.25 14.6528C12.2482 13.0289 11.6023 11.4721 10.454 10.3238C9.30577 9.17552 7.7489 8.52963 6.125 8.52783Z" fill="#06C8F7"/>
</svg>
