<svg width="198" height="39" viewBox="0 0 198 39" fill="none" xmlns="http://www.w3.org/2000/svg">
<rect width="198" height="39" fill="#1E1E1E"/>
<g clip-path="url(#clip0_0_1)">
<rect width="1920" height="4087" transform="translate(-205 -3943)" fill="white"/>
</g>
<g filter="url(#filter0_d_0_1)">
<rect x="-205" y="-263" width="1920" height="407" fill="#253D65"/>
</g>
<g clip-path="url(#clip1_0_1)">
<path d="M38.0453 19.3076C38.0453 29.9739 29.5316 38.6151 19.0227 38.6151C8.5137 38.6151 0 29.9739 0 19.3076C0 8.64121 8.5137 0 19.0227 0C29.5316 0 38.0453 8.64121 38.0453 19.3076Z" fill="white"/>
<path fill-rule="evenodd" clip-rule="evenodd" d="M21.4693 12.1417C22.1645 12.1142 22.8507 12.1326 23.5458 12.1326C23.6271 12.1326 23.7174 12.1326 23.8348 12.1326V8.47632C23.4646 8.43966 23.0764 8.38468 22.6882 8.36635C21.9749 8.33886 21.2707 8.30221 20.5575 8.31137C19.4741 8.33886 18.4448 8.60461 17.551 9.25522C16.5218 10.0066 15.9621 11.0604 15.7454 12.3067C15.6551 12.8198 15.637 13.3513 15.619 13.8736C15.6009 14.6892 15.619 15.5139 15.619 16.3295V16.641H12.1702V20.7188H15.5919V30.9728H19.772V20.7463H23.1847C23.3563 19.3901 23.5278 18.043 23.7084 16.6502C23.4375 16.6502 23.1847 16.6502 22.9409 16.6502C21.9749 16.6502 19.7449 16.6502 19.7449 16.6502C19.7449 16.6502 19.754 14.625 19.781 13.7545C19.8172 12.5449 20.5214 12.1784 21.4693 12.1417Z" fill="#06C8F7"/>
<path d="M91.1227 19.3076C91.1227 29.9739 82.609 38.6151 72.1001 38.6151C61.5911 38.6151 53.0774 29.9739 53.0774 19.3076C53.0774 8.64121 61.5911 0 72.1001 0C82.609 0 91.1227 8.64121 91.1227 19.3076Z" fill="white"/>
<path fill-rule="evenodd" clip-rule="evenodd" d="M68.6331 25.0256C66.3129 24.9431 64.8593 23.2478 64.4711 21.8733C65.1211 22.0016 65.7531 21.9741 66.3851 21.8183C66.4031 21.8183 66.4212 21.8 66.4483 21.7908C65.1933 21.4976 64.2183 20.8103 63.5412 19.7107C63.0897 18.9776 62.8821 18.1804 62.8821 17.3007C63.5141 17.6397 64.1641 17.8322 64.8683 17.8505C63.9203 17.1541 63.2884 16.2561 63.0265 15.0923C62.7647 13.9377 62.9363 12.8381 63.505 11.8026C65.9246 14.6983 68.9943 16.2835 72.732 16.5493C72.7049 16.366 72.6778 16.2102 72.6598 16.0545C72.5334 14.9823 72.741 13.9927 73.3098 13.0855C74.023 11.9492 75.0342 11.2528 76.3433 11.0328C77.851 10.7854 79.1601 11.2161 80.2616 12.2974C80.3338 12.3707 80.397 12.389 80.4963 12.3707C81.4172 12.1691 82.2839 11.8301 83.0965 11.3536C83.1146 11.3444 83.1326 11.3352 83.1597 11.3261C83.1597 11.3261 83.1687 11.3261 83.1868 11.3261C82.8347 12.3799 82.1846 13.1954 81.2728 13.8002C82.1395 13.7086 82.9701 13.4703 83.7646 13.1221C83.7736 13.1313 83.7736 13.1405 83.7826 13.1405C83.6111 13.3695 83.4486 13.5986 83.268 13.8186C82.7895 14.4142 82.2478 14.9365 81.6429 15.3855C81.5888 15.4222 81.5707 15.4588 81.5707 15.5321C81.5978 16.2102 81.5707 16.8792 81.4895 17.5481C81.3179 18.9593 80.9297 20.3063 80.3338 21.5892C79.7199 22.9179 78.9254 24.1184 77.9142 25.1722C76.2079 26.9591 74.1585 28.1137 71.766 28.6452C70.9444 28.8284 70.1138 28.9201 69.2741 28.9475C66.692 29.0209 64.3086 28.3702 62.1147 26.9957C62.0876 26.9774 62.0605 26.9591 62.0063 26.9224C63.5682 27.0965 65.0489 26.8858 66.4844 26.2993C67.2608 25.9694 67.965 25.557 68.6331 25.0256Z" fill="#06C8F7"/>
<path d="M143.758 19.3076C143.758 29.9739 135.244 38.6151 124.735 38.6151C114.226 38.6151 105.713 29.9739 105.713 19.3076C105.713 8.64121 114.226 0 124.735 0C135.244 0 143.758 8.64121 143.758 19.3076Z" fill="white"/>
<path d="M134.847 14.2493C134.712 12.9023 134.206 11.711 133.222 10.758C132.184 9.75001 130.92 9.31016 129.529 9.23685C127.164 9.10856 121.539 9.02609 119.562 9.34681C117.305 9.72252 115.824 11.0604 115.201 13.3146C114.723 15.0557 114.813 23.0738 115.093 24.7965C115.472 27.1516 116.845 28.6544 119.138 29.2592C120.727 29.6715 128.536 29.6257 130.297 29.3325C132.617 28.9476 134.107 27.5731 134.712 25.2455C135.172 23.4678 135.01 15.8621 134.847 14.2493ZM132.996 24.4758C132.725 26.2627 131.561 27.3715 129.791 27.5639C128.166 27.7472 120.907 27.848 119.4 27.4173C117.955 27.0049 117.133 26.0061 116.89 24.5308C116.664 23.1196 116.601 16.0912 116.89 14.2126C117.152 12.4441 118.325 11.3353 120.086 11.1337C121.873 10.9321 128.292 10.9046 130.008 11.1704C131.768 11.4453 132.852 12.6365 133.05 14.4326C133.213 16.1095 133.267 22.6706 132.996 24.4758ZM124.934 14.1027C122.081 14.1027 119.77 16.4485 119.761 19.3442C119.752 22.2399 122.072 24.5858 124.925 24.5949C127.778 24.6041 130.089 22.2491 130.098 19.3534C130.107 16.4577 127.787 14.1027 124.934 14.1027ZM124.898 22.7347C123.056 22.7164 121.566 21.1861 121.584 19.3167C121.602 17.4474 123.11 15.9354 124.952 15.9537C126.794 15.972 128.283 17.5024 128.265 19.3717C128.256 21.2502 126.749 22.7531 124.898 22.7347ZM131.516 13.9103C131.516 14.5884 130.974 15.1382 130.306 15.1382C129.638 15.1382 129.096 14.5884 129.096 13.9103C129.096 13.2322 129.638 12.6823 130.306 12.6823C130.974 12.6732 131.516 13.2322 131.516 13.9103Z" fill="#06C8F7"/>
<path d="M134.847 14.2493C134.712 12.9023 134.206 11.711 133.222 10.758C132.184 9.75001 130.92 9.31016 129.529 9.23685C127.164 9.10856 121.539 9.02609 119.562 9.34681C117.305 9.72252 115.824 11.0604 115.201 13.3146C114.723 15.0557 114.813 23.0738 115.093 24.7965C115.472 27.1516 116.845 28.6544 119.138 29.2592C120.727 29.6715 128.536 29.6257 130.297 29.3325C132.617 28.9476 134.107 27.5731 134.712 25.2455C135.172 23.4678 135.01 15.8621 134.847 14.2493ZM132.996 24.4758C132.725 26.2627 131.561 27.3715 129.791 27.5639C128.166 27.7472 120.907 27.848 119.4 27.4173C117.955 27.0049 117.133 26.0061 116.89 24.5308C116.664 23.1196 116.601 16.0912 116.89 14.2126C117.152 12.4441 118.325 11.3353 120.086 11.1337C121.873 10.9321 128.292 10.9046 130.008 11.1704C131.768 11.4453 132.852 12.6365 133.05 14.4326C133.213 16.1095 133.267 22.6706 132.996 24.4758ZM124.934 14.1027C122.081 14.1027 119.77 16.4485 119.761 19.3442C119.752 22.2399 122.072 24.5858 124.925 24.5949C127.778 24.6041 130.089 22.2491 130.098 19.3534C130.107 16.4577 127.787 14.1027 124.934 14.1027ZM124.898 22.7347C123.056 22.7164 121.566 21.1861 121.584 19.3167C121.602 17.4474 123.11 15.9354 124.952 15.9537C126.794 15.972 128.283 17.5024 128.265 19.3717C128.256 21.2502 126.749 22.7531 124.898 22.7347ZM131.516 13.9103C131.516 14.5884 130.974 15.1382 130.306 15.1382C129.638 15.1382 129.096 14.5884 129.096 13.9103C129.096 13.2322 129.638 12.6823 130.306 12.6823C130.974 12.6732 131.516 13.2322 131.516 13.9103Z" fill="#06C8F7"/>
<path d="M180.548 38.9312C191.019 38.0515 198.804 28.7235 197.937 18.0965C197.07 7.46943 187.88 -0.432312 177.41 0.447408C166.939 1.32713 159.154 10.6552 160.021 21.2822C160.888 31.9092 170.078 39.811 180.548 38.9312Z" fill="white"/>
<path fill-rule="evenodd" clip-rule="evenodd" d="M168.938 29.9464C169.055 29.4882 169.155 29.085 169.263 28.6818C169.606 27.3989 169.967 26.116 170.292 24.8331C170.337 24.6407 170.319 24.3841 170.229 24.21C167.015 17.9972 170.328 10.4647 177.073 8.86111C183.194 7.40411 188.701 11.601 189.712 17.2091C190.759 23.0646 186.986 28.6177 181.262 29.6348C178.987 30.038 176.811 29.699 174.734 28.6727C174.554 28.581 174.292 28.5535 174.093 28.5994C171.33 29.305 169.489 29.8364 168.938 29.9464ZM171.367 27.5089C172.405 27.234 173.362 26.9866 174.319 26.7208C174.59 26.6475 174.797 26.6842 175.032 26.8308C176.829 27.8846 178.761 28.2786 180.819 27.9396C185.559 27.1698 188.809 22.6614 188.087 17.8689C187.338 12.9022 182.742 9.5667 177.894 10.4647C172.026 11.5552 168.911 18.1987 171.827 23.4586C172.152 24.0451 172.242 24.5216 172.026 25.1447C171.755 25.887 171.592 26.6659 171.367 27.5089Z" fill="#06C8F7"/>
<path fill-rule="evenodd" clip-rule="evenodd" d="M182.164 24.2559C180.124 24.1826 176.874 22.5515 174.653 18.6203C173.858 17.2275 173.976 15.633 175.131 14.5426C175.519 14.176 176.016 14.2585 176.476 14.341C176.585 14.3593 176.711 14.5334 176.765 14.6617C177.063 15.3489 177.352 16.027 177.614 16.7326C177.749 17.0992 177.497 17.4474 176.973 18.0705C176.801 18.2629 176.765 18.4462 176.901 18.6753C177.758 20.1415 178.95 21.2136 180.53 21.8367C180.765 21.9284 180.936 21.8734 181.081 21.6901C181.911 20.6546 182.002 20.3522 182.435 20.563C184.548 21.5893 184.71 21.626 184.719 21.8734C184.783 23.6786 183.157 24.3292 182.164 24.2559Z" fill="#06C8F7"/>
</g>
<defs>
<filter id="filter0_d_0_1" x="-213" y="-271" width="1940" height="427" filterUnits="userSpaceOnUse" color-interpolation-filters="sRGB">
<feFlood flood-opacity="0" result="BackgroundImageFix"/>
<feColorMatrix in="SourceAlpha" type="matrix" values="0 0 0 0 0 0 0 0 0 0 0 0 0 0 0 0 0 0 127 0" result="hardAlpha"/>
<feOffset dx="2" dy="2"/>
<feGaussianBlur stdDeviation="5"/>
<feComposite in2="hardAlpha" operator="out"/>
<feColorMatrix type="matrix" values="0 0 0 0 0 0 0 0 0 0 0 0 0 0 0 0 0 0 0.1 0"/>
<feBlend mode="normal" in2="BackgroundImageFix" result="effect1_dropShadow_0_1"/>
<feBlend mode="normal" in="SourceGraphic" in2="effect1_dropShadow_0_1" result="shape"/>
</filter>
<clipPath id="clip0_0_1">
<rect width="1920" height="4087" fill="white" transform="translate(-205 -3943)"/>
</clipPath>
<clipPath id="clip1_0_1">
<rect width="198" height="39" fill="white"/>
</clipPath>
</defs>
</svg>
