<svg width="565" height="288" viewBox="0 0 565 288" fill="none" xmlns="http://www.w3.org/2000/svg">
<path d="M464.142 3.42528L460.153 2.03223L458.376 7.11994L462.365 8.51299L464.142 3.42528Z" fill="#1E334F"/>
<path d="M464.479 2.86058L460.219 1.37292C459.93 1.27171 459.617 1.42351 459.52 1.71193C459.419 2.00036 459.571 2.31408 459.86 2.41022L464.12 3.89789C464.409 3.99909 464.722 3.84729 464.818 3.55887C464.92 3.27551 464.768 2.96178 464.479 2.86058Z" fill="#1E334F"/>
<path d="M461.922 8.45461L458.769 7.35352L456.992 12.4413L460.145 13.5424L461.922 8.45461Z" fill="#1E334F"/>
<path d="M462.668 8.05735L458.407 6.56969C458.119 6.46849 457.805 6.62031 457.709 6.90874C457.608 7.19716 457.76 7.51089 458.048 7.60703L462.309 9.09469C462.597 9.19589 462.911 9.04407 463.007 8.75564C463.103 8.46722 462.951 8.15349 462.668 8.05735Z" fill="#1E334F"/>
<path d="M460.106 13.6216L456.953 12.5205L455.177 17.6082L458.33 18.7093L460.106 13.6216Z" fill="#1E334F"/>
<path d="M460.315 13.0009L457.162 11.8978C456.874 11.7966 456.56 11.9484 456.464 12.2368C456.363 12.5253 456.515 12.839 456.803 12.9351L459.956 14.0382C460.244 14.1394 460.558 13.9876 460.654 13.6992C460.755 13.4158 460.603 13.1021 460.315 13.0009Z" fill="#1E334F"/>
<path d="M458.339 18.7173L455.186 17.6162L453.409 22.704L456.562 23.805L458.339 18.7173Z" fill="#1E334F"/>
<path d="M458.524 18.1369L455.371 17.0338C455.083 16.9326 454.769 17.0844 454.673 17.3728C454.572 17.6612 454.724 17.975 455.012 18.0711L458.164 19.1742C458.453 19.2754 458.767 19.1236 458.863 18.8352C458.959 18.5518 458.807 18.2381 458.524 18.1369Z" fill="#1E334F"/>
<path d="M450.682 41.1829L447.19 39.9634L444.723 47.0289L448.215 48.2484L450.682 41.1829Z" fill="#1E334F"/>
<path d="M454.908 29.0504L451.415 27.8308L448.948 34.8963L452.44 36.1158L454.908 29.0504Z" fill="#1E334F"/>
<path d="M448.026 48.2488L444.873 47.1477L443.866 50.0331L447.019 51.1342L448.026 48.2488Z" fill="#1E334F"/>
<path d="M395.971 228.595L373.312 220.681L418.412 108.758L430.344 112.927L395.971 228.595Z" fill="#1E334F"/>
<path d="M439.442 104.113L430.344 112.927L418.413 108.758L416.783 96.1986L418.817 90.3694L441.476 98.2783L439.442 104.113Z" fill="#1E334F"/>
<path d="M433.709 66.7439L433.34 67.8014L427.075 85.7343L424.738 92.4338L435.556 96.2137L437.894 89.5142L444.158 71.5813L444.528 70.5238L433.709 66.7439ZM428.214 86.1341L427.667 85.9418L433.932 68.0089L434.478 68.2012L428.214 86.1341ZM429.347 86.5338L428.801 86.3415L435.065 68.4086L435.612 68.6009L429.347 86.5338ZM430.486 86.9285L429.939 86.7362L436.204 68.8033L436.75 68.9956L430.486 86.9285ZM431.619 87.3232L431.073 87.1309L437.337 69.198L437.884 69.3903L431.619 87.3232ZM432.758 87.7229L432.211 87.5306L438.476 69.5978L439.022 69.79L432.758 87.7229ZM433.896 88.1176L433.35 87.9253L439.614 69.9925L440.161 70.1847L433.896 88.1176ZM435.03 88.5174L434.483 88.3251L440.748 70.3922L441.294 70.5845L435.03 88.5174ZM436.168 88.9121L435.622 88.7198L441.886 70.7869L442.433 70.9792L436.168 88.9121ZM437.307 89.3118L436.76 89.1195L443.025 71.1866L443.571 71.3789L437.307 89.3118Z" fill="#1E334F"/>
<path d="M440.515 50.0408L436.34 61.9876L445.423 65.1603L449.598 53.2134L440.515 50.0408ZM437.762 60.9908L437.302 60.8288L440.642 51.2653L441.102 51.4272L437.762 60.9908ZM438.714 61.3247L438.253 61.1628L441.593 51.5993L442.053 51.7612L438.714 61.3247ZM439.67 61.6587L439.209 61.4968L442.549 51.9332L443.01 52.0952L439.67 61.6587ZM440.621 61.9927L440.161 61.8307L443.5 52.2672L443.961 52.4291L440.621 61.9927ZM441.578 62.3266L441.117 62.1647L444.457 52.6012L444.917 52.7631L441.578 62.3266ZM442.529 62.6606L442.068 62.4987L445.408 52.9351L445.868 53.097L442.529 62.6606ZM443.485 62.9895L443.025 62.8276L446.364 53.264L446.825 53.426L443.485 62.9895ZM444.442 63.3235L443.981 63.1615L447.321 53.598L447.781 53.7599L444.442 63.3235ZM445.393 63.6574L444.932 63.4955L448.272 53.932L448.733 54.0939L445.393 63.6574Z" fill="#1E334F"/>
<path d="M445.98 67.4272C445.98 67.4272 445.853 66.9161 446.03 66.405C446.207 65.8939 445.939 65.3323 445.428 65.1552L436.345 61.9825C435.834 61.8054 435.273 62.0736 435.096 62.5847C434.919 63.0957 434.498 63.4145 434.498 63.4145C433.613 63.1059 432.641 63.5714 432.333 64.4569C432.024 65.3424 432.49 66.314 433.375 66.6226L444.856 70.6302C445.742 70.9389 446.713 70.4733 447.022 69.5878C447.331 68.7074 446.865 67.7409 445.98 67.4272Z" fill="#1E334F"/>
<path d="M445.734 64.2928L436.653 61.1213L436.114 62.6644L445.195 65.8358L445.734 64.2928Z" fill="#1E334F"/>
<path d="M449.982 52.1809L440.864 48.9982C440.576 48.897 440.262 49.0488 440.166 49.3372C440.065 49.6256 440.216 49.9393 440.505 50.0355L449.623 53.2182C449.912 53.3194 450.225 53.1676 450.321 52.8792C450.423 52.5959 450.271 52.2821 449.982 52.1809Z" fill="#1E334F"/>
<path d="M448.211 47.6674L445.059 46.5643C444.77 46.4631 444.457 46.6149 444.36 46.9033C444.259 47.1918 444.411 47.5055 444.7 47.6016L447.852 48.7047C448.14 48.8059 448.454 48.6541 448.55 48.3657C448.646 48.0823 448.5 47.7686 448.211 47.6674Z" fill="#1E334F"/>
<path d="M452.267 36.0915L449.114 34.9905L447.337 40.0782L450.49 41.1793L452.267 36.0915Z" fill="#1E334F"/>
<path d="M452.462 35.498L449.309 34.3949C449.021 34.2937 448.707 34.4455 448.611 34.7339C448.51 35.0223 448.662 35.3361 448.95 35.4322L452.102 36.5353C452.391 36.6365 452.705 36.4847 452.801 36.1963C452.897 35.9078 452.75 35.5992 452.462 35.498Z" fill="#1E334F"/>
<path d="M456.518 23.8989L453.366 22.7979L451.589 27.8856L454.742 28.9866L456.518 23.8989Z" fill="#1E334F"/>
<path d="M456.727 23.278L453.575 22.1749C453.287 22.0737 452.973 22.2255 452.877 22.5139C452.776 22.8024 452.927 23.1161 453.216 23.2122L456.368 24.3153C456.657 24.4165 456.97 24.2647 457.066 23.9763C457.168 23.6929 457.016 23.3792 456.727 23.278Z" fill="#1E334F"/>
<path d="M450.706 40.5278L447.553 39.4247C447.265 39.3235 446.951 39.4753 446.855 39.7637C446.754 40.0521 446.906 40.3658 447.194 40.462L450.347 41.5651C450.635 41.6663 450.949 41.5145 451.045 41.2261C451.141 40.9427 450.989 40.629 450.706 40.5278Z" fill="#1E334F"/>
<path d="M454.951 28.3632L451.799 27.2601C451.51 27.1589 451.197 27.3107 451.101 27.5992C450.999 27.8876 451.151 28.2013 451.44 28.2974L454.592 29.4005C454.88 29.5018 455.194 29.3499 455.29 29.0615C455.392 28.7781 455.24 28.4644 454.951 28.3632Z" fill="#1E334F"/>
<path d="M188.463 171.3C186.909 170.05 186.13 169.433 184.567 168.188C172.67 171.71 166.76 173.602 155.021 177.635C156.812 182.847 157.708 185.453 159.494 190.665C171.137 186.632 182.962 182.913 194.818 179.553C192.293 176.244 191.023 174.594 188.463 171.3ZM163.345 182.979C162.753 183.176 162.459 183.277 161.867 183.474C161.488 182.341 161.295 181.774 160.916 180.641C160.784 180.251 161.012 179.821 161.422 179.679C161.832 179.543 162.272 179.75 162.403 180.14C162.778 181.278 162.965 181.845 163.345 182.979ZM175.261 179.118C174.502 179.356 174.128 179.477 173.369 179.715C173.03 178.652 172.863 178.121 172.524 177.063C172.367 176.562 172.66 176.021 173.186 175.854C173.713 175.687 174.264 175.96 174.421 176.461C174.76 177.524 174.927 178.055 175.261 179.118Z" fill="#1E334F"/>
<path d="M170.535 222.817C172.073 227.295 172.842 229.536 174.381 234.015C174.775 233.878 174.973 233.812 175.372 233.676C174.122 230.017 173.495 228.19 172.245 224.532C172.063 224.001 172.341 223.429 172.857 223.252C173.379 223.075 173.945 223.363 174.122 223.894C175.362 227.558 175.98 229.39 177.219 233.048C177.513 232.947 177.659 232.901 177.953 232.8C176.749 229.223 176.141 227.431 174.937 223.854C174.72 223.206 175.059 222.508 175.691 222.295C176.329 222.083 177.017 222.437 177.234 223.085C178.429 226.667 179.026 228.459 180.22 232.041C180.513 231.945 180.66 231.894 180.954 231.798C179.795 228.297 179.213 226.546 178.049 223.049C177.796 222.285 178.196 221.461 178.95 221.213C179.699 220.965 180.513 221.39 180.766 222.154C181.915 225.66 182.487 227.411 183.63 230.918C183.924 230.822 184.071 230.771 184.364 230.68C183.251 227.259 182.694 225.549 181.576 222.128C181.288 221.243 181.758 220.297 182.623 220.018C183.489 219.74 184.425 220.231 184.708 221.116C185.806 224.542 186.358 226.258 187.456 229.683C187.749 229.587 187.896 229.542 188.195 229.445C187.127 226.101 186.596 224.431 185.528 221.086C185.209 220.084 185.745 219.017 186.732 218.703C187.714 218.394 188.771 218.956 189.085 219.963C190.133 223.313 190.659 224.987 191.706 228.337C192 228.246 192.151 228.201 192.445 228.104C191.428 224.841 190.917 223.206 189.9 219.943C189.551 218.819 190.158 217.63 191.261 217.291C192.364 216.952 193.533 217.59 193.877 218.713C194.874 221.987 195.375 223.621 196.372 226.89C196.665 226.799 196.817 226.753 197.11 226.662C196.144 223.474 195.658 221.881 194.692 218.693C194.312 217.448 194.995 216.142 196.215 215.778C197.434 215.414 198.725 216.127 199.094 217.372C200.04 220.565 200.516 222.164 201.462 225.357C201.761 225.271 201.907 225.225 202.206 225.139C201.29 222.032 200.83 220.474 199.914 217.367C199.509 216.001 200.268 214.579 201.609 214.189C202.95 213.8 204.351 214.594 204.746 215.965C205.642 219.082 206.087 220.641 206.983 223.758C207.281 223.672 207.428 223.631 207.726 223.545C206.861 220.514 206.426 218.996 205.561 215.965C205.136 214.478 205.971 212.939 207.433 212.53C208.89 212.12 210.408 213 210.823 214.488C211.663 217.524 212.083 219.047 212.928 222.083C213.227 222.002 213.373 221.961 213.672 221.875C212.857 218.92 212.453 217.448 211.638 214.493C211.193 212.884 212.113 211.229 213.692 210.799C215.271 210.369 216.9 211.335 217.33 212.95C218.12 215.91 218.514 217.392 219.299 220.352C219.597 220.271 219.749 220.231 220.048 220.155C219.284 217.281 218.904 215.844 218.145 212.965C217.685 211.234 218.692 209.463 220.392 209.023C222.092 208.583 223.828 209.635 224.273 211.371C225.007 214.255 225.376 215.692 226.11 218.576C226.408 218.5 226.56 218.46 226.859 218.384C226.105 215.414 225.73 213.931 224.976 210.961C224.566 209.342 225.518 207.707 227.106 207.313C228.695 206.918 230.304 207.915 230.699 209.539C231.428 212.514 231.792 214.002 232.516 216.977C232.814 216.901 232.966 216.866 233.27 216.795C232.526 213.734 232.151 212.201 231.408 209.134C231.043 207.631 231.939 206.123 233.411 205.774C234.884 205.42 236.366 206.361 236.721 207.864C237.439 210.936 237.798 212.469 238.522 215.535C238.826 215.464 238.972 215.429 239.276 215.358C238.537 212.201 238.173 210.622 237.434 207.464C237.11 206.078 237.95 204.702 239.306 204.388C240.667 204.074 242.024 204.955 242.332 206.341C243.046 209.504 243.4 211.082 244.113 214.245C244.417 214.179 244.569 214.144 244.867 214.073C244.139 210.824 243.774 209.195 243.046 205.946C242.762 204.681 243.537 203.426 244.781 203.153C246.026 202.88 247.256 203.69 247.534 204.96C248.242 208.213 248.597 209.843 249.3 213.096C249.604 213.03 249.755 213 250.054 212.934C249.33 209.59 248.971 207.92 248.247 204.575C247.999 203.426 248.713 202.298 249.841 202.055C250.97 201.817 252.078 202.556 252.321 203.71C253.024 207.06 253.373 208.729 254.072 212.079C254.375 212.013 254.527 211.983 254.831 211.922C254.117 208.487 253.758 206.771 253.039 203.335C252.827 202.303 253.469 201.296 254.481 201.089C255.493 200.881 256.48 201.549 256.693 202.581C257.391 206.022 257.735 207.743 258.433 211.178C258.737 211.118 258.889 211.087 259.192 211.027C258.484 207.5 258.125 205.734 257.416 202.207C257.234 201.296 257.811 200.411 258.702 200.234C259.597 200.056 260.467 200.654 260.645 201.564C261.338 205.096 261.682 206.862 262.375 210.394C262.679 210.333 262.831 210.303 263.134 210.247C262.431 206.629 262.077 204.818 261.368 201.2C261.211 200.411 261.717 199.642 262.497 199.495C263.276 199.343 264.025 199.869 264.177 200.659C264.865 204.282 265.214 206.093 265.902 209.716C266.206 209.66 266.357 209.63 266.661 209.569C265.958 205.86 265.609 204.003 264.905 200.294C264.779 199.621 265.209 198.979 265.867 198.852C266.524 198.731 267.162 199.176 267.283 199.844C267.972 203.558 268.316 205.415 269.009 209.129C269.313 209.074 269.464 209.043 269.768 208.987C269.065 205.187 268.715 203.285 268.017 199.485C267.916 198.933 268.27 198.407 268.812 198.306C269.353 198.204 269.874 198.574 269.97 199.125C270.659 202.931 271.008 204.833 271.696 208.633C272.106 208.557 272.313 208.522 272.723 208.446C271.883 203.786 271.468 201.453 270.628 196.793C236.574 203.3 203.43 211.917 170.535 222.817Z" fill="#1E334F"/>
<path d="M271.154 196.702C236.746 203.249 203.253 211.958 170.014 222.999C169.422 221.278 169.123 220.418 168.531 218.698C201.998 207.581 235.709 198.817 270.35 192.223C270.674 194.015 270.836 194.91 271.154 196.702Z" fill="#1E334F"/>
<path d="M271.084 195.042C236.442 201.625 202.732 210.389 169.27 221.511C168.936 221.628 168.572 221.455 168.455 221.127C168.344 220.798 168.521 220.438 168.86 220.322C202.383 209.175 236.154 200.395 270.861 193.802C271.21 193.741 271.544 193.964 271.605 194.308C271.666 194.652 271.433 194.981 271.084 195.042Z" fill="#1E334F"/>
<path d="M165.485 208.117C167.023 212.595 167.792 214.837 169.331 219.315C169.736 219.178 169.938 219.107 170.343 218.966C169.093 215.307 168.465 213.481 167.216 209.822C167.033 209.291 167.317 208.714 167.853 208.532C168.384 208.35 168.961 208.633 169.144 209.164C170.383 212.828 171.001 214.659 172.24 218.318C172.539 218.217 172.691 218.166 172.989 218.065C171.785 214.487 171.178 212.696 169.973 209.119C169.756 208.471 170.105 207.768 170.753 207.55C171.4 207.332 172.104 207.682 172.321 208.329C173.515 211.912 174.112 213.703 175.307 217.286C175.605 217.184 175.757 217.134 176.061 217.038C174.902 213.536 174.32 211.785 173.156 208.289C172.903 207.525 173.318 206.695 174.087 206.442C174.856 206.189 175.681 206.604 175.934 207.373C177.083 210.88 177.655 212.63 178.798 216.137C179.097 216.041 179.248 215.99 179.552 215.889C178.439 212.468 177.882 210.758 176.764 207.338C176.476 206.452 176.961 205.501 177.847 205.217C178.732 204.929 179.684 205.42 179.967 206.305C181.065 209.731 181.617 211.446 182.715 214.872C183.018 214.776 183.165 214.725 183.469 214.629C182.401 211.284 181.87 209.615 180.802 206.27C180.483 205.268 181.04 204.195 182.047 203.876C183.054 203.558 184.126 204.119 184.44 205.121C185.488 208.471 186.014 210.146 187.061 213.496C187.365 213.4 187.517 213.354 187.815 213.258C186.798 209.994 186.287 208.36 185.27 205.096C184.921 203.973 185.548 202.778 186.677 202.429C187.805 202.08 188.994 202.713 189.338 203.841C190.335 207.115 190.836 208.749 191.833 212.018C192.136 211.927 192.288 211.882 192.592 211.785C191.625 208.598 191.14 207.004 190.173 203.816C189.794 202.571 190.502 201.26 191.747 200.886C192.997 200.512 194.307 201.22 194.677 202.465C195.623 205.658 196.099 207.257 197.045 210.45C197.348 210.358 197.5 210.313 197.804 210.227C196.888 207.115 196.427 205.561 195.512 202.455C195.107 201.093 195.891 199.656 197.262 199.262C198.634 198.862 200.061 199.651 200.455 201.018C201.351 204.135 201.796 205.693 202.692 208.81C202.995 208.724 203.147 208.678 203.451 208.592C202.585 205.561 202.15 204.043 201.285 201.012C200.86 199.525 201.725 197.976 203.218 197.556C204.711 197.136 206.254 198.007 206.669 199.5C207.509 202.536 207.929 204.059 208.774 207.095C209.078 207.009 209.229 206.968 209.538 206.882C208.723 203.927 208.319 202.45 207.504 199.5C207.059 197.89 208.01 196.226 209.624 195.79C211.238 195.355 212.898 196.312 213.328 197.921C214.117 200.881 214.512 202.364 215.296 205.324C215.6 205.243 215.757 205.202 216.06 205.121C215.296 202.247 214.917 200.81 214.158 197.931C213.697 196.2 214.735 194.424 216.47 193.969C218.211 193.519 219.977 194.566 220.422 196.302C221.156 199.186 221.525 200.623 222.259 203.507C222.568 203.431 222.72 203.391 223.028 203.31C222.274 200.34 221.9 198.857 221.146 195.887C220.736 194.267 221.718 192.623 223.342 192.223C224.966 191.818 226.606 192.81 227 194.429C227.729 197.405 228.093 198.892 228.817 201.868C229.126 201.792 229.277 201.756 229.586 201.68C228.842 198.619 228.468 197.086 227.724 194.019C227.36 192.517 228.286 191.004 229.788 190.644C231.296 190.285 232.804 191.216 233.158 192.719C233.877 195.79 234.236 197.324 234.96 200.39C235.268 200.319 235.42 200.284 235.729 200.208C234.99 197.05 234.626 195.472 233.887 192.314C233.563 190.928 234.429 189.546 235.82 189.228C237.212 188.909 238.593 189.779 238.907 191.166C239.62 194.328 239.974 195.912 240.688 199.069C240.997 198.999 241.153 198.963 241.462 198.897C240.733 195.649 240.369 194.019 239.64 190.771C239.357 189.506 240.157 188.246 241.427 187.963C242.697 187.684 243.957 188.489 244.23 189.754C244.938 193.007 245.293 194.637 245.996 197.89C246.305 197.825 246.461 197.789 246.77 197.723C246.046 194.379 245.687 192.709 244.964 189.364C244.716 188.216 245.449 187.082 246.603 186.834C247.757 186.591 248.89 187.325 249.128 188.479C249.831 191.828 250.181 193.498 250.879 196.848C251.188 196.782 251.344 196.752 251.653 196.686C250.94 193.25 250.58 191.535 249.867 188.099C249.654 187.067 250.317 186.06 251.349 185.847C252.382 185.635 253.394 186.303 253.601 187.335C254.299 190.776 254.644 192.496 255.342 195.932C255.65 195.871 255.807 195.836 256.116 195.775C255.408 192.248 255.053 190.482 254.34 186.956C254.158 186.045 254.75 185.154 255.666 184.977C256.582 184.795 257.467 185.387 257.644 186.303C258.337 189.835 258.681 191.601 259.375 195.133C259.683 195.072 259.84 195.042 260.154 194.981C259.451 191.363 259.096 189.551 258.388 185.933C258.236 185.144 258.752 184.375 259.547 184.223C260.341 184.071 261.11 184.587 261.257 185.382C261.945 189.005 262.294 190.816 262.982 194.439C263.291 194.379 263.448 194.348 263.762 194.293C263.058 190.584 262.709 188.727 262.006 185.018C261.879 184.345 262.32 183.697 262.998 183.57C263.671 183.444 264.318 183.889 264.445 184.557C265.133 188.271 265.477 190.128 266.17 193.842C266.484 193.787 266.636 193.756 266.95 193.701C266.246 189.901 265.897 187.998 265.194 184.198C265.093 183.646 265.457 183.115 266.013 183.014C266.565 182.913 267.096 183.277 267.198 183.829C267.886 187.634 268.235 189.536 268.923 193.336C269.343 193.26 269.556 193.22 269.976 193.144C269.136 188.484 268.721 186.151 267.881 181.491C233.042 188.15 199.14 196.964 165.485 208.117Z" fill="#1E334F"/>
<path d="M268.417 181.4C233.214 188.099 198.958 197.005 164.954 208.299C164.362 206.579 164.063 205.718 163.471 203.998C197.698 192.628 232.182 183.662 267.613 176.922C267.936 178.713 268.098 179.609 268.417 181.4Z" fill="#1E334F"/>
<path d="M268.351 179.74C232.916 186.47 198.436 195.436 164.205 206.817C163.861 206.933 163.491 206.766 163.38 206.437C163.269 206.108 163.451 205.749 163.795 205.627C198.082 194.227 232.627 185.245 268.129 178.5C268.488 178.435 268.827 178.662 268.888 179.001C268.948 179.345 268.705 179.674 268.351 179.74Z" fill="#1E334F"/>
<path d="M160.435 193.412C161.973 197.89 162.742 200.132 164.281 204.61C164.696 204.468 164.903 204.398 165.318 204.256C164.068 200.598 163.441 198.771 162.191 195.112C162.009 194.581 162.302 193.999 162.849 193.817C163.395 193.63 163.982 193.913 164.159 194.444C165.399 198.108 166.016 199.94 167.256 203.598C167.565 203.492 167.716 203.441 168.025 203.34C166.821 199.763 166.214 197.971 165.009 194.394C164.792 193.746 165.151 193.038 165.819 192.815C166.482 192.592 167.2 192.937 167.413 193.584C168.607 197.167 169.204 198.958 170.398 202.541C170.707 202.439 170.859 202.389 171.167 202.283C170.004 198.781 169.427 197.03 168.263 193.534C168.01 192.77 168.44 191.935 169.224 191.677C170.009 191.419 170.849 191.828 171.102 192.598C172.25 196.104 172.822 197.855 173.966 201.362C174.274 201.26 174.426 201.21 174.735 201.109C173.621 197.688 173.065 195.978 171.947 192.557C171.658 191.672 172.159 190.715 173.07 190.422C173.976 190.128 174.942 190.609 175.226 191.494C176.324 194.92 176.87 196.635 177.968 200.061C178.277 199.96 178.429 199.914 178.737 199.813C177.67 196.469 177.138 194.799 176.071 191.454C175.752 190.452 176.324 189.374 177.356 189.045C178.383 188.722 179.476 189.273 179.79 190.28C180.837 193.63 181.363 195.305 182.411 198.654C182.72 198.558 182.876 198.508 183.185 198.412C182.168 195.148 181.657 193.513 180.64 190.25C180.291 189.126 180.938 187.927 182.092 187.573C183.246 187.219 184.455 187.846 184.799 188.969C185.796 192.238 186.297 193.878 187.294 197.147C187.602 197.05 187.759 197.005 188.068 196.909C187.102 193.721 186.616 192.127 185.649 188.939C185.27 187.694 185.998 186.374 187.274 185.994C188.549 185.61 189.885 186.313 190.254 187.558C191.2 190.751 191.676 192.35 192.622 195.543C192.931 195.451 193.088 195.406 193.396 195.315C192.48 192.208 192.02 190.649 191.104 187.543C190.699 186.176 191.509 184.739 192.91 184.329C194.312 183.925 195.764 184.704 196.159 186.07C197.055 189.187 197.5 190.746 198.396 193.863C200.344 193.306 201.32 193.028 203.268 192.481C200.237 188.413 198.704 186.384 195.618 182.341C183.807 185.691 172.033 189.395 160.435 193.412Z" fill="#1E334F"/>
<path d="M195.167 180.762C183.145 184.168 171.162 187.942 159.357 192.041C159.57 192.664 159.681 192.977 159.894 193.6C160.111 193.524 160.217 193.488 160.435 193.412C172.033 189.395 183.807 185.691 195.618 182.346C195.435 181.714 195.344 181.395 195.167 180.762Z" fill="#1E334F"/>
<path d="M194.368 177.974C182.3 181.39 170.262 185.185 158.411 189.299C158.624 189.921 158.735 190.235 158.948 190.857C170.768 186.748 182.775 182.968 194.818 179.558C194.636 178.92 194.545 178.607 194.368 177.974Z" fill="#1E334F"/>
<path d="M158.73 190.928C158.381 191.049 158.183 191.414 158.3 191.743C158.411 192.072 158.791 192.239 159.14 192.117C159.226 192.087 159.271 192.072 159.357 192.041C159.195 191.566 159.109 191.328 158.947 190.852C158.861 190.882 158.816 190.898 158.73 190.928Z" fill="#1E334F"/>
<path d="M194.818 179.553C182.775 182.963 170.768 186.743 158.947 190.852C159.109 191.328 159.195 191.566 159.357 192.041C171.157 187.943 183.144 184.163 195.167 180.762C195.026 180.282 194.96 180.039 194.818 179.553Z" fill="#1E334F"/>
<path d="M184.096 166.614C171.947 170.212 165.91 172.145 153.923 176.274C154.135 176.896 154.247 177.21 154.459 177.832C154.682 177.757 154.793 177.716 155.016 177.64C166.755 173.607 172.67 171.72 184.561 168.193C184.379 167.56 184.283 167.242 184.096 166.614Z" fill="#1E334F"/>
<path d="M183.271 163.831C171.077 167.444 165.015 169.382 152.977 173.526C153.189 174.149 153.301 174.462 153.513 175.085C165.521 170.951 171.567 169.013 183.737 165.41C183.555 164.778 183.459 164.459 183.271 163.831Z" fill="#1E334F"/>
<path d="M153.295 175.161C152.936 175.282 152.739 175.652 152.85 175.981C152.961 176.31 153.346 176.476 153.705 176.35C153.796 176.32 153.837 176.304 153.928 176.274C153.766 175.798 153.68 175.561 153.518 175.085C153.427 175.115 153.381 175.131 153.295 175.161Z" fill="#1E334F"/>
<path d="M183.742 165.41C171.572 169.013 165.525 170.951 153.518 175.085C153.68 175.561 153.766 175.798 153.928 176.274C165.915 172.145 171.952 170.212 184.101 166.614C183.954 166.129 183.883 165.891 183.742 165.41Z" fill="#1E334F"/>
<path d="M313.254 83.2106L308.622 138.889L318.672 139.725L323.304 84.0466L313.254 83.2106Z" fill="#1E334F"/>
<path d="M327.159 21.9268C324.812 50.1215 324.69 109.203 326.861 129.752C329.032 150.301 337.796 177.585 337.796 177.585L355.683 217.615L337.725 216.122L323.334 176.385C319.119 166.022 316.093 109.744 318.426 81.7369C316.098 109.744 303.812 164.747 297.943 174.27L277.181 211.082L259.223 209.59L283.481 173.066C283.481 173.066 296.632 147.609 302.168 127.697C307.703 107.786 317.348 49.4992 319.691 21.3044L327.159 21.9268Z" fill="#4F8096"/>
<path d="M277.181 211.083C283.931 199.11 293.201 183.105 309.874 184.497C326.547 185.883 333.044 203.199 337.725 216.122L323.334 176.386L297.942 174.271L277.181 211.083Z" fill="#1E334F"/>
<path d="M339.288 170.759L338.372 170.683L338.666 167.131L284.351 162.612L284.058 166.164L283.142 166.088C282.636 166.048 282.191 166.422 282.145 166.928C282.104 167.434 282.479 167.88 282.985 167.925C283.491 167.966 283.87 168.411 283.825 168.922L283.481 173.071L337.796 177.59L338.14 173.441C338.18 172.935 338.625 172.555 339.137 172.601C339.643 172.641 340.088 172.267 340.133 171.761C340.174 171.245 339.794 170.799 339.288 170.759ZM337.699 168.224L337.502 170.612L336.318 170.516L336.515 168.128L337.699 168.224ZM335.64 168.052L335.443 170.44L334.259 170.339L334.456 167.95L335.64 168.052ZM333.586 167.88L333.388 170.268L332.204 170.172L332.402 167.783L333.586 167.88ZM331.531 167.708L331.334 170.096L330.15 170L330.347 167.611L331.531 167.708ZM329.477 167.536L329.28 169.924L328.095 169.828L328.293 167.439L329.477 167.536ZM327.422 167.369L327.225 169.757L326.041 169.661L326.238 167.272L327.422 167.369ZM325.363 167.196L325.166 169.585L323.982 169.489L324.179 167.1L325.363 167.196ZM323.309 167.024L323.111 169.413L321.927 169.317L322.125 166.928L323.309 167.024ZM321.254 166.852L321.057 169.241L319.873 169.145L320.07 166.756L321.254 166.852ZM319.2 166.68L319.002 169.069L317.818 168.973L318.016 166.584L319.2 166.68ZM317.14 166.513L316.943 168.902L315.759 168.801L315.956 166.412L317.14 166.513ZM315.086 166.341L314.889 168.73L313.705 168.634L313.902 166.245L315.086 166.341ZM313.032 166.169L312.834 168.558L311.65 168.461L311.848 166.073L313.032 166.169ZM310.977 165.997L310.78 168.386L309.596 168.289L309.793 165.901L310.977 165.997ZM308.923 165.825L308.726 168.214L307.541 168.117L307.739 165.729L308.923 165.825ZM306.863 165.658L306.666 168.047L305.482 167.95L305.679 165.562L306.863 165.658ZM304.809 165.486L304.612 167.875L303.428 167.778L303.625 165.39L304.809 165.486ZM302.755 165.314L302.557 167.702L301.373 167.606L301.571 165.218L302.755 165.314ZM300.7 165.142L300.503 167.53L299.319 167.434L299.516 165.046L300.7 165.142ZM298.641 164.97L298.443 167.358L297.259 167.262L297.457 164.874L298.641 164.97ZM296.586 164.803L296.389 167.191L295.205 167.095L295.402 164.707L296.586 164.803ZM294.532 164.631L294.335 167.019L293.151 166.923L293.348 164.535L294.532 164.631ZM292.478 164.459L292.28 166.847L291.096 166.751L291.294 164.363L292.478 164.459ZM290.423 164.287L290.226 166.675L289.042 166.579L289.239 164.191L290.423 164.287ZM288.364 164.115L288.166 166.503L286.982 166.407L287.18 164.019L288.364 164.115ZM285.125 163.847L286.309 163.943L286.112 166.331L284.928 166.235L285.125 163.847Z" fill="#EFE7DC"/>
<path d="M285.063 163.874L284.19 163.801L284.123 164.603L284.996 164.676L285.063 163.874Z" fill="#4F8096"/>
<path d="M287.206 164.059L286.333 163.986L286.267 164.788L287.139 164.861L287.206 164.059Z" fill="#4F8096"/>
<path d="M289.263 164.227L288.39 164.154L288.324 164.956L289.196 165.028L289.263 164.227Z" fill="#4F8096"/>
<path d="M291.274 164.297L290.401 164.225L290.334 165.026L291.207 165.099L291.274 164.297Z" fill="#4F8096"/>
<path d="M293.376 164.571L292.504 164.499L292.437 165.3L293.31 165.373L293.376 164.571Z" fill="#4F8096"/>
<path d="M295.428 164.747L294.556 164.675L294.489 165.477L295.362 165.549L295.428 164.747Z" fill="#4F8096"/>
<path d="M297.502 164.901L296.629 164.828L296.562 165.63L297.435 165.702L297.502 164.901Z" fill="#4F8096"/>
<path d="M299.543 165.087L298.67 165.014L298.603 165.816L299.476 165.889L299.543 165.087Z" fill="#4F8096"/>
<path d="M301.6 165.254L300.727 165.182L300.66 165.984L301.533 166.056L301.6 165.254Z" fill="#4F8096"/>
<path d="M303.654 165.427L302.781 165.354L302.715 166.156L303.587 166.228L303.654 165.427Z" fill="#4F8096"/>
<path d="M305.708 165.598L304.836 165.526L304.769 166.328L305.642 166.4L305.708 165.598Z" fill="#4F8096"/>
<path d="M307.761 165.77L306.888 165.697L306.821 166.499L307.694 166.572L307.761 165.77Z" fill="#4F8096"/>
<path d="M309.82 165.942L308.948 165.87L308.881 166.671L309.753 166.744L309.82 165.942Z" fill="#4F8096"/>
<path d="M311.874 166.114L311.002 166.042L310.935 166.844L311.808 166.916L311.874 166.114Z" fill="#4F8096"/>
<path d="M313.945 166.277L313.072 166.204L313.005 167.006L313.878 167.078L313.945 166.277Z" fill="#4F8096"/>
<path d="M315.983 166.458L315.111 166.386L315.044 167.188L315.916 167.26L315.983 166.458Z" fill="#4F8096"/>
<path d="M318.043 166.626L317.171 166.553L317.104 167.355L317.976 167.427L318.043 166.626Z" fill="#4F8096"/>
<path d="M320.049 166.689L319.177 166.617L319.11 167.418L319.982 167.491L320.049 166.689Z" fill="#4F8096"/>
<path d="M322.191 166.904L321.318 166.831L321.251 167.633L322.124 167.706L322.191 166.904Z" fill="#4F8096"/>
<path d="M324.209 167.137L323.336 167.065L323.27 167.866L324.142 167.939L324.209 167.137Z" fill="#4F8096"/>
<path d="M326.217 167.205L325.344 167.133L325.278 167.934L326.15 168.007L326.217 167.205Z" fill="#4F8096"/>
<path d="M328.323 167.477L327.45 167.404L327.384 168.206L328.256 168.278L328.323 167.477Z" fill="#4F8096"/>
<path d="M330.375 167.653L329.502 167.581L329.436 168.382L330.308 168.455L330.375 167.653Z" fill="#4F8096"/>
<path d="M332.429 167.825L331.557 167.752L331.49 168.554L332.362 168.627L332.429 167.825Z" fill="#4F8096"/>
<path d="M334.484 167.997L333.611 167.925L333.544 168.726L334.417 168.799L334.484 167.997Z" fill="#4F8096"/>
<path d="M336.543 168.169L335.671 168.097L335.604 168.899L336.476 168.971L336.543 168.169Z" fill="#4F8096"/>
<path d="M338.598 168.336L337.725 168.264L337.659 169.066L338.531 169.138L338.598 168.336Z" fill="#4F8096"/>
<path d="M339.137 172.59C339.643 172.631 340.088 172.256 340.133 171.75L282.145 166.928C282.104 167.434 282.479 167.88 282.985 167.925C283.491 167.966 283.87 168.411 283.825 168.922L338.14 173.441C338.185 172.929 338.631 172.55 339.137 172.59Z" fill="#4F8096"/>
<path d="M328.576 127.08L327.858 127.02L328.045 124.793L328.136 123.7L301.91 121.519L301.819 122.612L301.631 124.839L300.918 124.778C300.523 124.743 300.174 125.041 300.144 125.436L300.108 125.841C300.073 126.235 300.371 126.584 300.766 126.615C301.161 126.65 301.454 126.994 301.424 127.389L301.095 131.336L327.321 133.517L327.65 129.57C327.681 129.175 328.03 128.882 328.424 128.912C328.819 128.947 329.168 128.649 329.199 128.254L329.234 127.849C329.264 127.46 328.971 127.111 328.576 127.08ZM327.276 124.732L327.089 126.959L326.041 126.873L326.228 124.646L327.276 124.732ZM325.459 124.581L325.272 126.807L324.225 126.721L324.412 124.495L325.459 124.581ZM323.638 124.429L323.45 126.655L322.403 126.569L322.59 124.343L323.638 124.429ZM321.821 124.277L321.634 126.503L320.586 126.417L320.774 124.191L321.821 124.277ZM320.004 124.125L319.817 126.352L318.77 126.266L318.957 124.039L320.004 124.125ZM318.183 123.973L317.996 126.2L316.948 126.114L317.135 123.887L318.183 123.973ZM316.366 123.822L316.179 126.048L315.132 125.962L315.319 123.736L316.366 123.822ZM314.55 123.67L314.362 125.896L313.315 125.81L313.502 123.584L314.55 123.67ZM312.728 123.518L312.541 125.744L311.493 125.658L311.681 123.432L312.728 123.518ZM310.911 123.371L310.724 125.598L309.677 125.512L309.864 123.285L310.911 123.371ZM309.095 123.219L308.908 125.446L307.86 125.36L308.047 123.133L309.095 123.219ZM307.273 123.068L307.086 125.294L306.039 125.208L306.226 122.982L307.273 123.068ZM305.457 122.916L305.27 125.142L304.222 125.056L304.409 122.83L305.457 122.916ZM302.593 122.678L303.64 122.764L303.453 124.99L302.405 124.904L302.593 122.678Z" fill="#EFE7DC"/>
<path d="M328.424 128.917C328.819 128.953 329.168 128.654 329.199 128.259L329.214 128.092L300.123 125.674L300.108 125.841C300.073 126.235 300.371 126.584 300.766 126.615C301.161 126.65 301.454 126.994 301.424 127.389L327.65 129.57C327.681 129.175 328.03 128.882 328.424 128.917Z" fill="#4F8096"/>
<path d="M301.712 123.395L302.484 123.459L302.55 122.657L301.779 122.593L301.712 123.395Z" fill="#4F8096"/>
<path d="M303.529 123.551L304.301 123.615L304.368 122.813L303.596 122.749L303.529 123.551Z" fill="#4F8096"/>
<path d="M305.357 123.687L306.129 123.751L306.196 122.949L305.424 122.885L305.357 123.687Z" fill="#4F8096"/>
<path d="M307.172 123.837L307.944 123.902L308.011 123.1L307.239 123.036L307.172 123.837Z" fill="#4F8096"/>
<path d="M308.983 124.024L309.754 124.088L309.821 123.286L309.049 123.222L308.983 124.024Z" fill="#4F8096"/>
<path d="M310.804 124.154L311.575 124.218L311.642 123.416L310.871 123.352L310.804 124.154Z" fill="#4F8096"/>
<path d="M312.609 124.345L313.38 124.409L313.447 123.607L312.675 123.543L312.609 124.345Z" fill="#4F8096"/>
<path d="M314.438 124.46L315.21 124.524L315.276 123.723L314.505 123.658L314.438 124.46Z" fill="#4F8096"/>
<path d="M316.33 124.677L317.102 124.741L317.168 123.939L316.397 123.875L316.33 124.677Z" fill="#4F8096"/>
<path d="M318.153 124.813L318.925 124.877L318.992 124.075L318.22 124.011L318.153 124.813Z" fill="#4F8096"/>
<path d="M319.973 124.964L320.745 125.028L320.812 124.226L320.04 124.162L319.973 124.964Z" fill="#4F8096"/>
<path d="M321.711 125.084L322.483 125.148L322.549 124.347L321.778 124.283L321.711 125.084Z" fill="#4F8096"/>
<path d="M323.53 125.209L324.302 125.273L324.368 124.471L323.597 124.407L323.53 125.209Z" fill="#4F8096"/>
<path d="M325.347 125.365L326.119 125.429L326.186 124.627L325.414 124.563L325.347 125.365Z" fill="#4F8096"/>
<path d="M327.167 125.516L327.939 125.58L328.005 124.778L327.234 124.714L327.167 125.516Z" fill="#4F8096"/>
<path d="M328.809 18.9515L318.562 18.1014C318.056 18.0609 317.611 18.4353 317.565 18.9413C317.525 19.4473 317.899 19.8927 318.405 19.9382C318.765 19.9686 319.028 20.2823 318.998 20.6415L318.689 24.3607C318.658 24.72 318.927 25.0337 319.281 25.064L326.937 25.7016C327.296 25.732 327.61 25.4638 327.64 25.1096L327.949 21.3904C327.979 21.0312 328.293 20.768 328.652 20.7984C329.158 20.8389 329.603 20.4644 329.649 19.9584C329.689 19.4372 329.315 18.992 328.809 18.9515Z" fill="#EFE7DC"/>
<path d="M318.41 19.9332C318.77 19.9636 319.033 20.2773 319.002 20.6365L318.982 20.9098L327.934 21.6536L327.954 21.3804C327.984 21.0211 328.298 20.758 328.657 20.7883C329.163 20.8288 329.608 20.4544 329.654 19.9484L317.576 18.9414C317.525 19.4474 317.904 19.8927 318.41 19.9332Z" fill="#4F8096"/>
<path d="M327.083 15.1262C326.152 15.0503 325.343 14.3975 325.135 13.4816C324.973 12.7732 324.908 12.0446 324.933 11.3159L325.307 0.780867C325.312 0.603765 325.054 0.5835 325.034 0.755542L323.663 11.2046C323.567 11.9282 323.379 12.6366 323.101 13.3045C322.747 14.1698 321.841 14.6809 320.905 14.605C320.495 14.5695 320.136 14.8732 320.101 15.2881L319.858 18.1976L327.524 18.8352L327.767 15.9257C327.802 15.5208 327.493 15.1616 327.083 15.1262Z" fill="#4F8096"/>
<path d="M375.928 165.727L360.226 162.424L354.96 187.45L370.662 190.754L375.928 165.727Z" fill="#4F8096"/>
<path d="M364.265 131.619L360.095 151.439L361.249 154.344L359.529 162.516L373.246 173.395L381.282 135.201L364.265 131.619Z" fill="#EAEAEA"/>
<path d="M346.043 118.169L350.011 131.316L359.508 133.314L346.686 117.866L346.377 117.8C346.231 117.967 346.19 118.013 346.043 118.169Z" fill="#EAEAEA"/>
<path d="M349.287 121.367L356.234 132.631L359.508 133.319L349.287 121.367Z" fill="#4F8096"/>
<path d="M356.659 119.308L347.06 117.289C346.878 117.572 346.873 117.583 346.691 117.871L356.857 131.523C358.107 133.203 359.741 134.554 361.623 135.47L363.288 136.279L364.27 131.619L356.659 119.308Z" fill="#EAEAEA"/>
<path d="M359.22 123.457L364.265 131.619L363.764 134.007L359.22 123.457Z" fill="#4F8096"/>
<path d="M346.043 118.169L345.355 118.023C344.875 117.921 344.444 117.648 344.141 117.259C343.842 116.869 343.412 116.596 342.926 116.494L340.088 115.897C339.597 115.796 339.116 116.11 339.015 116.596C338.959 116.859 339.126 117.117 339.394 117.173L339.577 117.213L337.026 116.677C336.627 116.591 336.207 116.672 335.863 116.894L335.741 116.975L335.62 116.95C335.316 116.884 335.017 117.081 334.957 117.385C334.891 117.689 335.088 117.987 335.392 118.048L335.726 118.119C335.645 118.498 335.888 118.873 336.272 118.954L336.495 118.999C336.439 119.267 336.596 119.531 336.854 119.617C337.74 119.895 339.774 120.532 341.869 121.094C342.43 121.246 343.007 121.307 343.589 121.281C344.065 121.261 344.546 121.296 345.011 121.398L347.172 121.853L346.043 118.169Z" fill="#EAEAEA"/>
<path d="M407.878 131.179L398.952 141.613L389.454 139.614L407.412 130.642L407.721 130.708C407.786 130.916 407.807 130.971 407.878 131.179Z" fill="#EAEAEA"/>
<path d="M403.617 132.798L392.723 140.307L389.454 139.619L403.617 132.798Z" fill="#4F8096"/>
<path d="M385.983 125.481L407.306 129.969C407.356 130.303 407.361 130.313 407.412 130.647L392.606 139.047C390.785 140.079 388.745 140.661 386.656 140.737L382.724 140.98L385.983 125.481Z" fill="#EAEAEA"/>
<path d="M407.878 131.179L408.566 131.325C409.046 131.427 409.552 131.351 409.983 131.118C410.413 130.88 410.919 130.809 411.399 130.911L414.238 131.508C414.729 131.609 415.043 132.089 414.936 132.58C414.881 132.843 414.623 133.015 414.359 132.96L414.177 132.919L416.723 133.456C417.122 133.542 417.477 133.78 417.699 134.124L417.78 134.245L417.902 134.27C418.205 134.336 418.397 134.63 418.337 134.933C418.271 135.237 417.977 135.429 417.674 135.368L417.34 135.298C417.259 135.677 416.884 135.925 416.505 135.844L416.282 135.799C416.227 136.067 415.979 136.249 415.706 136.219C414.785 136.117 412.664 135.879 410.519 135.551C409.947 135.465 409.391 135.287 408.869 135.029C408.439 134.817 407.989 134.66 407.523 134.564L405.363 134.108L407.878 131.179Z" fill="#EAEAEA"/>
<path d="M363.779 131.993L364.791 133.759C365.833 135.581 367.64 136.841 369.704 137.2L375.913 138.278L364.26 131.619L363.779 131.993Z" fill="#4F8096"/>
<path d="M382.81 115.599L381.965 119.622C381.722 120.78 381.763 121.98 382.087 123.118L382.284 123.821L379.977 123.336L374.739 122.233L372.432 121.747L372.897 121.185C373.651 120.274 374.173 119.191 374.416 118.038L375.261 114.015C375.701 111.93 377.745 110.599 379.825 111.035C381.915 111.47 383.245 113.514 382.81 115.599Z" fill="#EAEAEA"/>
<path d="M381.692 123.037C381.353 121.838 381.307 120.573 381.565 119.353L382.081 116.889C382.395 115.386 381.672 113.767 380.138 112.573C379.799 112.305 379.637 111.945 379.703 111.611C379.632 111.945 379.339 112.209 378.919 112.32C378.377 112.456 377.882 112.654 377.441 112.902C376.956 113.175 376.348 112.725 376.5 112.188C376.566 111.956 376.718 111.738 376.971 111.546C376.121 112.082 375.478 112.947 375.255 114.01L374.41 118.033C374.167 119.191 373.646 120.269 372.892 121.18L372.427 121.742L374.734 122.227L379.971 123.331L381.884 123.735L381.692 123.037Z" fill="#4F8096"/>
<path d="M375.68 117.759L374.739 122.237C374.628 122.759 375.716 123.421 377.158 123.73C378.605 124.034 379.865 123.862 379.976 123.341L380.917 118.862L375.68 117.759Z" fill="#EAEAEA"/>
<path d="M379.389 121.772L380.042 118.675L375.68 117.759L374.739 122.237C374.628 122.759 375.716 123.421 377.158 123.73C377.421 122.475 378.666 122.612 379.389 121.772Z" fill="#4F8096"/>
<path d="M377.497 122.116L377.998 122.222C378.534 122.334 379.081 122.157 379.389 121.772L380.214 120.745C380.629 120.229 380.907 119.637 381.044 119.004L381.515 116.773C381.828 115.27 381.277 113.691 380.037 112.558C379.759 112.305 379.637 111.95 379.708 111.616C379.637 111.95 379.384 112.224 379.03 112.345C377.441 112.881 376.298 114.106 375.979 115.609L375.508 117.84C375.377 118.473 375.397 119.131 375.564 119.768L375.903 121.043C376.029 121.524 376.46 121.904 376.996 122.015L377.497 122.116Z" fill="#EAEAEA"/>
<path d="M374.739 122.232L357.196 118.544C356.938 118.913 356.912 118.943 356.659 119.313L365.358 133.39C366.567 135.348 368.53 136.73 370.787 137.2L377.826 138.683L381.008 123.553L374.739 122.232Z" fill="#EAEAEA"/>
<path d="M372.341 166.559L371.071 172.606L373.757 175.955L375.594 167.242L372.341 166.559Z" fill="#4F8096"/>
<path d="M372.659 166.625L371.405 172.59L373.757 175.955L374.673 176.148L376.51 167.434L372.659 166.625Z" fill="#EFE7DC"/>
<path d="M380.806 124.494L371.445 166.771L377.128 167.566L380.806 124.494Z" fill="#4F8096"/>
<path d="M377.127 167.566L371.976 166.483L381.003 123.568C381.084 123.189 381.454 122.951 381.828 123.027L384.626 123.614C385.547 123.806 386.139 124.712 385.947 125.638L377.127 167.566Z" fill="#EAEAEA"/>
<path d="M361.249 154.344L363.845 142.007L360.601 152.704L361.249 154.344Z" fill="#4F8096"/>
<path d="M308.245 229.015C308.245 229.015 339.738 194.49 354.949 187.416C370.155 180.342 389.388 203.887 407.209 249.832L308.245 229.015Z" fill="#4F8096"/>
<path d="M347.389 192.092C331.212 203.851 308.25 229.015 308.25 229.015L407.215 249.837C402.382 237.379 397.444 226.581 392.515 217.579C398.638 229.906 340.756 198.194 347.389 192.092Z" fill="#253D65"/>
<path d="M429.059 246.255C424.925 224.562 419.222 203.563 411.946 182.71C398.304 194.875 385.299 207.51 372.766 220.818C392.211 227.988 410.832 236.403 429.059 246.255Z" fill="#1E334F"/>
<path d="M354.398 214.827C372.867 202.663 391.918 192.082 411.946 182.716C410.271 199.956 408.09 217.069 405.378 234.177C388.705 226.643 371.87 220.257 354.398 214.827Z" fill="#253D65"/>
<path d="M481.931 286.27C481.79 253.774 477.934 222.103 470.708 190.427C448.312 204.848 427.096 220.545 406.82 237.815C433.744 251.33 458.524 267.315 481.931 286.27Z" fill="#253D65"/>
<path d="M381.327 226.587C409.866 211.098 439.472 199.277 470.708 190.432C465.223 215.004 458.675 239.196 450.994 263.171C428.821 248.729 405.803 236.641 381.327 226.587Z" fill="#4F8096"/>
<path d="M448.482 273.51L470.783 287.53L472.351 285.036L450.049 271.017L448.482 273.51Z" fill="#4F8096"/>
<path d="M522.969 200.613L517.276 212.605C516.73 213.749 516.568 215.034 516.75 216.289C517.119 218.88 516.679 224.861 509.686 235.983L481.036 281.564C478.172 286.123 472.156 287.495 467.597 284.631L450.903 274.136C446.825 271.57 445.216 266.409 447.149 261.997C451.43 252.241 461.616 234.652 484.543 215.515C487.928 212.692 490.058 208.643 490.448 204.256L490.842 199.788L522.969 200.613Z" fill="#EAEAEA"/>
<path d="M517.276 212.6C516.73 213.744 516.568 215.029 516.75 216.284C516.942 217.645 516.912 219.948 515.824 223.439C516.578 220.398 515.961 215.915 510.516 213.339C504.14 210.323 492.694 217.372 486.552 213.511C488.763 210.915 490.144 207.687 490.448 204.246L490.842 199.778L522.969 200.603L517.276 212.6Z" fill="#4F8096"/>
<path d="M550.111 173.643L523.121 201.281C519.791 204.691 514.893 206.053 510.283 204.848L490.842 199.783C488.454 199.161 487.361 196.398 488.672 194.308L497.026 181.015L496.332 177.964C495.963 176.335 496.803 174.67 498.336 174.002L521.623 163.902L521.906 159.566C521.982 158.361 522.635 157.263 523.657 156.616L527.811 153.979C530.346 152.37 533.499 152.057 536.297 153.155C540.173 154.683 545.658 158.088 550.845 165.704C552.53 168.183 552.201 171.508 550.111 173.643Z" fill="#EAEAEA"/>
<path d="M496.874 175.222L507.556 181.936C507.88 182.139 507.763 182.64 507.384 182.675L503.184 183.095C501.59 183.257 499.991 182.878 498.64 182.027L497.031 181.015L496.338 177.964C496.11 176.988 496.333 176.001 496.874 175.222Z" fill="#4F8096"/>
<path d="M522.802 157.375L524.805 158.635C525.757 159.232 526.04 160.482 525.443 161.433C525.079 162.015 524.558 162.485 523.935 162.784L521.623 163.912L521.906 159.576C521.962 158.751 522.281 157.987 522.802 157.375Z" fill="#4F8096"/>
<path d="M533.028 172.575C533.322 172.757 533.706 172.611 533.797 172.282C534.303 170.45 535.366 165.274 531.981 163.143L530.741 162.364C529.79 161.767 528.54 162.055 527.943 163.002L527.386 163.892L527.351 166.225C527.331 167.621 526.561 168.902 525.332 169.57L519.993 172.484L526.607 170.435C527.887 170.04 529.274 170.222 530.407 170.931L533.028 172.575Z" fill="#4F8096"/>
<path d="M501.934 198.69L527.907 176.593C529.491 175.247 531.758 175.085 533.519 176.188L533.651 176.269L535.138 173.901C536.069 172.418 536.211 170.141 536.125 168.239C536.019 166.002 536.99 163.852 538.766 162.496L544.348 158.225C546.458 160.092 548.654 162.506 550.804 165.643C552.504 168.132 552.221 171.482 550.111 173.638L522.038 201.17C518.708 204.58 513.81 205.941 509.2 204.737L493.797 200.547C496.651 201.296 499.687 200.603 501.934 198.69Z" fill="#4F8096"/>
<path d="M473.264 281.392C475.09 278.488 472.662 275.745 471.508 274.682C471.204 274.399 471.139 273.944 471.356 273.595C472.029 272.527 472.92 271.616 473.972 270.923L493.403 258.106C496.075 256.345 498.336 254.032 500.042 251.32L481.031 281.564C478.167 286.123 472.151 287.494 467.591 284.63L450.898 274.136C467.698 284.691 473.264 281.392 473.264 281.392Z" fill="#4F8096"/>
<path d="M500.173 232.193L489.633 248.962L482.706 250.541L485.049 246.811C485.98 245.334 486.44 243.608 486.38 241.863L486.299 239.682C486.162 235.927 489.061 232.765 492.816 232.567L500.173 232.193Z" fill="#4F8096"/>
<path d="M287.62 197.42C286.593 196.15 285.92 194.627 285.829 192.993L285.312 183.915C285.267 183.105 284.574 182.493 283.769 182.539L283.673 182.544C281.806 182.65 280.182 181.36 279.817 179.573C279.756 179.265 279.468 179.057 279.154 179.078L260.331 180.15C260.017 180.171 259.759 180.408 259.729 180.722C259.572 182.534 258.104 184.001 256.237 184.107L256.141 184.112C255.337 184.158 254.719 184.851 254.765 185.656L255.281 194.733C255.372 196.368 254.881 197.952 254.001 199.333C253.652 199.885 253.464 200.542 253.505 201.241C253.545 201.959 253.819 202.612 254.249 203.123C254.841 203.831 255.144 204.732 255.195 205.648L255.433 209.797L287.382 207.976L287.144 203.826C287.094 202.905 287.291 201.979 287.797 201.21C288.166 200.654 288.364 199.976 288.323 199.252C288.293 198.559 288.03 197.926 287.62 197.42Z" fill="#EAEAEA"/>
<path d="M283.643 182.544H283.673C281.887 182.645 280.323 181.471 279.873 179.811L259.704 180.96C259.446 182.65 258.044 183.991 256.268 184.107C256.065 185.453 255.995 187.386 256.116 189.516C256.344 193.539 257.158 196.763 257.933 196.722C258.707 196.676 259.147 193.382 258.919 189.36C258.828 187.761 258.646 186.288 258.408 185.099C258.292 184.517 258.717 183.971 259.309 183.935L260.64 183.859C261.242 183.824 261.728 184.34 261.667 184.937C261.535 186.146 261.5 187.619 261.591 189.203C261.819 193.226 262.765 196.444 263.696 196.388C264.632 196.332 265.199 193.028 264.971 189.005C264.88 187.422 264.678 185.959 264.409 184.775C264.278 184.188 264.703 183.621 265.305 183.586L267.228 183.475C267.85 183.439 268.341 183.986 268.245 184.598C268.063 185.802 267.997 187.26 268.088 188.823C268.316 192.846 269.475 196.054 270.674 195.983C271.873 195.912 272.657 192.598 272.425 188.575C272.334 187.012 272.106 185.57 271.787 184.396C271.625 183.794 272.05 183.196 272.673 183.161L274.595 183.05C275.198 183.014 275.683 183.53 275.623 184.128C275.491 185.337 275.456 186.809 275.547 188.393C275.774 192.416 276.721 195.634 277.652 195.578C278.588 195.523 279.154 192.219 278.927 188.196C278.836 186.612 278.633 185.15 278.365 183.966C278.234 183.379 278.659 182.812 279.261 182.776L280.592 182.701C281.184 182.665 281.669 183.161 281.619 183.753C281.518 184.962 281.507 186.445 281.599 188.044C281.826 192.067 282.641 195.29 283.415 195.25C284.189 195.204 284.63 191.91 284.402 187.887C284.285 185.772 283.997 183.859 283.643 182.544Z" fill="#4F8096"/>
<path d="M253.652 202.03C253.778 202.44 253.986 202.814 254.254 203.133C254.846 203.842 255.149 204.742 255.2 205.658L255.438 209.807L287.387 207.986L287.149 203.837C287.099 202.916 287.296 201.99 287.802 201.22C288.03 200.871 288.192 200.477 288.273 200.057L253.652 202.03Z" fill="#253D65"/>
<path d="M266.605 179.796C264.096 179.938 262.841 180.009 260.331 180.155C260.321 178.147 260.326 177.099 260.351 174.949C262.775 174.792 263.989 174.716 266.413 174.564C266.484 176.714 266.524 177.767 266.605 179.796Z" fill="#4F8096"/>
<path d="M272.88 179.437C270.37 179.579 269.115 179.649 266.605 179.796C266.524 177.767 266.484 176.715 266.413 174.564C268.837 174.407 270.051 174.331 272.475 174.179C272.647 176.335 272.728 177.393 272.88 179.437Z" fill="#EAEAEA"/>
<path d="M279.154 179.078C276.645 179.219 275.39 179.29 272.88 179.437C272.728 177.393 272.647 176.335 272.475 174.174C274.899 174.018 276.113 173.942 278.537 173.79C278.805 175.956 278.932 177.018 279.154 179.078Z" fill="#4F8096"/>
<path d="M278.537 173.785C276.113 173.942 274.899 174.018 272.475 174.169C272.303 172.009 272.212 170.895 272.02 168.644C274.332 168.487 275.491 168.406 277.803 168.249C278.112 170.506 278.264 171.614 278.537 173.785Z" fill="#EAEAEA"/>
<path d="M266.413 174.559C263.989 174.716 262.775 174.792 260.351 174.943C260.377 172.793 260.397 171.69 260.452 169.433C262.765 169.276 263.924 169.195 266.236 169.038C266.302 171.295 266.337 172.403 266.413 174.559Z" fill="#EAEAEA"/>
<path d="M272.475 174.174C270.051 174.331 268.837 174.407 266.413 174.559C266.337 172.403 266.302 171.295 266.236 169.043C268.549 168.886 269.707 168.806 272.02 168.649C272.207 170.9 272.298 172.009 272.475 174.174Z" fill="#4F8096"/>
<path d="M266.236 169.043C263.924 169.2 262.765 169.281 260.453 169.438C260.508 167.186 260.544 166.033 260.62 163.71C262.8 163.553 263.893 163.477 266.074 163.321C266.135 165.643 266.17 166.792 266.236 169.043Z" fill="#4F8096"/>
<path d="M272.02 168.649C269.707 168.806 268.549 168.887 266.236 169.043C266.17 166.792 266.135 165.643 266.074 163.321C268.255 163.164 269.348 163.088 271.529 162.931C271.731 165.248 271.828 166.392 272.02 168.649Z" fill="#EAEAEA"/>
<path d="M277.804 168.254C275.491 168.411 274.332 168.492 272.02 168.649C271.828 166.397 271.731 165.248 271.529 162.936C273.71 162.779 274.803 162.703 276.984 162.546C277.323 164.854 277.49 165.997 277.804 168.254Z" fill="#4F8096"/>
<path d="M276.984 162.546C274.803 162.703 273.71 162.779 271.529 162.936C271.327 160.623 271.225 159.455 271.013 157.112C273.052 156.965 274.069 156.889 276.108 156.742C276.468 159.07 276.645 160.239 276.984 162.546Z" fill="#EAEAEA"/>
<path d="M266.074 163.32C263.893 163.477 262.8 163.553 260.619 163.71C260.695 161.388 260.741 160.209 260.827 157.845C262.866 157.699 263.883 157.623 265.922 157.476C265.978 159.829 266.008 161.003 266.074 163.32Z" fill="#EAEAEA"/>
<path d="M271.529 162.936C269.348 163.093 268.255 163.169 266.074 163.326C266.014 161.008 265.983 159.834 265.922 157.481C267.962 157.334 268.979 157.259 271.018 157.112C271.225 159.45 271.327 160.618 271.529 162.936Z" fill="#4F8096"/>
<path d="M265.922 157.476C263.883 157.623 262.866 157.699 260.827 157.845C260.918 155.482 260.964 154.293 261.06 151.92C262.947 151.783 263.888 151.718 265.776 151.581C265.831 153.939 265.862 155.123 265.922 157.476Z" fill="#4F8096"/>
<path d="M271.013 157.107C268.974 157.253 267.957 157.329 265.917 157.476C265.857 155.123 265.831 153.939 265.771 151.581C267.658 151.444 268.599 151.379 270.487 151.242C270.699 153.585 270.805 154.764 271.013 157.107Z" fill="#EAEAEA"/>
<path d="M276.108 156.737C274.069 156.884 273.052 156.96 271.013 157.107C270.805 154.764 270.699 153.585 270.487 151.242C272.374 151.105 273.315 151.04 275.203 150.903C275.567 153.236 275.749 154.405 276.108 156.737Z" fill="#4F8096"/>
<path d="M275.208 150.903C273.32 151.04 272.379 151.106 270.492 151.242C270.279 148.899 270.178 147.73 269.97 145.413C271.706 145.292 272.571 145.231 274.307 145.109C274.661 147.412 274.843 148.576 275.208 150.903Z" fill="#EAEAEA"/>
<path d="M265.776 151.581C263.888 151.718 262.947 151.784 261.06 151.92C261.156 149.552 261.201 148.363 261.298 146.02C263.033 145.899 263.898 145.838 265.634 145.717C265.69 148.044 265.715 149.223 265.776 151.581Z" fill="#EAEAEA"/>
<path d="M270.492 151.242C268.604 151.379 267.663 151.444 265.776 151.581C265.72 149.223 265.69 148.044 265.634 145.716C267.37 145.595 268.235 145.534 269.971 145.413C270.173 147.73 270.279 148.899 270.492 151.242Z" fill="#4F8096"/>
<path d="M265.629 145.716C263.893 145.838 263.028 145.899 261.293 146.02C261.384 143.677 261.429 142.513 261.515 140.226C263.104 140.12 263.899 140.064 265.487 139.958C265.543 142.235 265.573 143.389 265.629 145.716Z" fill="#4F8096"/>
<path d="M269.965 145.413C268.23 145.534 267.364 145.595 265.629 145.716C265.573 143.389 265.543 142.23 265.482 139.963C267.071 139.857 267.865 139.801 269.454 139.695C269.657 141.952 269.758 143.1 269.965 145.413Z" fill="#EAEAEA"/>
<path d="M274.302 145.109C272.566 145.231 271.701 145.291 269.965 145.413C269.758 143.1 269.657 141.952 269.454 139.695C271.043 139.589 271.838 139.533 273.426 139.427C273.766 141.673 273.943 142.812 274.302 145.109Z" fill="#4F8096"/>
<path d="M273.427 139.432C271.838 139.538 271.043 139.594 269.454 139.7C269.257 137.443 269.156 136.335 268.969 134.169C270.421 134.078 271.15 134.033 272.602 133.942C272.921 136.087 273.088 137.19 273.427 139.432Z" fill="#EAEAEA"/>
<path d="M265.487 139.963C263.898 140.069 263.104 140.125 261.515 140.231C261.596 137.949 261.637 136.821 261.702 134.63C263.155 134.539 263.883 134.493 265.336 134.402C265.401 136.573 265.427 137.696 265.487 139.963Z" fill="#EAEAEA"/>
<path d="M269.459 139.695C267.871 139.801 267.076 139.857 265.487 139.963C265.427 137.691 265.401 136.573 265.341 134.397C266.793 134.306 267.521 134.261 268.974 134.169C269.161 136.33 269.257 137.443 269.459 139.695Z" fill="#4F8096"/>
<path d="M265.341 134.397C263.888 134.488 263.16 134.534 261.707 134.625C261.773 132.434 261.798 131.361 261.839 129.292C263.18 129.211 263.848 129.175 265.184 129.094C265.244 131.154 265.28 132.216 265.341 134.397Z" fill="#4F8096"/>
<path d="M268.974 134.164C267.521 134.256 266.793 134.301 265.341 134.392C265.28 132.211 265.249 131.149 265.184 129.089C266.525 129.008 267.193 128.973 268.528 128.892C268.695 130.941 268.786 132.004 268.974 134.164Z" fill="#EAEAEA"/>
<path d="M272.607 133.937C271.155 134.028 270.426 134.073 268.974 134.164C268.786 131.999 268.695 130.941 268.528 128.897C269.869 128.816 270.537 128.775 271.873 128.699C272.146 130.734 272.298 131.786 272.607 133.937Z" fill="#4F8096"/>
<path d="M271.873 128.699C270.532 128.78 269.864 128.816 268.528 128.897C268.361 126.853 268.281 125.861 268.134 123.963C269.384 123.892 270.006 123.857 271.256 123.786C271.478 125.679 271.6 126.665 271.873 128.699Z" fill="#EAEAEA"/>
<path d="M265.184 129.094C263.843 129.175 263.175 129.211 261.839 129.291C261.879 127.222 261.89 126.22 261.895 124.312C263.144 124.242 263.767 124.206 265.017 124.135C265.083 126.043 265.118 127.04 265.184 129.094Z" fill="#EAEAEA"/>
<path d="M268.528 128.897C267.187 128.978 266.52 129.018 265.184 129.094C265.118 127.035 265.088 126.043 265.017 124.135C266.267 124.065 266.889 124.029 268.139 123.958C268.28 125.861 268.361 126.853 268.528 128.897Z" fill="#4F8096"/>
<path d="M265.011 124.135C263.762 124.206 263.139 124.241 261.889 124.312C261.894 122.4 261.889 121.489 261.854 119.763C263.043 119.697 263.64 119.667 264.829 119.601C264.905 121.322 264.941 122.233 265.011 124.135Z" fill="#4F8096"/>
<path d="M268.134 123.963C266.884 124.034 266.261 124.069 265.012 124.14C264.941 122.238 264.905 121.322 264.829 119.607C266.019 119.541 266.616 119.51 267.805 119.445C267.921 121.155 267.987 122.066 268.134 123.963Z" fill="#EAEAEA"/>
<path d="M271.256 123.786C270.006 123.857 269.384 123.892 268.134 123.963C267.987 122.066 267.921 121.155 267.8 119.44C268.989 119.374 269.586 119.343 270.775 119.278C270.932 120.993 271.033 121.899 271.256 123.786Z" fill="#4F8096"/>
<path d="M270.775 119.278C269.586 119.343 268.989 119.374 267.8 119.44C267.683 117.724 267.628 116.91 267.542 115.402C268.711 115.336 269.292 115.3 270.461 115.235C270.552 116.748 270.613 117.562 270.775 119.278Z" fill="#EAEAEA"/>
<path d="M264.83 119.601C263.64 119.667 263.043 119.698 261.854 119.763C261.819 118.043 261.788 117.228 261.702 115.73C262.871 115.665 263.453 115.629 264.622 115.563C264.708 117.071 264.749 117.881 264.83 119.601Z" fill="#EAEAEA"/>
<path d="M267.8 119.44C266.611 119.505 266.013 119.536 264.824 119.601C264.748 117.881 264.708 117.071 264.622 115.569C265.791 115.503 266.373 115.467 267.542 115.402C267.633 116.91 267.683 117.719 267.8 119.44Z" fill="#4F8096"/>
<path d="M269.525 107.311L270.254 107.245L268.614 89.4739L260.614 89.9293L260.64 91.0627L261.004 107.771L261.738 107.756L261.368 91.0172L261.556 91.0071L262.072 107.71L262.8 107.69L262.284 90.9666L262.476 90.9565L263.134 107.655L263.868 107.624L263.205 90.916L263.392 90.9059L264.202 107.599L264.931 107.564L264.126 90.8603L264.313 90.8502L265.265 107.538L265.993 107.498L265.042 90.8097L265.229 90.7996L266.327 107.483L267.061 107.437L265.963 90.7591L266.15 90.749L267.395 107.427L268.124 107.371L266.879 90.7035L267.066 90.6933L268.457 107.366L269.186 107.306L267.8 90.6529L267.987 90.6428L269.525 107.311Z" fill="#4F8096"/>
<path d="M257.477 82.3998L257.502 82.7995C257.629 84.9854 258.17 87.8494 261.272 90.6173L261.92 89.8887C259.461 87.6926 258.762 85.4358 258.545 83.5686C258.494 83.1183 258.833 82.7236 259.284 82.6932L260.802 82.6072C261.227 82.5819 261.596 82.9007 261.632 83.3308C261.783 85.3295 262.148 87.7837 263.251 90.2429L263.696 90.0404C262.628 87.6673 262.274 85.284 262.122 83.3359C262.087 82.8956 262.421 82.5111 262.861 82.4858L265.533 82.334C265.973 82.3087 266.348 82.6528 266.363 83.093C266.434 85.0462 266.353 87.4547 265.563 89.9342L266.029 90.0809C266.848 87.5104 266.929 85.0259 266.853 83.0272C266.838 82.6022 267.167 82.2378 267.597 82.2176L269.115 82.1316C269.566 82.1063 269.95 82.4655 269.95 82.9159C269.945 84.7931 269.51 87.1208 267.314 89.58L268.043 90.2277C270.81 87.1258 271.023 84.2163 270.896 82.0303L270.871 81.6306L257.477 82.3998Z" fill="#4F8096"/>
<path d="M270.699 106.612L260.493 107.194C259.683 107.822 259.228 108.576 259.274 109.365C259.38 111.263 262.355 112.634 265.912 112.426C269.47 112.224 272.268 110.524 272.161 108.626C272.116 107.842 271.569 107.144 270.699 106.612Z" fill="#4F8096"/>
<path d="M271.569 114.455L260.518 115.088C259.967 115.118 259.516 114.663 259.547 114.116L259.673 111.93C259.699 111.465 260.073 111.09 260.539 111.065L271.089 110.463C271.554 110.438 271.969 110.761 272.05 111.227L272.425 113.388C272.521 113.924 272.121 114.425 271.569 114.455Z" fill="#EAEAEA"/>
<path d="M270.901 115.209L261.272 115.761C260.877 115.781 260.543 115.483 260.523 115.093L271.574 114.46C271.59 114.85 271.291 115.184 270.901 115.209Z" fill="#4F8096"/>
<path d="M270.178 105.727L260.913 106.253C260.655 106.268 260.453 106.491 260.468 106.749L260.493 107.189L270.699 106.607L270.674 106.167C270.659 105.914 270.436 105.711 270.178 105.727Z" fill="#EAEAEA"/>
<path d="M270.375 79.055L269.024 77.9317C267.612 76.7578 266.565 75.2094 265.993 73.4637L265.548 72.0974C265.022 70.4934 264.708 68.8286 264.612 67.1436L264.49 64.9982C264.475 64.7452 264.738 64.5681 264.966 64.6743C265.179 64.7755 265.381 64.9071 265.563 65.064L265.791 65.2613C265.953 65.403 266.206 65.3625 266.317 65.1753L266.949 64.1278C267 64.0469 267.101 64.0064 267.192 64.0368L268.498 64.4517C268.574 64.477 268.655 64.4264 268.67 64.3454L268.807 63.4549C268.832 63.2828 268.918 63.1209 269.039 62.9994L269.48 62.5694C269.52 62.5289 269.52 62.4681 269.485 62.4277L268.837 61.7294C268.69 61.5725 268.604 61.3701 268.594 61.1576L268.548 60.3328C268.543 60.2417 268.447 60.181 268.366 60.2164L267.562 60.5605C266.899 60.8439 266.211 61.0564 265.502 61.193C264.86 61.3195 264.253 60.8337 264.217 60.1759L264.156 59.1437C264.106 58.2632 264.217 57.3828 264.48 56.5428L264.521 56.4214C264.617 56.1127 264.556 55.7737 264.354 55.5207L262.967 53.78C262.76 53.5169 262.35 53.5371 262.173 53.8255L260.994 55.713C260.822 55.9862 260.796 56.3303 260.928 56.6238L260.979 56.7401C261.338 57.5447 261.545 58.41 261.596 59.2904L261.687 60.8843C261.697 61.0918 261.449 61.1981 261.302 61.0513L260.533 60.2468C260.422 60.1304 260.225 60.1557 260.149 60.2974L259.678 61.1323C259.481 61.4814 259.061 61.6332 258.686 61.4916L258.272 61.3347C258.15 61.2892 258.019 61.3448 257.963 61.4612L257.239 63.0956C257.209 63.1664 257.209 63.2525 257.239 63.3233L258.17 65.3676C258.241 65.5295 258.433 65.6003 258.595 65.5244L259.101 65.2967C259.779 64.9931 260.488 64.7705 261.216 64.6338C261.576 64.5681 261.91 64.8363 261.935 65.2006L262.056 67.2954C262.153 68.9804 262.031 70.6705 261.692 72.3252L261.404 73.7319C261.034 75.5282 260.169 77.1879 258.899 78.5136L257.685 79.7837C257.265 80.2239 257.047 80.816 257.082 81.4232L257.118 82C257.133 82.2328 257.33 82.4099 257.563 82.3947L270.815 81.6408C271.048 81.6256 271.225 81.4282 271.21 81.1955L271.175 80.6186C271.129 80.0063 270.846 79.4447 270.375 79.055Z" fill="#4F8096"/>
<path d="M208.617 109.658L207.458 102.878C207.458 102.878 204.286 100.287 203.233 90.1112C203.188 89.6912 203.015 89.3016 202.727 88.9929L201.68 87.8696C201.518 87.6976 201.411 87.485 201.376 87.2523L200.89 84.4136L205.733 86.5337L206.522 91.1587C206.522 91.1587 209.953 96.9828 210.58 100.661L211.952 102.746L208.617 109.658Z" fill="#EAEAEA"/>
<path d="M230.426 112.401C230.856 113.479 232.86 115.973 233.998 117.345C234.509 117.962 235.167 118.443 235.911 118.751L236.599 119.035L235.183 128.659L230.426 112.401Z" fill="#EFE7DC"/>
<path d="M235.177 128.654L236.316 120.907L235.926 120.694C235.274 120.345 234.717 119.834 234.317 119.212L231.251 114.496L231.134 114.83L235.177 128.654Z" fill="#4F8096"/>
<path d="M238.406 137.155L240.531 135.05C241.583 134.008 242.064 132.515 241.811 131.052L241.229 127.652C241.847 127.546 242.358 127.111 242.56 126.519L243.941 122.445C244.058 122.101 243.921 121.727 243.613 121.539L242.823 121.054L236.017 131.366L238.406 137.155Z" fill="#4F8096"/>
<path d="M215.701 102.169L210.449 103.065C210.373 103.08 210.343 102.974 210.413 102.944L215.276 100.844C215.312 100.829 215.352 100.849 215.362 100.884L215.747 102.083C215.767 102.124 215.742 102.159 215.701 102.169Z" fill="#EAEAEA"/>
<path d="M216.663 97.5901L210.854 95.0449C210.783 95.0145 210.727 95.1056 210.788 95.1562L215.241 98.7134C215.266 98.7337 215.296 98.7337 215.322 98.7134L216.678 97.7014C216.713 97.6711 216.708 97.6103 216.663 97.5901Z" fill="#EAEAEA"/>
<path d="M214.573 100.52L209.098 99.3865C209.022 99.3713 209.032 99.26 209.108 99.26L215.215 99.1487C215.266 99.1487 215.296 99.1993 215.276 99.2448L214.644 100.49C214.633 100.51 214.603 100.525 214.573 100.52Z" fill="#EAEAEA"/>
<path d="M222.79 100.955L228.043 100.059C228.119 100.044 228.113 99.938 228.038 99.9329L222.755 99.5686C222.714 99.5635 222.684 99.599 222.684 99.6344L222.719 100.894C222.714 100.935 222.75 100.96 222.79 100.955Z" fill="#EAEAEA"/>
<path d="M220.361 96.9526L224.991 92.6212C225.047 92.5706 225.133 92.6364 225.093 92.7022L222.077 97.5396C222.062 97.5649 222.031 97.575 222.001 97.5649L220.387 97.0639C220.341 97.0488 220.326 96.9881 220.361 96.9526Z" fill="#EAEAEA"/>
<path d="M223.306 99.0222L228.093 96.138C228.159 96.0975 228.114 95.9963 228.038 96.0216L222.239 97.9444C222.193 97.9596 222.178 98.0203 222.214 98.0507L223.226 99.0121C223.251 99.0374 223.281 99.0374 223.306 99.0222Z" fill="#EAEAEA"/>
<path d="M219.223 96.6439L217.614 91.6446C217.589 91.5737 217.487 91.5889 217.487 91.6648L217.634 96.9121C217.634 96.9526 217.669 96.983 217.71 96.9728L219.172 96.7249C219.213 96.7198 219.233 96.6793 219.223 96.6439Z" fill="#EAEAEA"/>
<path d="M223.58 99.1386C223.883 100.91 222.062 102.701 219.516 103.136C216.971 103.571 214.659 102.488 214.355 100.717C214.052 98.9464 215.873 97.1551 218.418 96.7199C220.964 96.2848 223.276 97.3676 223.58 99.1386Z" fill="#EAEAEA"/>
<path d="M222.173 104.548L223.271 101.051C223.61 99.9786 223.251 98.7946 222.345 98.1216C221.384 97.4081 219.992 97.0792 218.525 97.3322C217.057 97.5852 215.853 98.3594 215.185 99.3461C214.558 100.277 214.613 101.512 215.286 102.413L217.482 105.347L222.173 104.548Z" fill="#4F8096"/>
<path d="M215.418 112.209L226.59 110.296L223.726 105.236C223.64 105.089 223.585 104.927 223.554 104.76C223.484 104.345 223.585 103.91 223.858 103.592C224.02 103.404 224.116 103.156 224.106 102.893C224.096 102.65 224.01 102.438 223.868 102.276C223.711 102.089 223.59 101.876 223.565 101.633C223.559 101.573 223.549 101.512 223.539 101.451C223.236 99.6851 221.156 98.5669 218.894 98.9514C216.632 99.3411 215.038 101.087 215.342 102.853C215.352 102.913 215.367 102.974 215.382 103.03C215.443 103.263 215.393 103.511 215.312 103.738C215.236 103.941 215.226 104.168 215.296 104.401C215.372 104.654 215.544 104.851 215.762 104.973C216.126 105.185 216.369 105.56 216.44 105.975C216.47 106.142 216.47 106.314 216.44 106.481L215.418 112.209Z" fill="#EAEAEA"/>
<path d="M216.035 112.102L226.596 110.296C225.518 109.623 224.647 108.667 224.081 107.533L222.993 105.362C222.917 105.216 222.861 105.054 222.831 104.882C222.8 104.71 222.8 104.533 222.821 104.366C222.978 103.288 222.578 102.18 221.632 101.648C221.561 101.608 221.485 101.572 221.409 101.537L220.179 100.98C219.547 100.692 219.132 100.201 219.036 99.6294C219.132 100.201 218.904 100.803 218.403 101.284L217.427 102.22C217.346 102.296 217.27 102.377 217.194 102.458C216.43 103.308 216.324 104.522 216.744 105.59C216.784 105.691 216.814 105.803 216.835 105.914C216.865 106.081 216.865 106.253 216.845 106.42L216.035 112.102Z" fill="#4F8096"/>
<path d="M222.278 103.636L217.32 104.484L218.553 111.692L223.511 110.844L222.278 103.636Z" fill="#EAEAEA"/>
<path d="M222.244 106.567L221.753 103.698L217.31 104.457L218.545 111.667L221.024 111.242C220.665 109.173 221.085 108.085 222.244 106.567Z" fill="#4F8096"/>
<path d="M220.407 107.645C221.819 107.402 222.431 106.481 222.694 105.712C222.876 105.18 222.902 104.619 222.811 104.077C222.634 103.045 221.991 102.144 221.045 101.598L220.017 101.006C219.491 100.702 219.132 100.201 219.036 99.6245C219.132 100.196 218.965 100.788 218.565 101.254L217.791 102.155C217.078 102.984 216.774 104.047 216.951 105.079C217.042 105.621 217.255 106.142 217.604 106.582C218.11 107.22 218.995 107.888 220.407 107.645Z" fill="#EAEAEA"/>
<path d="M215.119 134.812L214.143 134.331C212.706 133.623 211.825 132.13 211.906 130.526C212.093 126.974 214.001 120.198 223.504 110.822L226.606 110.291C228.215 110.018 229.804 110.888 230.426 112.401C231.777 115.68 233.998 121.757 235.177 128.654L231.134 123.078C230.522 122.233 229.206 122.44 228.883 123.432L219.461 152.937L219.633 153.944C219.263 154.01 218.909 153.757 218.849 153.387L217.356 144.669L215.737 143.029C214.851 142.134 214.375 140.909 214.446 139.654C214.507 138.506 214.684 136.876 215.119 134.812Z" fill="#EAEAEA"/>
<path d="M215.226 130.668C214.826 131.923 213.232 132.388 212.286 131.477C212.068 131.265 211.921 131.017 211.901 130.713C211.891 132.241 212.756 133.653 214.138 134.331L215.114 134.812C216.025 129.549 219.228 122.086 221.616 118.645C221.616 118.645 217.543 123.356 215.226 130.668Z" fill="#4F8096"/>
<path d="M215.737 143.034L217.356 144.674L217.199 143.768C217.088 143.12 217.072 142.463 217.148 141.815C217.411 139.629 218.11 134.28 219.122 130.288C219.127 130.293 214.588 141.866 215.737 143.034Z" fill="#4F8096"/>
<path d="M239.564 150.448L243.142 171.346L223.883 174.64L221.551 161.033L239.564 150.448Z" fill="#EAEAEA"/>
<path d="M236.311 153.61C236.311 153.61 228.878 161.423 227.8 163.214C225.877 166.417 223.6 172.985 223.6 172.985L221.556 161.033L236.311 153.61Z" fill="#4F8096"/>
<path d="M219.638 153.949L219.466 152.942L228.888 123.437C229.212 122.445 230.522 122.232 231.139 123.083L235.182 128.659L235.881 130.131C237.475 133.496 238.603 137.069 239.23 140.742L240.43 147.761C240.597 148.747 240.278 149.749 239.569 150.452C236.366 153.63 231.119 158.544 227.992 161.453C226.297 163.032 225.032 165.01 224.318 167.211L223.2 170.647C222.821 170.713 222.461 170.455 222.396 170.08L219.466 152.947L219.638 153.949Z" fill="#EAEAEA"/>
<path d="M220.397 158.392C219.152 151.1 228.888 123.437 228.888 123.437C228.888 123.437 218.368 146.521 219.638 153.949L220.397 158.392Z" fill="#4F8096"/>
<path d="M223.499 110.822L223.306 110.858C222.401 111.015 221.47 110.812 220.706 110.296L213.763 105.61L210.778 113.15C210.55 113.722 210.484 114.344 210.59 114.951L211.527 120.431C211.618 120.968 211.85 121.474 212.194 121.894L213.758 123.801L223.499 110.822Z" fill="#EAEAEA"/>
<path d="M213.753 123.801L212.19 121.893C211.845 121.473 211.613 120.967 211.522 120.431L214.087 114.647L213.277 118.726C213.136 119.434 213.126 120.158 213.247 120.871L213.753 123.801Z" fill="#4F8096"/>
<path d="M210.843 116.444C209.133 115.978 207.848 114.567 207.549 112.821L206.942 109.264C206.826 108.576 206.866 107.867 207.069 107.194L207.782 104.791L208.617 109.658L211.157 101.547L211.37 101.512C211.78 101.441 212.184 101.623 212.412 101.967L213.566 103.748C213.91 104.28 213.996 104.942 213.788 105.545L210.585 114.951L210.843 116.444Z" fill="#EAEAEA"/>
<path d="M210.843 116.444L210.585 114.946L212.878 108.206L210.616 112.973C210.287 113.661 209.27 113.519 209.143 112.77L208.364 108.221L207.519 110.21C207.322 110.67 207.266 111.176 207.347 111.672L207.544 112.816C207.853 114.567 209.133 115.978 210.843 116.444Z" fill="#4F8096"/>
<path d="M232.344 129.98C232.496 130.086 238.618 132.317 238.618 132.317L244.189 117.415L237.981 115.472L232.344 129.98Z" fill="#EAEAEA"/>
<path d="M243.618 121.534L241.968 120.532C241.7 120.37 241.351 120.477 241.219 120.765L239.762 123.968C239.661 124.191 239.721 124.454 239.904 124.611L240.622 125.228C240.916 125.476 241.017 125.886 240.885 126.245L240.718 126.696L243.618 121.534Z" fill="#4F8096"/>
<path d="M199.418 82.1518L200.131 83.3814C200.197 83.4927 200.324 83.5534 200.45 83.5332C200.607 83.5079 200.759 83.604 200.799 83.7558L203.097 92.0796C203.172 92.363 203.425 92.5856 203.719 92.5856C204.103 92.5856 204.392 92.2668 204.367 91.8974L203.764 83.2447C203.754 83.0879 203.866 82.9462 204.022 82.9209C204.149 82.9006 204.25 82.7995 204.276 82.673L204.539 81.2764L199.418 82.1518Z" fill="#4F8096"/>
<path d="M204.539 81.2714L205.515 80.3404C205.682 80.1785 205.758 79.9457 205.723 79.718C205.657 79.3385 205.298 79.0804 204.918 79.1462L198.36 80.2696C197.981 80.3353 197.723 80.6946 197.788 81.0741C197.829 81.3018 197.976 81.4991 198.188 81.5953L199.418 82.1519L204.539 81.2714Z" fill="#4F8096"/>
<path d="M204.644 77.5526L198.091 78.6736L198.367 80.2896L204.921 79.1686L204.644 77.5526Z" fill="#4F8096"/>
<path d="M202.627 76.4281L199.604 76.9451L199.852 78.3915L202.874 77.8745L202.627 76.4281Z" fill="#4F8096"/>
<path d="M202.621 76.3884C203.628 75.9583 203.886 74.9766 203.294 74.0051C202.935 73.4181 202.545 72.5073 202.434 72.1835C202.423 72.1481 202.373 72.1481 202.358 72.1835L202.059 73.1247L201.761 71.3891C201.751 71.3182 201.654 71.298 201.614 71.3587L200.764 72.6136C200.501 72.9982 200.136 73.3018 199.711 73.494C197.444 74.5415 198.254 76.7578 199.59 76.9045L202.621 76.3884Z" fill="#EAEAEA"/>
<path d="M205.728 86.539C205.566 85.5927 205.313 85.0412 204.518 84.6971C203.724 84.348 203.289 83.4928 203.157 83.4574C203.026 83.427 202.606 83.5738 202.59 84.1304C202.58 84.687 203.289 85.8154 204.124 85.866C204.124 85.866 204.098 87.7078 206.001 88.1329L205.728 86.539Z" fill="#EFE7DC"/>
<path d="M200.582 84.7526L201.037 87.4041C201.093 87.7178 201.346 87.9354 201.609 87.8949L202.58 87.7279C202.844 87.6824 203.011 87.3636 202.95 87.0094L202.899 86.7058L202.914 86.7007C203.218 86.6501 203.405 86.2807 203.339 85.8759L203.324 85.795C203.253 85.3902 202.955 85.1068 202.651 85.1574L202.545 84.5299C202.479 84.1504 202.196 83.8873 201.913 83.9329L200.961 84.0948C200.698 84.1454 200.531 84.4389 200.582 84.7526Z" fill="#EAEAEA"/>
<path d="M248.598 170.439L216.537 175.923L217.107 179.255L249.168 173.771L248.598 170.439Z" fill="#EAEAEA"/>
<path d="M251.509 173.368L214.765 179.653L216.172 187.883L252.917 181.598L251.509 173.368Z" fill="#4F8096"/>
<path d="M257.72 185.726L254.891 189.709L217.002 196.191L213.014 193.372L212.189 188.545L256.89 180.894L257.72 185.726Z" fill="#4F8096"/>
<path d="M254.896 189.734L217.009 196.214L220.988 219.477L258.875 212.997L254.896 189.734Z" fill="#253D65"/>
<path d="M252.37 178.397L215.625 184.682L216.174 187.889L252.918 181.604L252.37 178.397Z" fill="#1E334F"/>
<path d="M213.014 193.372L257.72 185.727L254.891 189.709L255.392 192.644L217.508 199.126L217.001 196.191L213.014 193.372Z" fill="#1E334F"/>
<path d="M45.5006 89.5446C46.4721 91.1892 45.9256 93.3144 44.276 94.2859C42.6264 95.2575 40.5063 94.711 39.5347 93.0614C38.5632 91.4169 39.1097 89.2916 40.7593 88.3201C42.4089 87.3486 44.529 87.9001 45.5006 89.5446Z" fill="#4F8096"/>
<path d="M42.7657 91.1414L42.2458 91.5017L93.5896 165.588L94.1095 165.228L42.7657 91.1414Z" fill="#4F8096"/>
<path d="M34.7379 97.6002C35.9422 99.0828 35.7196 101.264 34.237 102.468C32.7544 103.672 30.5735 103.45 29.3692 101.967C28.1649 100.484 28.3875 98.3035 29.8701 97.0992C31.3527 95.8899 33.5336 96.1176 34.7379 97.6002Z" fill="#4F8096"/>
<path d="M32.2785 99.5308L31.8181 99.9646L93.6362 165.569L94.0965 165.135L32.2785 99.5308Z" fill="#4F8096"/>
<path d="M25.2957 107.169C26.7075 108.454 26.8137 110.645 25.5234 112.062C24.2381 113.474 22.0472 113.575 20.6354 112.29C19.2237 111.004 19.1174 108.813 20.4077 107.397C21.6929 105.985 23.8789 105.884 25.2957 107.169Z" fill="#4F8096"/>
<path d="M23.176 109.473L22.7854 109.971L93.6896 165.632L94.0801 165.135L23.176 109.473Z" fill="#4F8096"/>
<path d="M17.3818 118.043C18.9707 119.106 19.4008 121.256 18.3382 122.845C17.2756 124.434 15.125 124.864 13.5362 123.801C11.9473 122.739 11.5172 120.588 12.5798 118.999C13.6424 117.405 15.793 116.98 17.3818 118.043Z" fill="#4F8096"/>
<path d="M15.6351 120.681L15.323 121.231L93.7268 165.706L94.0389 165.156L15.6351 120.681Z" fill="#4F8096"/>
<path d="M11.1781 129.969C12.9086 130.784 13.6525 132.843 12.8378 134.574C12.0231 136.305 9.96371 137.048 8.23317 136.234C6.50262 135.419 5.75878 133.36 6.57345 131.629C7.38812 129.898 9.44756 129.155 11.1781 129.969Z" fill="#4F8096"/>
<path d="M9.79553 132.83L9.56897 133.42L93.7238 165.708L93.9503 165.118L9.79553 132.83Z" fill="#4F8096"/>
<path d="M6.82145 142.69C8.65319 143.237 9.69556 145.165 9.14907 146.997C8.60258 148.828 6.67469 149.871 4.84294 149.324C3.0112 148.778 1.96884 146.85 2.51532 145.018C3.06181 143.181 4.9897 142.144 6.82145 142.69Z" fill="#4F8096"/>
<path d="M5.93366 145.717L5.79761 146.335L93.8284 165.724L93.9645 165.106L5.93366 145.717Z" fill="#4F8096"/>
<path d="M4.41281 155.918C6.30527 156.186 7.62599 157.936 7.3578 159.829C7.08962 161.721 5.33878 163.042 3.44632 162.774C1.55385 162.506 0.233201 160.755 0.501385 158.862C0.769569 156.965 2.52034 155.649 4.41281 155.918Z" fill="#4F8096"/>
<path d="M3.92879 159.058L3.88635 159.689L93.8191 165.738L93.8616 165.107L3.92879 159.058Z" fill="#4F8096"/>
<path d="M3.99787 169.352C5.91058 169.337 7.47415 170.87 7.48933 172.783C7.50451 174.695 5.97129 176.259 4.05859 176.274C2.14588 176.289 0.582309 174.756 0.567128 172.843C0.551948 170.936 2.08516 169.372 3.99787 169.352Z" fill="#4F8096"/>
<path d="M93.8548 165.042L4.02124 172.47L4.07336 173.1L93.907 165.673L93.8548 165.042Z" fill="#4F8096"/>
<path d="M5.59184 182.705C7.47924 182.402 9.25531 183.687 9.55891 185.574C9.86252 187.462 8.57724 189.238 6.68983 189.541C4.80243 189.845 3.02636 188.56 2.72276 186.672C2.41915 184.78 3.70443 183.004 5.59184 182.705Z" fill="#4F8096"/>
<path d="M93.8073 165.066L6.08301 185.798L6.22848 186.414L93.9528 165.682L93.8073 165.066Z" fill="#4F8096"/>
<path d="M9.15927 195.664C10.9809 195.082 12.929 196.089 13.5109 197.911C14.0928 199.733 13.0859 201.681 11.2643 202.263C9.44265 202.844 7.49453 201.838 6.91263 200.016C6.33072 198.194 7.33764 196.246 9.15927 195.664Z" fill="#4F8096"/>
<path d="M93.8053 165.086L10.1462 198.663L10.3818 199.25L94.0409 165.673L93.8053 165.086Z" fill="#4F8096"/>
<path d="M14.6191 207.955C16.3344 207.11 18.4091 207.814 19.2541 209.529C20.0991 211.244 19.3957 213.319 17.6804 214.164C15.965 215.009 13.8904 214.306 13.0454 212.59C12.2004 210.875 12.9037 208.8 14.6191 207.955Z" fill="#4F8096"/>
<path d="M93.7191 165.137L16.0004 210.802L16.3208 211.347L94.0396 165.682L93.7191 165.137Z" fill="#4F8096"/>
<path d="M21.8447 219.29C23.4134 218.197 25.574 218.586 26.6619 220.155C27.7548 221.724 27.3652 223.884 25.7966 224.972C24.228 226.065 22.0673 225.675 20.9794 224.107C19.8915 222.538 20.2761 220.383 21.8447 219.29Z" fill="#4F8096"/>
<path d="M93.6164 165.099L23.6316 221.905L24.0302 222.396L94.015 165.59L93.6164 165.099Z" fill="#4F8096"/>
<path d="M30.6847 229.42C32.0762 228.104 34.2672 228.17 35.5777 229.557C36.8934 230.948 36.8276 233.139 35.4412 234.45C34.0497 235.765 31.8586 235.7 30.5481 234.313C29.2324 232.927 29.2932 230.736 30.6847 229.42Z" fill="#4F8096"/>
<path d="M93.6433 165.162L32.8348 231.703L33.3018 232.13L94.1103 165.588L93.6433 165.162Z" fill="#4F8096"/>
<path d="M40.9314 238.123C42.1104 236.616 44.2862 236.352 45.789 237.531C47.2969 238.71 47.5601 240.886 46.3811 242.389C45.2021 243.897 43.0262 244.16 41.5234 242.981C40.0205 241.802 39.7524 239.626 40.9314 238.123Z" fill="#4F8096"/>
<path d="M43.922 240.431L43.3958 240.082L93.6068 165.213L94.128 165.567L43.922 240.431Z" fill="#4F8096"/>
<path d="M52.3621 245.197C53.3032 243.533 55.4133 242.946 57.0781 243.887C58.7429 244.828 59.3298 246.938 58.3886 248.603C57.4475 250.268 55.3374 250.855 53.6726 249.913C52.0129 248.977 51.426 246.862 52.3621 245.197Z" fill="#4F8096"/>
<path d="M93.53 165.264L55.1123 246.805L55.6845 247.075L94.1022 165.534L93.53 165.264Z" fill="#4F8096"/>
<path d="M64.7238 250.495C65.4069 248.709 67.4056 247.813 69.1918 248.497C70.9781 249.18 71.8737 251.178 71.1906 252.965C70.5074 254.751 68.5087 255.646 66.7225 254.963C64.9363 254.28 64.0407 252.281 64.7238 250.495Z" fill="#4F8096"/>
<path d="M93.5098 165.297L67.6125 251.633L68.2184 251.815L94.1156 165.478L93.5098 165.297Z" fill="#4F8096"/>
<path d="M77.7333 253.886C78.1432 252.018 79.9851 250.834 81.8522 251.244C83.7194 251.654 84.9034 253.496 84.4936 255.368C84.0837 257.235 82.2418 258.419 80.3696 258.009C78.5075 257.6 77.3235 255.753 77.7333 253.886Z" fill="#4F8096"/>
<path d="M93.5482 165.392L80.7933 254.621L81.4195 254.711L94.1743 165.481L93.5482 165.392Z" fill="#4F8096"/>
<path d="M91.1021 255.302C91.2286 253.395 92.8781 251.947 94.7857 252.074C96.6934 252.2 98.1406 253.85 98.0141 255.758C97.8876 257.665 96.238 259.112 94.3304 258.986C92.4227 258.859 90.9756 257.21 91.1021 255.302Z" fill="#4F8096"/>
<path d="M94.2182 165.401L93.5857 165.406L94.2433 255.546L94.8758 255.541L94.2182 165.401Z" fill="#4F8096"/>
<path d="M104.531 254.71C104.369 252.803 105.786 251.133 107.689 250.971C109.597 250.809 111.266 252.226 111.428 254.128C111.59 256.036 110.173 257.706 108.271 257.868C106.368 258.03 104.693 256.618 104.531 254.71Z" fill="#4F8096"/>
<path d="M94.2436 165.345L93.6188 165.444L107.681 254.484L108.305 254.385L94.2436 165.345Z" fill="#4F8096"/>
<path d="M117.728 252.125C117.288 250.262 118.437 248.4 120.294 247.955C122.156 247.515 124.018 248.663 124.463 250.52C124.903 252.383 123.755 254.245 121.898 254.69C120.036 255.135 118.168 253.982 117.728 252.125Z" fill="#4F8096"/>
<path d="M94.2296 165.274L93.6265 165.464L120.804 251.413L121.407 251.222L94.2296 165.274Z" fill="#4F8096"/>
<path d="M130.389 247.601C129.675 245.83 130.53 243.811 132.306 243.097C134.077 242.384 136.096 243.239 136.81 245.015C137.523 246.786 136.668 248.805 134.892 249.519C133.121 250.232 131.102 249.372 130.389 247.601Z" fill="#4F8096"/>
<path d="M94.1423 165.267L93.5746 165.546L133.308 246.455L133.876 246.177L94.1423 165.267Z" fill="#4F8096"/>
<path d="M142.234 241.235C141.262 239.591 141.809 237.466 143.458 236.494C145.108 235.523 147.228 236.069 148.2 237.719C149.171 239.363 148.625 241.488 146.975 242.46C145.326 243.431 143.205 242.885 142.234 241.235Z" fill="#4F8096"/>
<path d="M144.956 239.657L93.6067 165.572L94.1279 165.213L145.472 239.297L144.956 239.657Z" fill="#4F8096"/>
<path d="M152.997 233.18C151.792 231.697 152.015 229.516 153.498 228.312C154.98 227.108 157.161 227.33 158.365 228.813C159.57 230.296 159.347 232.476 157.865 233.681C156.382 234.885 154.201 234.667 152.997 233.18Z" fill="#4F8096"/>
<path d="M94.0946 165.137L93.6343 165.571L155.452 231.175L155.913 230.741L94.0946 165.137Z" fill="#4F8096"/>
<path d="M162.439 223.611C161.027 222.326 160.926 220.135 162.211 218.718C163.496 217.306 165.687 217.2 167.104 218.49C168.516 219.775 168.622 221.966 167.332 223.378C166.042 224.795 163.851 224.901 162.439 223.611Z" fill="#4F8096"/>
<path d="M94.0803 165.136L93.6897 165.633L164.594 221.295L164.984 220.797L94.0803 165.136Z" fill="#4F8096"/>
<path d="M170.353 212.742C168.764 211.68 168.334 209.529 169.396 207.94C170.459 206.351 172.61 205.921 174.198 206.984C175.787 208.046 176.217 210.197 175.155 211.786C174.092 213.375 171.942 213.805 170.353 212.742Z" fill="#4F8096"/>
<path d="M94.0472 165.155L93.7351 165.705L172.139 210.18L172.451 209.63L94.0472 165.155Z" fill="#4F8096"/>
<path d="M176.551 200.815C174.821 200.001 174.077 197.941 174.892 196.211C175.706 194.48 177.766 193.736 179.496 194.551C181.227 195.366 181.971 197.425 181.156 199.156C180.346 200.886 178.282 201.625 176.551 200.815Z" fill="#4F8096"/>
<path d="M93.9576 165.126L93.7311 165.716L177.886 198.004L178.112 197.414L93.9576 165.126Z" fill="#4F8096"/>
<path d="M180.908 188.095C179.076 187.548 178.034 185.62 178.581 183.788C179.127 181.957 181.055 180.914 182.887 181.461C184.718 182.007 185.761 183.935 185.214 185.767C184.668 187.599 182.74 188.641 180.908 188.095Z" fill="#4F8096"/>
<path d="M93.9722 165.103L93.8362 165.72L181.867 185.109L182.003 184.492L93.9722 165.103Z" fill="#4F8096"/>
<path d="M183.322 174.867C181.429 174.599 180.109 172.848 180.377 170.956C180.645 169.063 182.396 167.743 184.288 168.011C186.181 168.279 187.501 170.03 187.233 171.922C186.965 173.815 185.214 175.135 183.322 174.867Z" fill="#4F8096"/>
<path d="M93.8719 165.113L93.8295 165.744L183.762 171.792L183.805 171.161L93.8719 165.113Z" fill="#4F8096"/>
<path d="M183.732 161.428C181.819 161.443 180.255 159.91 180.24 157.997C180.225 156.084 181.758 154.521 183.671 154.506C185.584 154.491 187.147 156.024 187.162 157.936C187.183 159.849 185.644 161.413 183.732 161.428Z" fill="#4F8096"/>
<path d="M183.688 157.622L93.8541 165.05L93.9062 165.68L183.74 158.252L183.688 157.622Z" fill="#4F8096"/>
<path d="M182.137 148.079C180.25 148.383 178.474 147.098 178.17 145.21C177.867 143.323 179.152 141.547 181.039 141.243C182.927 140.94 184.703 142.225 185.007 144.112C185.315 146 184.03 147.776 182.137 148.079Z" fill="#4F8096"/>
<path d="M181.533 144.333L93.8088 165.065L93.9543 165.68L181.679 144.948L181.533 144.333Z" fill="#4F8096"/>
<path d="M178.575 135.116C176.754 135.697 174.806 134.691 174.224 132.869C173.642 131.047 174.649 129.099 176.47 128.517C178.292 127.935 180.24 128.942 180.822 130.764C181.404 132.591 180.397 134.534 178.575 135.116Z" fill="#4F8096"/>
<path d="M177.384 131.465L93.734 165.042L93.9696 165.629L177.62 132.052L177.384 131.465Z" fill="#4F8096"/>
<path d="M173.116 122.83C171.4 123.675 169.326 122.971 168.481 121.256C167.636 119.541 168.339 117.466 170.054 116.621C171.77 115.776 173.844 116.479 174.689 118.195C175.534 119.91 174.831 121.985 173.116 122.83Z" fill="#4F8096"/>
<path d="M171.439 119.477L93.7205 165.142L94.0409 165.688L171.76 120.023L171.439 119.477Z" fill="#4F8096"/>
<path d="M165.885 111.495C164.316 112.588 162.155 112.198 161.068 110.63C159.975 109.061 160.364 106.9 161.933 105.813C163.502 104.72 165.662 105.109 166.75 106.678C167.843 108.246 167.458 110.402 165.885 111.495Z" fill="#4F8096"/>
<path d="M163.656 108.37L93.6709 165.176L94.0695 165.667L164.054 108.861L163.656 108.37Z" fill="#4F8096"/>
<path d="M157.05 101.36C155.658 102.676 153.467 102.61 152.157 101.223C150.841 99.8318 150.907 97.6407 152.293 96.3302C153.685 95.0146 155.876 95.0803 157.187 96.4668C158.502 97.8583 158.436 100.049 157.05 101.36Z" fill="#4F8096"/>
<path d="M154.444 98.6229L93.6354 165.164L94.1023 165.591L154.911 99.0496L154.444 98.6229Z" fill="#4F8096"/>
<path d="M146.798 92.6615C145.619 94.1694 143.443 94.4326 141.94 93.2536C140.433 92.0746 140.169 89.8987 141.348 88.3959C142.527 86.888 144.703 86.6249 146.206 87.8039C147.714 88.9778 147.977 91.1536 146.798 92.6615Z" fill="#4F8096"/>
<path d="M143.902 90.3796L93.6039 165.187L94.1288 165.54L144.427 90.7325L143.902 90.3796Z" fill="#4F8096"/>
<path d="M135.367 85.5826C134.426 87.2474 132.316 87.8343 130.651 86.8932C128.987 85.952 128.4 83.8419 129.341 82.1772C130.282 80.5124 132.392 79.9254 134.057 80.8666C135.722 81.8078 136.309 83.9178 135.367 85.5826Z" fill="#4F8096"/>
<path d="M131.992 83.7166L93.5925 165.266L94.1648 165.536L132.564 83.9861L131.992 83.7166Z" fill="#4F8096"/>
<path d="M123.011 80.2897C122.328 82.0759 120.329 82.9716 118.543 82.2885C116.757 81.6054 115.861 79.6067 116.544 77.8205C117.227 76.0343 119.226 75.1386 121.012 75.8217C122.798 76.4998 123.694 78.5035 123.011 80.2897Z" fill="#4F8096"/>
<path d="M119.484 78.9878L93.6045 165.333L94.2104 165.515L120.09 79.1694L119.484 78.9878Z" fill="#4F8096"/>
<path d="M110.001 76.8943C109.592 78.7614 107.75 79.9455 105.877 79.5356C104.01 79.1257 102.826 77.2839 103.236 75.4117C103.646 73.5394 105.488 72.3604 107.36 72.7703C109.227 73.1802 110.411 75.0271 110.001 76.8943Z" fill="#4F8096"/>
<path d="M106.313 76.1617L93.5585 165.391L94.1846 165.481L106.939 76.2512L106.313 76.1617Z" fill="#4F8096"/>
<path d="M96.6325 75.4776C96.506 77.3852 94.8564 78.8324 92.9488 78.7059C91.0411 78.5794 89.594 76.9298 89.7205 75.0222C89.847 73.1145 91.4966 71.6673 93.4042 71.7938C95.3119 71.9203 96.754 73.5699 96.6325 75.4776Z" fill="#4F8096"/>
<path d="M93.5396 75.258L92.9071 75.2625L93.5431 165.403L94.1756 165.398L93.5396 75.258Z" fill="#4F8096"/>
<path d="M83.1982 76.0695C83.3601 77.9771 81.9432 79.647 80.0406 79.8089C78.133 79.9708 76.4632 78.554 76.3013 76.6514C76.1394 74.7437 77.5562 73.0739 79.4588 72.912C81.3664 72.7501 83.0413 74.1669 83.1982 76.0695Z" fill="#4F8096"/>
<path d="M80.1248 76.3149L79.5 76.4136L93.5619 165.454L94.1866 165.355L80.1248 76.3149Z" fill="#4F8096"/>
<path d="M70.0066 78.6603C70.4468 80.5224 69.2982 82.3845 67.4412 82.8298C65.5791 83.27 63.717 82.1214 63.2717 80.2644C62.8315 78.4023 63.9801 76.5402 65.8371 76.0949C67.6992 75.6496 69.5613 76.7982 70.0066 78.6603Z" fill="#4F8096"/>
<path d="M66.9458 79.3146L66.3428 79.5054L93.529 165.445L94.1321 165.254L66.9458 79.3146Z" fill="#4F8096"/>
<path d="M57.3463 83.184C58.0597 84.955 57.2046 86.974 55.4285 87.6875C53.6575 88.4009 51.6385 87.5458 50.9251 85.7697C50.2116 83.9987 51.0667 81.9797 52.8428 81.2662C54.6138 80.5528 56.6328 81.4079 57.3463 83.184Z" fill="#4F8096"/>
<path d="M54.4175 84.3027L53.8497 84.5815L93.5835 165.491L94.1512 165.212L54.4175 84.3027Z" fill="#4F8096"/>
<path d="M139.4 242.606C96.8249 267.715 41.7561 253.501 16.6531 210.92C-8.45493 168.345 5.7588 113.276 48.3393 88.1732C90.9147 63.0651 145.983 77.2788 171.086 119.859C196.189 162.435 181.976 217.503 139.4 242.606ZM49.6194 90.349C8.24325 114.749 -5.57073 168.264 18.8239 209.64C43.2235 251.016 96.7388 264.83 138.115 240.431C179.496 216.031 193.305 162.516 168.911 121.14C144.511 79.7633 90.9956 65.9493 49.6194 90.349Z" fill="#EAEAEA"/>
<path d="M144.03 238.518L133.92 233.311L133.581 244.681L132.585 245.177L123.345 238.538L121.326 249.731L120.263 250.07L112.122 242.126L108.438 252.889L107.34 253.066L100.488 243.988L95.2361 254.078L94.1229 254.088L88.7086 244.089L82.0091 253.283L80.9061 253.126L77.0351 242.434L69.0503 250.536L67.9826 250.217L65.736 239.064L56.6379 245.891L55.631 245.415L55.0642 234.055L45.0504 239.449L44.1244 238.832L45.2629 227.512L34.5558 231.343L33.731 230.594L36.5596 219.578L25.392 221.759L24.6887 220.894L29.1314 210.424L17.7665 210.92L17.1998 209.959L23.1352 200.259L11.826 199.08L11.406 198.048L18.7178 189.329L7.70707 186.47L7.449 185.387L15.9853 177.868L5.53121 173.385L5.44017 172.272L15.0088 166.124L5.33899 160.127L5.41484 159.014L15.793 154.359L7.12515 146.997L7.36302 145.909L18.313 142.842L10.8292 134.275L11.2238 133.233L22.5128 131.821L16.3851 122.243L16.9316 121.271L28.3015 121.554L23.6716 111.166L24.3598 110.291L35.5577 112.279L32.5469 101.309L33.3566 100.545L44.1294 104.193L42.7936 92.8942L43.7095 92.2617L53.8195 97.4685L54.1585 86.0986L55.1553 85.6027L64.395 92.2415L66.4191 81.0486L67.4817 80.7096L75.6233 88.6539L79.3071 77.8911L80.4051 77.714L87.2564 86.7918L92.5088 76.702L93.622 76.6919L99.0363 86.6906L105.736 77.4965L106.839 77.6533L110.71 88.3452L118.695 80.2441L119.762 80.5629L122.009 91.7152L131.107 84.8892L132.114 85.3649L132.681 96.7247L142.695 91.3307L143.621 91.948L142.482 103.267L153.189 99.4369L154.014 100.186L151.185 111.202L162.353 109.021L163.056 109.886L158.614 120.355L169.978 119.859L170.545 120.821L164.61 130.521L175.919 131.7L176.339 132.732L169.027 141.451L180.038 144.31L180.296 145.392L171.76 152.912L182.214 157.395L182.305 158.508L172.736 164.656L182.406 170.652L182.33 171.766L171.952 176.421L180.62 183.783L180.382 184.871L169.427 187.938L176.911 196.504L176.516 197.547L165.227 198.958L171.355 208.537L170.808 209.509L159.438 209.225L164.068 219.614L163.38 220.494L152.182 218.505L155.198 229.476L154.388 230.24L143.615 226.591L144.951 237.891L144.03 238.518ZM122.277 237.329L123.269 236.929L132.357 243.457L132.691 232.274L133.612 231.732L143.56 236.853L142.244 225.741L143.074 225.068L153.665 228.656L150.7 217.868L151.418 217.078L162.429 219.032L157.88 208.815L158.472 207.93L169.655 208.213L163.628 198.791L164.083 197.825L175.185 196.438L167.823 188.013L168.126 186.991L178.899 183.976L170.373 176.735L170.525 175.677L180.731 171.098L171.223 165.203L171.213 164.135L180.62 158.088L170.338 153.681L170.171 152.628L178.565 145.236L167.742 142.427L167.418 141.41L174.608 132.838L163.481 131.68L163.011 130.723L168.85 121.18L157.672 121.671L157.065 120.795L161.437 110.498L150.457 112.639L149.723 111.864L152.501 101.031L141.971 104.801L141.131 104.143L142.249 93.0157L132.402 98.3186L131.471 97.7975L130.915 86.6248L121.969 93.3395L120.972 92.96L118.76 81.9949L110.907 89.9594L109.865 89.7317L106.055 79.2118L99.4664 88.2542L98.4037 88.1833L93.0755 78.3465L87.9092 88.2693L86.8466 88.3553L80.1116 79.4294L76.4937 90.01L75.4563 90.2579L67.4513 82.4452L65.4627 93.4508L64.476 93.8506L55.3881 87.3231L55.0542 98.5058L54.1332 99.0473L44.1851 93.9265L45.5008 105.038L44.6709 105.711L34.0801 102.124L37.0403 112.912L36.3218 113.701L25.3111 111.748L29.8601 121.964L29.268 122.85L18.0853 122.572L24.1118 131.993L23.6564 132.96L12.5546 134.346L19.917 142.771L19.6134 143.793L8.84052 146.809L17.3667 154.05L17.215 155.108L7.00878 159.687L16.5167 165.582L16.5268 166.65L7.12008 172.697L17.4022 177.104L17.5691 178.156L9.1745 185.549L19.998 188.363L20.3218 189.38L13.1314 197.951L24.2535 199.11L24.7241 200.067L18.8847 209.61L30.0625 209.119L30.6697 209.994L26.2978 220.292L37.2781 218.146L38.0118 218.92L35.2339 229.754L45.7638 225.984L46.6038 226.642L45.4856 237.769L55.3324 232.466L56.2635 232.992L56.8201 244.165L65.7663 237.45L66.7631 237.83L68.9744 248.795L76.8276 240.83L77.87 241.058L81.6803 251.578L88.2684 242.536L89.3311 242.606L94.6593 252.443L99.8257 242.521L100.888 242.434L107.623 251.36L111.241 240.78L112.278 240.532L120.283 248.345L122.277 237.329Z" fill="#EAEAEA"/>
<path d="M133.758 233.048C96.4504 255.044 48.2078 242.591 26.2066 205.288C4.21046 167.98 16.6633 119.738 53.9712 97.7366C91.2791 75.7405 139.527 88.1933 161.523 125.501C183.519 162.804 171.066 211.052 133.758 233.048ZM54.6138 98.8195C17.908 120.461 5.65254 167.935 27.2995 204.641C48.9414 241.346 96.415 253.602 133.121 231.955C169.826 210.313 182.082 162.839 160.435 126.134C138.793 89.433 91.3195 77.1776 54.6138 98.8195Z" fill="#EAEAEA"/>
<path d="M98.2822 162.789C99.7193 165.228 98.9097 168.37 96.4707 169.807C94.0318 171.244 90.8895 170.435 89.4524 167.996C88.0153 165.557 88.8249 162.415 91.2639 160.977C93.7028 159.535 96.8451 160.35 98.2822 162.789Z" fill="#EAEAEA"/>
<path d="M93.389 164.181L129.589 256.077L123.157 259.872L93.8647 165.39L93.389 164.181Z" fill="#EAEAEA"/>
<path d="M93.0349 164.388L155.932 240.547L162.363 236.752L93.8648 165.39L93.0349 164.388Z" fill="#EAEAEA"/>
<path d="M494.951 149.714L488.368 146.334C488.18 146.238 487.953 146.314 487.857 146.501L485.16 151.753C485.064 151.941 485.139 152.168 485.327 152.264L491.91 155.645C492.097 155.741 492.325 155.665 492.421 155.478L495.118 150.225C495.209 150.038 495.138 149.81 494.951 149.714Z" fill="#4F8096"/>
<path d="M494.698 150.139L494.45 150.013C495.73 147.523 495.411 143.576 494.248 142.979C493.084 142.382 489.688 144.421 488.413 146.911L488.165 146.784C489.552 144.087 493.129 141.982 494.42 142.645C495.71 143.308 496.084 147.442 494.698 150.139Z" fill="#4F8096"/>
<path d="M492.573 143.019C492.548 143.004 492.527 142.974 492.527 142.943L493.013 133.992L493.175 134.002L492.704 142.67C493.919 140.899 496.596 136.988 496.677 136.826L496.752 136.856L496.828 136.836C496.839 136.881 496.849 136.917 492.679 142.994C492.659 143.024 492.623 143.035 492.588 143.024C492.583 143.019 492.578 143.019 492.573 143.019Z" fill="#4F8096"/>
<path d="M492.573 143.019C492.542 143.004 492.522 142.969 492.532 142.933L494.151 135.546L494.308 135.581L492.866 142.169L495.467 136.203L495.614 136.269L492.689 142.984C492.674 143.019 492.628 143.04 492.593 143.03C492.583 143.019 492.578 143.019 492.573 143.019Z" fill="#4F8096"/>
<path d="M495.194 144.365C495.189 144.365 495.189 144.36 495.184 144.36C495.153 144.34 495.143 144.3 495.153 144.269C497.663 137.342 497.699 137.327 497.739 137.307L497.769 137.383L497.835 137.423C497.749 137.58 496.13 142.033 495.396 144.052L502.167 138.622L502.268 138.749L495.275 144.36C495.255 144.376 495.224 144.381 495.194 144.365Z" fill="#4F8096"/>
<path d="M495.194 144.365C495.189 144.365 495.189 144.36 495.184 144.36C495.148 144.335 495.143 144.289 495.163 144.254L498.918 137.964L499.055 138.045L495.72 143.637L500.239 138.627L500.355 138.733L495.295 144.35C495.265 144.375 495.224 144.381 495.194 144.365Z" fill="#4F8096"/>
<path d="M494.47 73.1551C505.016 50.491 519.998 48.9983 527.27 50.0255C527.305 49.6409 526.981 49.393 526.268 49.1197C522.427 47.6473 498.691 41.9345 485.949 69.3094C478.061 86.2657 486.582 116.09 490.974 126.574L493.443 127.844C490.569 118.008 486.475 90.334 494.47 73.1551Z" fill="#4F8096"/>
<path d="M504.373 77.6232C496.241 95.0703 494.961 120.133 495.912 129.109L498.726 130.557C500.603 121.863 508.386 100.662 516.532 83.1539C527.391 59.8219 533.281 54.2356 537.071 53.8105C536.545 53.1932 535.877 52.8086 535.173 52.5404C534.506 52.2824 533.519 52.0192 532.279 51.9079C526.516 51.407 515.232 54.3216 504.373 77.6232Z" fill="#4F8096"/>
<path d="M551.897 62.2859C551.259 61.866 550.87 61.7445 550.576 61.9975C555.647 67.3106 563.161 80.3605 550.88 102.134C541.569 118.64 516.694 131.427 507.019 134.817L509.489 136.087C520.57 133.552 549.782 123.108 558.966 106.82C573.802 80.5174 555.333 64.5478 551.897 62.2859Z" fill="#4F8096"/>
<path d="M550.88 102.134C563.161 80.3606 555.647 67.3157 550.577 61.9976C549.423 60.7882 548.396 59.9786 547.758 59.5586C547.146 59.1538 546.635 58.9413 546.134 59.0222C549.898 63.4093 554.098 74.2834 541.484 96.6843C532.036 113.458 512.413 129.094 504.56 133.547L501.747 132.1C507.723 125.512 520.424 106.835 529.906 90.0152C542.551 67.5991 543.659 59.5535 541.797 56.2291C541.286 55.3183 540.552 54.7616 539.773 54.3568C538.994 53.952 538.113 53.6839 537.071 53.8002C533.281 54.2202 527.391 59.8116 516.532 83.1436C508.386 100.651 500.603 121.853 498.726 130.546L495.913 129.099C494.961 120.123 496.241 95.06 504.373 77.6129C515.232 54.3113 526.516 51.3916 532.279 51.8976C532.052 51.4422 531.586 51.1488 530.898 50.8856C530.184 50.6124 528.93 50.2481 527.275 50.0153C519.998 48.9881 505.021 50.4808 494.475 73.1449C486.481 90.3238 490.574 117.997 493.453 127.834L490.984 126.564L492.558 135.055L501.671 139.735L509.494 136.067L507.024 134.797C516.694 131.427 541.57 118.635 550.88 102.134Z" fill="#253D65"/>
<path d="M529.906 90.0254C520.418 106.845 507.718 125.522 501.747 132.11L504.56 133.557C512.413 129.104 532.036 113.464 541.483 96.6946C554.098 74.2937 549.898 63.4246 546.134 59.0325C545.324 58.0863 544.53 57.4385 543.932 57.0489C543.305 56.634 542.607 56.3152 541.797 56.2444C543.659 59.5638 542.551 67.6093 529.906 90.0254Z" fill="#4F8096"/>
<path d="M229.733 61.107L226.307 61.5574C226.211 61.5726 226.14 61.6586 226.155 61.7547L226.515 64.4872C226.53 64.5833 226.616 64.6541 226.712 64.639L230.138 64.1886C230.234 64.1734 230.305 64.0874 230.289 63.9913L229.93 61.2588C229.915 61.1627 229.829 61.0919 229.733 61.107Z" fill="#4F8096"/>
<path d="M229.748 61.3347L229.622 61.3499C229.45 60.0545 228.281 58.6225 227.673 58.7034C227.066 58.7844 226.307 60.4694 226.479 61.7648L226.353 61.78C226.171 60.3783 226.985 58.6174 227.653 58.5314C228.321 58.4454 229.566 59.9331 229.748 61.3347Z" fill="#4F8096"/>
<path d="M227.041 59.164C227.025 59.164 227.01 59.159 227.005 59.1488L224.814 55.5815L224.88 55.541L227 58.992C226.995 57.9901 226.985 55.7788 226.975 55.6928L227.01 55.6827L227.036 55.6523C227.051 55.6675 227.066 55.6776 227.076 59.1185C227.076 59.1337 227.066 59.1489 227.051 59.1539C227.046 59.164 227.041 59.164 227.041 59.164Z" fill="#4F8096"/>
<path d="M227.041 59.164C227.026 59.164 227.01 59.159 227 59.1387L225.659 55.875L225.73 55.8446L226.924 58.7592L226.337 55.7788L226.408 55.7637L227.066 59.1185C227.071 59.1387 227.061 59.1539 227.041 59.159C227.046 59.164 227.041 59.164 227.041 59.164Z" fill="#4F8096"/>
<path d="M228.402 58.987H228.397C228.382 58.987 228.367 58.9768 228.362 58.9617C227.486 55.6321 227.491 55.622 227.506 55.6018L227.537 55.622H227.572C227.582 55.703 228.144 57.8434 228.397 58.8149L229.556 54.9338L229.627 54.9541L228.432 58.9667C228.432 58.9768 228.417 58.987 228.402 58.987Z" fill="#4F8096"/>
<path d="M228.402 58.9869H228.397C228.377 58.9869 228.362 58.9717 228.362 58.9514L228.134 55.541L228.21 55.5359L228.412 58.5669L228.817 55.4448L228.893 55.455L228.442 58.9565C228.432 58.9717 228.422 58.9869 228.402 58.9869Z" fill="#4F8096"/>
<path d="M209.209 31.8446C207.236 20.3431 212.594 15.789 215.655 14.2508C215.569 14.0939 215.377 14.0838 215.028 14.1698C213.161 14.6252 202.535 18.734 204.913 32.6289C206.385 41.231 217.578 50.4202 222.051 53.2791L223.337 53.1121C219.628 50.0963 210.707 40.5631 209.209 31.8446Z" fill="#4F8096"/>
<path d="M214.198 30.9288C215.711 39.7889 221.874 49.7472 224.627 52.9401L226.089 52.7478C224.5 48.9122 221.859 38.7061 220.336 29.8206C218.307 17.98 219.086 14.271 220.427 13.1021C220.063 13.006 219.704 13.0363 219.359 13.1173C219.036 13.1983 218.585 13.3552 218.079 13.6436C215.736 14.9794 212.179 19.0983 214.198 30.9288Z" fill="#4F8096"/>
<path d="M228.371 12.414C228.017 12.4241 227.835 12.4798 227.79 12.6569C231.149 13.3501 237.5 16.3608 238.567 27.9838C239.377 36.7934 233.224 48.3101 230.411 52.1811L231.696 52.0141C235.278 48.0976 243.714 36.3279 242.914 27.6347C241.619 13.598 230.289 12.3735 228.371 12.414Z" fill="#4F8096"/>
<path d="M238.562 27.9839C237.495 16.3609 231.144 13.3502 227.784 12.6569C227.02 12.5001 226.413 12.4596 226.054 12.4697C225.71 12.4798 225.457 12.5304 225.29 12.6974C227.901 13.3805 232.399 16.4419 233.507 28.3887C234.337 37.3349 230.957 48.5531 229.125 52.3481L227.663 52.5404C228.204 48.4266 228.118 37.8814 227.294 28.9048C226.195 16.9428 224.48 13.5576 222.881 12.7784C222.441 12.5659 222.011 12.5456 221.606 12.5962C221.201 12.6519 220.791 12.7784 220.422 13.0972C219.081 14.266 218.302 17.9751 220.331 29.8156C221.854 38.7011 224.495 48.9073 226.084 52.7428L224.622 52.9351C221.869 49.7422 215.706 39.7789 214.193 30.9238C212.174 19.0933 215.731 14.9745 218.074 13.6386C217.867 13.5222 217.609 13.5374 217.275 13.6184C216.925 13.7044 216.349 13.8967 215.65 14.2458C212.584 15.7841 207.23 20.3381 209.204 31.8396C210.696 40.5581 219.622 50.0913 223.337 53.1071L222.051 53.2741L224.91 56.1179L229.652 55.4955L231.681 52.0091L230.395 52.1761C233.219 48.3102 239.372 36.7935 238.562 27.9839Z" fill="#253D65"/>
<path d="M227.294 28.9048C228.118 37.8813 228.205 48.4265 227.663 52.5404L229.125 52.3481C230.957 48.553 234.337 37.3349 233.507 28.3887C232.399 16.4418 227.901 13.3805 225.29 12.6974C224.728 12.5506 224.253 12.5101 223.919 12.5203C223.569 12.5304 223.215 12.5911 222.886 12.7783C224.485 13.5576 226.196 16.9428 227.294 28.9048Z" fill="#4F8096"/>
</svg>
