<svg width="621" height="398" viewBox="0 0 621 398" fill="none" xmlns="http://www.w3.org/2000/svg">
<path d="M608.896 397.995C616.622 370.744 620.767 341.975 620.767 312.229C620.767 139.975 481.994 0.333252 310.812 0.333252C139.63 0.333252 0.857422 139.975 0.857422 312.229C0.857422 341.975 5.0016 370.749 12.7283 397.995L608.896 397.995Z" fill="url(#paint0_linear_2_1379)"/>
<path d="M345.195 38.2771C368.289 31.3625 377.063 40.0083 369.326 42.1723C362.293 44.1378 355.391 47.2387 346.308 45.1918C342.397 44.1021 340.181 42.3455 340.439 39.7385C341.137 39.3006 336.067 40.7263 334.458 38.6794C333.491 37.4523 334.999 36.5256 336.618 36.0266C340.722 34.774 342.356 37.4472 345.195 38.2771ZM593.685 367.969C592.025 371.905 590.791 377.215 588.777 378.84C583.039 383.468 582.396 390.647 582.087 397.995H591.848C592.106 397.145 592.395 396.294 592.759 395.469C595.37 376.665 596.519 372.612 593.685 367.969ZM370.845 252.523C371.71 266.836 375.146 275.38 386.156 285.935C390.017 289.637 389.233 301.409 408.76 306.669C424.233 302.855 441.306 302.753 454.442 297.285C458.065 295.778 463.247 296.939 463.833 303.639C466.95 307.667 471.636 304.8 475.001 307.066C482.869 312.357 475.937 321.573 478.781 328.161C476.833 341.186 487.95 346.171 490.662 355.85C492.484 362.347 495.499 370.413 492.853 375.825C489.564 382.567 486.811 390.204 486.609 397.995H564.802C569.154 389.573 577.665 382.913 576.511 370.749C575.216 357.088 571.147 344.155 578.535 331.369C589.313 312.718 592.906 312.173 594.515 298.756C594.09 298.471 600.132 291.979 598.057 282.514C595.689 271.684 586.318 288.206 581.824 275.721C570.363 258.216 566.067 236.454 559.332 216.932C570.034 235.914 574.796 256.739 582.497 276.903C598.077 274.184 611.856 258.817 609.614 242.63C603.598 215.384 601.69 249.448 592.931 215.292C596.817 221.769 599.671 229.402 603.759 229.575C606.219 227.294 604.989 234.391 610.889 236.062C611.092 236.118 611.279 236.189 611.471 236.255C593.665 164.675 551.282 102.912 493.865 60.5536C493.759 63.0842 495.616 67.4173 501.976 75.9409C503.378 77.8198 505.847 81.3636 504.268 81.5164C496.967 82.2343 498.343 92.1785 486.695 90.2997C472.264 87.9778 470.715 88.7365 463.226 76.5519C450.384 71.1496 460.18 86.4656 453.703 88.1001C446.832 89.8313 441.255 94.5106 435.138 98.584C435.811 97.6471 436.276 96.476 437.288 95.9363C439.13 91.8323 435.927 90.6256 431.859 89.8822C428.524 81.9136 420.686 79.4135 420.443 79.5408C420.039 77.2597 418.435 74.8513 420.55 72.9928C420.165 67.7992 414.088 67.29 409.923 65.2686C407.889 67.2085 404.054 70.8085 406.639 74.1028C407.55 80.5745 412.287 81.6844 412.261 81.496C425.073 82.9726 409.539 90.9514 418.723 97.0565C420.403 100.361 422.083 99.2256 430.847 99.6074C431.747 99.9129 432.456 99.9944 433.033 99.9384C427.856 103.146 422.164 105.667 414.903 105.473C404.281 111.105 430.336 120.061 430.675 122.286C428.605 124.099 427.684 127.464 423.702 127.597C405.106 128.223 393.984 122.383 399.469 140.204C394.627 154.68 397.916 159.746 415.338 163.911C427.958 164.751 437.207 161.931 440.739 149.822C443.598 140.026 464.972 130.952 472.147 137.867C480.122 145.545 489.842 150.754 496.754 159.522C498.07 160.352 491.588 156.375 493.485 167.633C496.876 165.683 496.279 162.15 497.392 159.868C498.156 160.23 498.915 160.367 499.659 160.22C503.838 151.528 503.454 150.831 489.048 137.745C501.991 145.876 511.788 170.184 522.075 170.378C524.241 170.419 525.602 166.788 525.086 163.29C524.868 161.819 522.505 159.736 524.554 158.916C526.118 158.998 528.552 160.306 529.159 161.778C535.322 176.681 555.077 176.61 557.667 185.414C558.806 189.278 556.463 196.224 550.791 195.694C543.919 195.047 536.835 195.266 529.21 189.345C509.01 173.662 516.63 201.713 498.014 185.561C492.969 181.188 484.458 181.376 482.702 172.145C478.33 149.125 435.436 165.352 418.925 164.538C400.355 166.187 398.078 187.812 385.443 198.001C383.024 200.027 382.235 203.011 381.061 205.791C377.281 207.594 377.144 211.764 375.353 214.9C372.322 218.912 368.881 223.612 368.173 228.77C376.031 238.027 370.258 242.818 370.845 252.523ZM471.803 146.335C469.749 143.57 465.169 146.849 471.186 153.713C474.176 151.615 473.868 149.11 471.803 146.335ZM460.676 72.9266C465.195 71.8981 467.305 76.8625 468.995 79.5968C477.926 94.0167 494.74 83.8841 489.189 69.8206C486.842 63.8684 486.72 60.574 491.107 58.7104C491.163 58.6849 491.214 58.6544 491.274 58.6239C482.298 52.1471 472.962 46.1388 463.302 40.6397C457.498 45.7468 451.644 51.8772 443.623 53.1094C438.654 56.8315 443.173 62.9569 446.973 68.4509C450.541 73.6089 456.051 73.9806 460.676 72.9266ZM405.972 90.8343C405.719 87.3007 410.971 83.9299 405.744 80.6762C398.235 76.0071 396.271 85.2537 392.233 82.9166C386.374 100.28 406.139 93.2377 405.972 90.8343ZM22.8787 227.431C22.8889 231.138 23.6934 233.984 24.9534 236.443C27.5795 231.499 24.0426 228.806 24.837 224.519C24.6042 222.889 19.0887 205.592 23.3544 218.785C23.7541 221.005 25.0697 220.639 25.94 221.632C27.6301 231.163 34.5472 232.533 36.5257 242.706C34.9723 246.439 36.4549 245.441 36.5763 249.718C38.0387 256.322 42.2841 255.247 45.6845 257.243C46.8027 260.125 49.0848 257.885 50.6079 259.224C54.8685 264.082 60.7837 259.815 65.945 262.361C75.0531 273.079 80.4623 265.879 84.141 275.467C87.005 278.807 88.8823 283.863 93.3453 284.942C93.9626 284.922 94.0385 290.34 103.05 289.505C111.577 288.517 108.126 280.253 114.967 297.84C118.772 313.314 104.467 319.964 104.923 327.056C101.032 331.802 106.552 337.398 104.361 342.235C100.475 345.682 101.745 346.945 104.786 351.695C113.029 364.573 115.974 388.275 131.721 395.235C133.345 395.953 134.812 396.89 136.118 398L273.307 398C274.167 388.377 275.037 378.341 284.727 369.934C290.536 364.893 292.565 355.316 285.967 350.998C277.871 345.702 271.09 336.67 259.118 337.724C253.011 338.263 246.008 336.385 241.261 330.891C235.867 325.172 225.712 326.776 222.473 317.907C222.711 318.176 216.568 297.03 194.192 298.823C192.052 295.457 184.72 292.84 184.275 292.982C184.401 292.361 181.891 288.822 177.894 288.043C177.828 282.641 171.068 278.812 166.585 276.74C153.975 277.554 137.322 265.604 126.16 274.29C120.381 277.132 117.811 278.323 115.205 286.684C115.109 287.061 112.7 284.718 111.288 284.326C106.248 278.664 103.723 289.352 96.4572 282.733C97.5653 279.718 96.4724 272.417 97.0695 267.305C98.7697 252.747 87.4908 255.568 79.8602 254.764C81.7729 249.662 81.0644 243.44 84.5002 238.913C86.4129 235.782 85.9221 234.173 83.0177 234.147C74.8861 233.353 73.4643 245.023 68.4143 249.208C56.4827 244.173 54.3372 234.896 57.945 219.264C60.1411 209.758 63.7185 206.601 73.5806 206.871C76.2878 207.12 78.6103 204.773 81.1859 203.428C98.9822 194.111 96.3155 226.061 106.259 217.726C110.377 214.274 109.78 209.457 106.81 205.776C109.543 207.919 102.125 193.82 108.278 186.636C134.549 163.005 121.029 166.34 127.131 159.354C137.13 149.196 128.948 147.923 144.685 142.48C148.778 135.825 155.134 132.383 161.474 128.804C166.296 125.418 164.763 126.528 163.594 128.742C162.825 131.889 164.298 132.612 167.258 131.716C170.845 126.125 178.061 126.823 182.322 122.469C184.968 121.767 188.267 121.181 186.82 117.856C185.853 115.631 183.85 117.23 182.306 118.437C182.524 120.662 184.442 121.94 172.318 117.76C173.385 110.127 174.6 109.063 173.502 106.522C172.515 104.704 169.358 105.733 168.33 104.154C171.685 105.682 175.905 103.971 180.161 102.438C197.785 101.415 189.39 97.754 199.202 97.2398C200.593 100.885 195.523 102.54 194.375 105.478C188.586 114.486 196.272 111.563 199.399 113.106C200.34 112.841 201.322 112.637 202.01 111.991C203.741 112.999 203.017 116.492 206.827 115.438C210.607 114.786 212.925 114.959 214.2 112.668C215.839 106.135 213.987 102.102 206.529 103.681C207.521 101.705 206.65 99.6023 205.244 98.4363C207.961 96.2163 205.765 93.2936 207.445 90.9871C206.402 89.21 209.823 83.7568 202.577 87.1835C190.327 76.613 185.17 76.1293 187.265 68.6903C179.549 50.6909 170 71.7046 164.905 63.2166C159.576 54.3366 137.444 53.7918 134.575 65.681C133.563 69.8817 129.884 75.8849 131.974 78.4257C137.869 82.4024 129.302 87.3159 126.504 90.0757C123.179 93.3497 123.964 96.3487 123.311 99.5209C119.496 103.049 119.192 102.805 117.927 96.4149C117.77 91.5574 113.596 91.1907 109.689 90.8547C105.53 90.4982 99.9183 87.6469 95.3693 88.039C59.8375 122.622 32.503 165.678 16.584 213.979C17.1355 216.423 17.6821 219.315 18.1982 222.792C19.0533 228.668 21.3658 229.366 22.8787 227.431ZM126.433 236.158C114.309 230.537 103.723 222.813 100.677 229.977C103.643 230.669 106.653 231.377 109.715 232.1C109.401 232.874 109.679 233.903 110.701 234.132C115.432 237.06 119.749 243.027 126.433 236.158ZM232.234 19.1423C233.742 19.1219 234.369 19.9978 235.078 20.7564C232.34 20.4917 229.623 20.232 226.911 19.9774C220.657 24.1322 224.411 23.063 223.683 25.4256C239.111 24.7025 236.439 25.0182 235.948 28.0733C233.712 26.1741 222.66 26.9888 227.771 33.8779C225.55 35.0796 228.565 38.1448 228.915 39.0155C229.481 39.0766 230.048 39.1326 230.62 39.1835C231.849 40.7721 240.325 40.93 232.118 44.5349C233.813 53.4201 240.371 55.3549 247.713 57.0556C260.606 60.0393 260.505 59.4945 267.209 50.6705C270.979 45.7061 274.511 40.8536 280.047 37.0857C293.147 34.9522 296.249 33.771 296.598 33.1803C296.765 33.2211 296.947 33.2618 297.165 33.3025C312.289 26.2708 327.707 29.7637 331.933 24.2239C332.413 22.676 334.893 22.1668 336.613 22.396C333.486 21.3063 330.794 21.8002 330.202 21.4132C330.582 21.0059 326.792 20.2014 330.055 20.3287C333.466 20.4611 336.811 21.3369 339.442 19.7839C339.841 19.3511 339.781 18.9285 339.255 18.5058C333.952 17.1107 339.867 15.3897 337.757 14.0556C337.964 14.0556 337.291 14.3204 340.327 12.3957C344.158 12.7369 340.939 9.96187 345.671 10.6798C347.452 10.4456 348.641 10.0535 348.236 9.29486C346.566 8.14412 349.582 6.93737 346.126 6.04632C344.112 5.52696 345.853 5.48623 346.85 5.35384C351.535 4.50352 347.639 3.57172 344.482 3.40369C343.819 2.74176 341.294 3.25092 340.848 2.84358C341.628 2.50243 342.341 2.23258 343.014 2.00346C332.97 0.959644 322.779 0.409739 312.472 0.35373C311.92 0.35373 311.363 0.348633 310.812 0.348633C310.346 0.348633 309.876 0.348633 309.41 0.348633C279.237 0.481019 250.091 4.96175 222.539 13.1849C223.622 16.1891 223.394 19.2645 232.234 19.1423ZM112.913 246.764C112.948 248.704 114.41 250.054 117.639 246.897C116.991 242.019 112.877 244.799 112.913 246.764ZM130.021 245.257C135.369 246.316 141.487 246.907 146.208 240.461C133.699 237.431 130.451 235.415 130.633 240.507C132.955 242.37 124.035 244.071 130.021 245.257ZM141.021 51.7347C143.076 52.86 145.034 51.5616 152.806 48.7662C151.607 47.8955 161.363 54.6523 167.141 54.6166C168.867 54.6065 174.079 55.9354 173.041 50.9607C173.674 50.8334 174.276 50.5737 174.848 50.1919C176.816 50.0289 183.617 50.9454 181.411 44.9626C180.616 42.8139 177.191 42.9819 175.415 41.8007C175.101 39.0766 175.354 39.4941 175.156 39.5297C178.076 36.8617 179.589 38.4452 181.638 38.4656C185.226 41.7701 185.95 41.9636 189.259 38.7914C187.584 37.5592 203.948 35.4869 191.581 33.3687C186.44 29.9674 180.12 30.6039 177.545 30.5683C170.511 33.9441 163.625 37.5694 156.9 41.4494C154.815 43.0736 152.523 44.7131 151.688 46.5716C150.165 47.1419 148.687 47.1674 147.205 47.2947C145.044 48.6491 142.904 50.0239 140.783 51.4292C140.839 51.5667 140.915 51.6787 141.021 51.7347ZM154.78 242.095C151.435 242.472 151.131 246.342 153.651 246.103C156.692 245.817 157.431 241.8 154.78 242.095Z" fill="url(#paint1_linear_2_1379)"/>
<defs>
<linearGradient id="paint0_linear_2_1379" x1="310.815" y1="-625.61" x2="310.815" y2="239.616" gradientUnits="userSpaceOnUse">
<stop stop-color="#06C8F7"/>
<stop offset="0.1105" stop-color="#06C8F7"/>
<stop offset="0.4731" stop-color="#06C8F7"/>
<stop offset="0.7824" stop-color="#06C8F7"/>
<stop offset="1" stop-color="#06C8F7"/>
</linearGradient>
<linearGradient id="paint1_linear_2_1379" x1="314.03" y1="-573.91" x2="314.03" y2="511.449" gradientUnits="userSpaceOnUse">
<stop stop-color="#06C8F7"/>
<stop offset="0.0634" stop-color="#06C8F7"/>
<stop offset="1" stop-color="#0B6378" stop-opacity="0.48"/>
</linearGradient>
</defs>
</svg>
