<svg width="654" height="268" viewBox="0 0 654 268" fill="none" xmlns="http://www.w3.org/2000/svg">
<path d="M255.29 81.5748C254.987 81.2773 242.65 61.2392 236.531 62.5601C230.402 63.8812 255.29 81.5748 255.29 81.5748Z" fill="#8E3E4A"/>
<path d="M254.433 78.3717C254.291 78.1529 251.359 63.4868 246.169 64.73C240.98 65.9732 254.433 78.3717 254.433 78.3717Z" fill="#8E3E4A"/>
<path d="M251.055 78.6399C250.784 78.4921 239.113 65.1887 234.352 68.7484C229.592 72.3182 251.055 78.6399 251.055 78.6399Z" fill="#8E3E4A"/>
<path d="M256.799 82.7222C256.509 82.6346 242.178 75.3636 238.684 77.3527C235.191 79.3419 256.799 82.7222 256.799 82.7222Z" fill="#8E3E4A"/>
<path d="M298.924 146.844C284.933 109.429 257.427 83.677 257.427 83.677L249.341 70.8639L251.857 77.6032L240.622 74.6965C240.622 74.6965 259.116 83.493 274.72 105.524C290.323 127.545 297.212 150.168 297.212 150.168L298.924 146.844Z" fill="#21412B"/>
<path d="M299.515 54.326C299.228 53.5183 290.163 4.84204 281.99 3.39997C273.828 1.95781 299.515 54.326 299.515 54.326Z" fill="#722C36"/>
<path d="M299.476 47.3061C299.372 46.7769 300.449 15.2369 293.481 14.2548C286.503 13.2728 299.476 47.3061 299.476 47.3061Z" fill="#722C36"/>
<path d="M295.122 45.5722C294.828 45.0846 284.409 10.4401 277.222 14.43C270.035 18.4199 295.122 45.5722 295.122 45.5722Z" fill="#8E3E4A"/>
<path d="M301.052 57.6533C300.709 57.2861 284.967 33.0062 279.9 34.6784C274.834 36.3406 301.052 57.6533 301.052 57.6533Z" fill="#8E3E4A"/>
<path d="M333.394 215.2C327.908 130.392 301.542 60.0193 301.542 60.0193L295.502 28.7585L296.479 44.0309L283.217 30.6307C283.217 30.6307 303.728 60.7712 316.275 115.639C328.822 170.506 330.15 220.737 330.15 220.737L333.394 215.2Z" fill="#21412B"/>
<path d="M398.713 137.824C398.587 137.135 399.928 99.9523 391.654 94.751C383.38 89.5396 398.713 137.824 398.713 137.824Z" fill="#8E3E4A"/>
<path d="M400.234 133.121C400.24 132.711 408.43 112.232 401.314 107.961C394.199 103.68 400.234 133.121 400.234 133.121Z" fill="#722C36"/>
<path d="M396.045 129.706C395.841 129.227 392.624 100.703 384.164 99.6334C375.715 98.5637 396.045 129.706 396.045 129.706Z" fill="#8E3E4A"/>
<path d="M399.588 140.837C399.304 140.419 388.171 116.041 382.458 114.518C376.755 113.006 399.588 140.837 399.588 140.837Z" fill="#8E3E4A"/>
<path d="M398.412 262.741C411.598 203.309 399.573 142.667 399.573 142.667L400.203 118.671L397.822 129.371L386.86 113.551C386.86 113.551 401.707 144.309 402.645 187.433C403.584 230.556 393.758 264.749 393.758 264.749L398.412 262.741Z" fill="#21412B"/>
<path fill-rule="evenodd" clip-rule="evenodd" d="M385.654 254.656L345.036 256.234L345.476 254.991L250.573 255.12C250.573 255.12 249.917 254.305 248.855 252.954C248.35 252.338 247.764 251.583 247.117 250.749C242.073 244.26 233.063 232.285 231.189 227.03C231.138 226.881 231.087 226.731 231.045 226.591C230.943 226.252 230.849 225.803 230.744 225.264C229.212 216.556 228.461 182.851 228.841 169.518C228.916 166.507 229.059 164.526 229.256 164.114C230.406 161.775 241.62 158.571 241.62 158.571C241.54 158.582 241.46 158.582 241.37 158.593C241.05 158.626 240.431 158.671 239.671 158.667C237.621 158.664 234.548 158.32 233.491 156.369C233.461 156.329 233.451 156.309 233.451 156.309C233.288 155.97 233.331 155.12 233.56 153.848C233.646 153.377 233.752 152.846 233.897 152.255C236.793 139.771 250.441 103.406 257.016 96.7209C264.711 88.8966 300.785 85.6165 309.751 89.942C316.921 93.4025 325.849 98.0084 329.14 101.701L329.15 101.721C329.15 101.721 329.211 101.781 329.302 101.9C330.039 102.744 330.435 103.54 330.441 104.26C330.453 105.66 330.105 107.173 329.667 108.527C329.442 109.199 329.207 109.821 328.962 110.383C328.648 111.136 328.265 111.949 327.802 112.813C328.131 112.69 334.85 110.084 338.652 111.562C342.545 113.08 349.349 121.954 349.628 124.272C349.736 125.201 349.527 126.542 349.228 127.815C349.228 127.815 349.228 127.815 349.218 127.815C349.218 127.835 349.218 127.855 349.208 127.875L349.199 127.925C348.928 129.058 348.607 130.13 348.393 130.802C348.295 131.093 348.227 131.303 348.188 131.424L348.159 131.514L348.258 131.483C348.498 131.391 349.066 131.166 349.834 130.95L349.844 130.95C351.35 130.507 353.557 130.079 355.132 130.686C355.744 130.931 356.803 132.012 358.056 133.592C362.018 138.579 368.06 148.419 369.277 151.659C369.573 152.457 370.378 155.38 371.475 159.821C375.355 175.499 382.933 210.068 385.123 236.48C385.625 242.716 385.843 249.705 385.654 254.656Z" fill="url(#paint0_linear_2_2655)"/>
<path d="M229.246 164.114C229.246 164.114 284.966 144.7 324.461 137.971C324.461 137.971 281.121 141.722 241.61 158.571C241.61 158.571 232.705 160.465 229.246 164.114Z" fill="#656D5B"/>
<path fill-rule="evenodd" clip-rule="evenodd" d="M329.15 101.731C329.15 101.731 321.367 106.196 307.423 105.742C293.478 105.288 262.944 97.7316 262.944 97.7316C245.682 108.366 233.828 154.826 233.46 156.279L233.451 156.309L233.897 152.255C236.793 139.771 250.441 103.406 257.016 96.7209C264.711 88.8966 300.785 85.6165 309.751 89.942C316.92 93.4025 325.849 98.0084 329.14 101.701L329.15 101.731Z" fill="#B7B49E"/>
<path fill-rule="evenodd" clip-rule="evenodd" d="M338.652 111.572L316.167 119.39L327.802 112.813C327.812 112.823 333.522 110.295 338.652 111.572Z" fill="#B7B49E"/>
<path fill-rule="evenodd" clip-rule="evenodd" d="M358.046 133.622L320.285 138.416L348.139 131.554L348.249 131.513L349.824 130.98L349.834 130.98C351.34 130.538 353.547 130.109 355.122 130.716C355.734 130.961 356.793 132.042 358.046 133.622Z" fill="#B7B49E"/>
<g opacity="0.75">
<path fill-rule="evenodd" clip-rule="evenodd" d="M385.654 254.656L345.475 254.991L345.267 253.932L250.573 255.12L210.725 255.451L239.927 250.838C242.288 250.899 244.688 250.859 247.117 250.749C273.027 249.473 301.852 239.073 301.852 239.073C313.964 212.831 311.405 139.62 311.405 139.62C289.686 142.321 241.62 158.571 241.62 158.571C241.54 158.582 241.46 158.582 241.37 158.593C235.774 159.08 233.795 156.776 233.491 156.379C233.461 156.339 233.451 156.319 233.451 156.319C233.451 156.319 293.221 142.881 295.435 139.763C297.659 136.634 301.609 105.28 301.609 105.28C317.871 107.915 329.13 101.711 329.13 101.711L329.14 101.731C329.968 102.644 330.425 103.501 330.431 104.271C330.443 105.67 330.096 107.183 329.657 108.537C328.916 110.803 327.891 112.652 327.802 112.823C328.131 112.7 334.85 110.094 338.652 111.572C342.545 113.09 349.349 121.964 349.628 124.282C349.736 125.211 349.527 126.552 349.228 127.825C349.228 127.825 349.228 127.825 349.218 127.825C349.218 127.845 349.218 127.865 349.208 127.885L349.199 127.935C348.812 129.549 348.315 131.033 348.188 131.434L348.159 131.524L348.258 131.493C348.498 131.401 349.066 131.176 349.834 130.96L349.844 130.96C351.35 130.517 353.557 130.089 355.132 130.696C355.744 130.941 356.803 132.022 358.056 133.602C362.018 138.589 368.06 148.429 369.277 151.669C370.617 155.268 382.311 202.592 385.123 236.49C385.625 242.716 385.843 249.705 385.654 254.656Z" fill="#A1A1AD"/>
</g>
<g opacity="0.57">
<path fill-rule="evenodd" clip-rule="evenodd" d="M328.962 110.393C328.648 111.146 328.265 111.959 327.802 112.823L316.156 119.39L300.23 141.553C300.23 141.553 264.177 147.283 241.36 158.583C241.04 158.616 240.421 158.661 239.66 158.657C237.61 158.654 234.537 158.31 233.481 156.359C233.451 156.319 233.441 156.299 233.441 156.299C233.278 155.96 233.321 155.11 233.55 153.838C238.483 152.937 277.764 145.7 295.425 139.743L301.598 105.26C301.598 105.26 314.587 107.432 329.13 101.711C329.13 101.711 329.19 101.771 329.281 101.89C329.817 102.586 331.178 105.074 328.962 110.393Z" fill="#C0BEBB"/>
</g>
<g opacity="0.57">
<path fill-rule="evenodd" clip-rule="evenodd" d="M349.228 127.835C349.228 127.835 349.228 127.835 349.218 127.835C349.218 127.855 349.218 127.875 349.208 127.895L349.199 127.945C348.812 129.559 348.315 131.043 348.188 131.444L348.159 131.534L320.295 138.406L325.091 116.295C329.837 114.526 338.662 111.572 338.662 111.572C342.555 113.09 349.359 121.964 349.638 124.281C349.736 125.221 349.527 126.562 349.228 127.835Z" fill="#C0BEBB"/>
</g>
<g opacity="0.2">
<path fill-rule="evenodd" clip-rule="evenodd" d="M235.89 169.489C233.788 175.217 232.375 180.899 231.536 186.966C230.791 192.372 229.746 198.981 231.51 204.337C232.157 206.311 233.45 207.911 235.2 209.086C236.648 210.054 238.343 210.69 239.702 211.769C240.669 212.541 241.346 213.365 242.48 213.906C246.747 215.95 250.716 212.127 253.916 209.701C255.466 208.528 257.017 207.465 258.618 206.411C263.243 203.383 267.137 199.04 270.773 194.9C275.816 189.168 281.242 183.892 286.486 178.359C290.085 174.559 292.913 170.795 294.602 165.851C296.418 160.545 297.29 155.918 294.747 150.739C294.075 149.374 293.261 147.641 291.657 147.245C289.533 146.712 286.66 147.586 284.664 148.123C282.968 148.577 281.329 148.71 279.612 148.995C277.165 149.405 274.875 150.604 272.491 151.314C267.193 152.878 262.494 155.367 257.492 157.599C252.172 159.973 246.964 162.697 241.916 165.349C240.592 166.04 239.27 167.021 238.229 168.09C237.733 168.604 236.86 169.421 236.475 170.044C235.982 170.818 235.851 171.98 235.89 169.489Z" fill="#B7B49E"/>
</g>
<g opacity="0.2">
<path fill-rule="evenodd" clip-rule="evenodd" d="M300.144 147.994C297.835 152.953 297.102 159.8 298.556 165.088C299.031 166.824 298.834 168.386 299.458 170.13C300.021 171.716 300.651 174.081 301.692 175.372C302.116 175.899 302.838 176.133 303.303 176.659C304.04 177.493 304.578 178.568 305.386 179.421C306.798 180.93 308.14 182.329 309.791 183.645C310.787 184.437 312.167 185.545 313.349 185.855C316.256 186.621 319.2 184.737 321.873 183.894C325.723 182.672 329.327 181.922 333.034 180.352C334.689 179.648 335.602 178.85 336.921 177.569C339.639 174.936 342.309 172.474 344.524 169.396C349.288 162.756 353.781 155.858 353.722 147.548C353.709 146.018 354.12 143.725 353.518 142.3C352.855 140.725 350.866 139.572 349.411 138.964C347.143 138.003 344.428 137.485 341.969 137.546C340.439 137.588 339.208 137.459 337.745 137.181C335.782 136.807 333.917 137.413 331.93 137.739C327.056 138.52 322.125 139.631 317.294 140.681C313.94 141.409 310.425 142.038 307.245 143.285C305.69 143.898 304.196 144.66 302.764 145.572C301.55 146.312 299.672 147.748 300.144 147.994Z" fill="#B7B49E"/>
</g>
<g opacity="0.2">
<path fill-rule="evenodd" clip-rule="evenodd" d="M276.475 196.323C280.756 191.597 284.794 186.553 289.509 182.244C290.699 181.154 292.399 179.849 293.792 179.088C294.181 178.875 294.518 178.522 294.936 178.288C294.259 178.664 297.371 177.658 296.671 177.654C299.181 177.683 302.413 181.566 303.948 183.284C305.119 184.584 306.221 186.115 307.273 187.526C307.951 188.43 309.374 190.039 309.743 191.066C310.961 194.476 308.207 197.579 305.295 198.583C302.144 199.679 299.116 201.124 295.883 202.021C293.568 202.661 291.136 202.391 288.736 202.431C285.117 202.491 281.936 201.207 279.385 198.668C277.015 196.268 278.211 193.418 276.475 196.323Z" fill="#B7B49E"/>
</g>
<g opacity="0.2">
<path fill-rule="evenodd" clip-rule="evenodd" d="M261.048 114.938C258.015 118.213 256.687 119.704 254.909 123.519C253.523 126.481 252.546 129.189 251.862 132.365C251.073 136.032 250.312 138.388 253.851 140.619C257.49 142.929 260.948 143.88 265.106 144.805C269.645 145.818 274.34 144.018 278.27 141.616C282.509 139.02 287.293 134.71 289.948 130.458C293.786 124.296 294.053 117.854 288.976 112.266C285.363 108.286 280.084 108.399 275.169 107.88C274.309 107.787 273.484 107.264 272.654 107.201C271.183 107.093 270.357 107.64 269.052 108.201C267.158 109.017 265.123 109.594 263.494 110.918C261.607 112.443 260.265 114.664 261.048 114.938Z" fill="#B7B49E"/>
</g>
<g opacity="0.2">
<path fill-rule="evenodd" clip-rule="evenodd" d="M241.855 139.939C241.483 142.112 240.989 144.066 240.356 146.111C240.074 147.014 239.014 149.462 239.632 150.417C240.675 152.019 243.888 149.902 244.881 149.034C246.102 147.963 246.19 145.313 245.807 143.746C245.631 143.037 245.01 141.672 244.604 141.046C243.925 139.981 242.591 139.422 242.638 141.482L241.855 139.939Z" fill="#B7B49E"/>
</g>
<g opacity="0.2">
<path fill-rule="evenodd" clip-rule="evenodd" d="M298.671 245.05C298.028 245.925 297.025 246.693 296.18 247.35C294.71 248.503 293.273 250.075 291.609 250.889C288.582 252.374 284.713 252.606 281.418 253.133C279.86 253.396 278.344 253.919 276.753 253.822C275.243 253.735 273.798 253.157 272.287 253.029C269.394 252.763 266.76 252.285 263.79 252.32C260.271 252.359 256.669 252.179 253.171 252.478C251.732 252.6 250.284 252.772 248.855 252.944C248.35 252.328 247.764 251.573 247.117 250.739C241.931 244.061 232.547 231.579 231.035 226.581C230.932 226.242 230.839 225.793 230.734 225.254C232.038 224.483 233.342 223.742 234.596 223.032C240.319 219.764 246.853 217.88 252.364 214.374C257.686 210.989 263.403 209.312 269.785 209.519C278.157 209.789 286.647 216.999 292.066 222.824C294.074 224.977 295.734 227.363 296.787 230.135C297.942 233.165 298.097 236.144 298.633 239.26C299.031 241.436 300.105 243.068 298.671 245.05Z" fill="#B7B49E"/>
</g>
<g opacity="0.5">
<path fill-rule="evenodd" clip-rule="evenodd" d="M311.438 171.251C311.438 171.251 295.497 174.814 289.911 177.72C284.325 180.627 258.505 209.592 258.505 209.592C258.505 209.592 284.86 180.012 293.281 177.692C301.702 175.372 311.323 175.462 311.323 175.462L326.845 184.063L342.756 194.991L324.832 181.33L311.438 171.251Z" fill="#C0BEBB"/>
</g>
<g opacity="0.57">
<path fill-rule="evenodd" clip-rule="evenodd" d="M308.659 254.317L301.852 239.073L310.185 208.223L313.653 141.841L321.703 189.826L340.686 233.4L385.644 253.426L308.659 254.317Z" fill="#A1A1AD"/>
</g>
<path fill-rule="evenodd" clip-rule="evenodd" d="M257.585 151.958L253.434 144.572L261.665 150.714L257.585 151.958Z" fill="#2F3832"/>
<g opacity="0.5">
<path fill-rule="evenodd" clip-rule="evenodd" d="M287.284 157.681C287.102 158.633 286.528 160.588 287.564 161.249C288.469 161.832 289.649 161.842 290.63 162.044C290.941 162.111 291.354 162.438 291.662 162.265C291.851 162.163 292.355 161.409 292.484 161.218C293.165 160.232 293.814 158.807 293.984 157.606C294.097 156.785 293.88 156.006 293.664 155.228C293.416 154.29 292.622 153.817 291.661 153.745C290.551 153.654 289.07 153.546 288.206 154.303C286.816 155.505 287.54 157.249 286.763 158.716L287.284 157.681Z" fill="#B7B49E"/>
</g>
<g opacity="0.5">
<path fill-rule="evenodd" clip-rule="evenodd" d="M285.276 165.198C284.723 165.983 284.356 166.376 284.514 167.285C284.619 167.874 284.728 167.853 285.3 168.048C285.872 168.243 286.767 168.896 287.091 168.143C287.346 167.551 287.037 166.474 286.843 165.955C286.761 165.746 286.567 165.267 286.386 165.109C286.033 164.802 285.885 165.013 285.536 165.196L285.276 165.198Z" fill="#B7B49E"/>
</g>
<g opacity="0.5">
<path fill-rule="evenodd" clip-rule="evenodd" d="M275.693 226.09C275.054 227.425 274.863 228.547 274.585 229.989C274.422 230.831 274.219 231.722 274.815 232.428C275.361 233.073 276.232 233.276 276.995 233.589C277.798 233.923 278.521 234.287 279.383 234.49C280.134 234.663 281.105 234.775 281.72 234.22C282.703 233.322 283.391 231.886 283.891 230.692C284.47 229.307 284.887 227.804 284.365 226.288C284.047 225.361 283.33 224.486 282.693 223.762C281.886 222.848 280.913 222.546 279.79 222.166C278.145 221.619 277.303 221.326 276.195 222.786C275.869 223.218 275.363 223.743 275.207 224.274C274.994 225.046 275.182 226.074 275.189 226.884L275.693 226.09Z" fill="#B7B49E"/>
</g>
<g opacity="0.5">
<path fill-rule="evenodd" clip-rule="evenodd" d="M355.632 195.604C354.993 196.939 354.802 198.061 354.524 199.503C354.361 200.345 354.159 201.237 354.754 201.942C355.3 202.587 356.172 202.79 356.934 203.104C357.737 203.437 358.46 203.801 359.322 204.004C360.073 204.177 361.044 204.299 361.66 203.734C362.642 202.836 363.33 201.4 363.83 200.206C364.409 198.821 364.826 197.318 364.304 195.802C363.986 194.875 363.269 194.001 362.633 193.276C361.825 192.362 360.853 192.061 359.729 191.68C358.085 191.134 357.242 190.841 356.134 192.3C355.808 192.733 355.302 193.257 355.147 193.788C354.933 194.56 355.122 195.588 355.128 196.398L355.632 195.604Z" fill="#B7B49E"/>
</g>
<g opacity="0.5">
<path fill-rule="evenodd" clip-rule="evenodd" d="M268.261 235.472C267.975 235.985 266.693 238.175 268.017 238.594C268.478 238.741 269.487 238.612 269.844 238.309C270.231 237.976 270.517 237.404 270.292 236.805C270.148 236.407 269.561 235.571 269.043 235.726L268.261 235.472Z" fill="#B7B49E"/>
</g>
<g opacity="0.5">
<path fill-rule="evenodd" clip-rule="evenodd" d="M287.167 112.391C287.312 112.959 287.547 113.558 287.682 114.136C287.806 114.685 287.751 115.246 287.945 115.784C288.273 116.672 289.076 117.095 290.003 116.727C290.332 116.594 291.108 116.038 291.235 115.717C291.382 115.346 291.221 115.187 291.048 114.828C290.631 113.982 290.167 113.516 289.313 113.083C289.072 112.965 288.579 112.619 288.28 112.681C287.841 112.785 287.817 113.515 287.458 113.678L287.167 112.391Z" fill="#B7B49E"/>
</g>
<g opacity="0.5">
<path fill-rule="evenodd" clip-rule="evenodd" d="M336.831 137.858C336.976 138.427 337.211 139.025 337.345 139.604C337.47 140.153 337.415 140.714 337.609 141.252C337.936 142.139 338.74 142.563 339.667 142.195C339.996 142.062 340.771 141.506 340.899 141.185C341.046 140.814 340.884 140.655 340.711 140.296C340.294 139.45 339.83 138.984 338.967 138.551C338.726 138.433 338.233 138.087 337.933 138.149C337.494 138.253 337.47 138.983 337.112 139.146L336.831 137.858Z" fill="#B7B49E"/>
</g>
<g opacity="0.5">
<path fill-rule="evenodd" clip-rule="evenodd" d="M246.993 136.016C246.351 137.011 245.818 137.925 245.738 139.116C245.685 139.877 245.985 139.904 246.635 139.899C247.485 139.902 248.165 139.966 248.79 139.301C248.525 138.673 248.199 137.946 247.903 137.298C247.801 137.059 246.85 135.657 246.737 136.538L246.993 136.016Z" fill="#B7B49E"/>
</g>
<g opacity="0.5">
<path fill-rule="evenodd" clip-rule="evenodd" d="M357.486 176.828C356.844 177.823 356.312 178.738 356.231 179.929C356.178 180.689 356.478 180.717 357.128 180.711C357.978 180.714 358.659 180.778 359.283 180.113C359.018 179.485 358.692 178.758 358.396 178.11C358.294 177.871 357.343 176.469 357.23 177.35L357.486 176.828Z" fill="#B7B49E"/>
</g>
<g opacity="0.3">
<path d="M280.757 150.875C279.312 152.657 277.661 154.971 278.532 157.474C279.424 157.727 280.518 156.988 281.376 156.79C282.754 156.469 284.08 155.958 285.479 155.876C287.348 155.771 288.461 154.871 289.861 153.72C290.715 153.013 291.378 152.167 292.313 151.529C293.119 150.982 293.907 150.776 294.784 150.399C296.856 149.511 299.173 147.922 300.719 146.249C301.522 145.382 302.826 143.431 301.042 142.946C299.739 142.587 297.913 143.122 296.625 143.343C294.708 143.669 292.833 144.245 290.936 144.69C288.96 145.157 286.961 145.334 284.966 145.89C284.128 146.127 283.01 146.346 282.284 146.832C280.991 147.693 280.116 149.501 280.757 150.875Z" fill="#334B3B"/>
</g>
<g opacity="0.3">
<path d="M273.014 152.88C273.113 152.739 270.022 156.285 271.169 157.115C271.622 157.452 272.895 156.631 273.283 156.418C273.751 156.164 274.329 155.899 274.554 155.357C274.966 154.394 274.321 153.749 273.41 153.647L273.014 152.88Z" fill="#334B3B"/>
</g>
<g opacity="0.3">
<path d="M238.87 204.306C238.78 205.526 238.659 206.637 238.449 207.809C238.27 207.891 238.151 208.042 238.133 208.242C238.136 208.612 238.149 208.972 238.162 209.342C238.18 210.282 238.268 211.261 238.096 212.192C237.751 214.045 237.584 215.617 236.688 217.314C235.33 219.886 234.068 222.116 232.076 224.253C231.602 226.227 231.502 226.248 231.393 226.269C231.366 226.649 231.288 226.879 231.189 227.03C231.138 226.881 231.086 226.731 231.045 226.591C230.942 226.252 230.849 225.803 230.744 225.264C229.212 216.556 228.461 182.851 228.84 169.518C229.096 170.206 229.233 171.045 229.417 171.483C229.916 172.609 230.197 173.907 230.607 175.083C231.017 176.27 231.743 177.014 232.382 178.059C232.777 178.685 232.811 179.235 232.877 179.965C232.944 180.754 233.22 181.472 233.306 182.251C233.513 184.289 233.322 186.481 233.339 188.531C233.344 189.191 233.38 189.841 233.365 190.491C233.34 191.151 233.094 191.633 233.01 192.254C232.953 192.634 232.878 193.225 232.971 193.614C233.064 194.034 233.436 194.22 233.48 194.72C233.949 194.616 234.117 193.155 234.917 193.148C235.807 193.141 236.225 195.327 236.401 195.986C236.566 196.654 236.571 197.234 236.976 197.831C237.381 198.428 238.024 198.792 238.479 199.369C239.752 200.968 239.005 202.524 238.87 204.306Z" fill="#334B3B"/>
</g>
<g opacity="0.3">
<path d="M240.593 221.462C239.611 222.42 238.8 223.487 238.14 224.672C238.205 225.322 238.16 225.972 238.016 226.623C237.913 227.544 237.624 228.867 238.281 229.671C238.928 230.466 240.237 230.345 241.071 230.838C242.196 231.499 242.835 232.504 243.712 233.416C246.951 236.779 250.246 230.152 250.704 227.608C251.058 225.675 251.719 223.369 251.483 221.381C251.278 219.673 250.557 217.059 249.097 215.921C247.527 214.694 245.601 215.21 244.037 215.983C241.448 217.265 239.902 220.188 239.826 223.018L240.593 221.462Z" fill="#334B3B"/>
</g>
<path d="M254.218 226.789C255.691 227.146 257.125 227.645 258.5 228.273C258.58 229.422 256.974 229.986 256.182 229.682C255.108 229.271 254.532 228.466 253.844 227.562L254.218 226.789Z" fill="#445D42"/>
<g opacity="0.3">
<path d="M284.305 110.864C283.93 111.538 282.455 113.35 282.972 114.146C283.276 114.603 284.659 114.952 285.14 115.058C286.051 115.25 287.271 115.24 287.753 114.256C288.156 113.432 287.805 112.085 287.469 111.378C287.388 111.209 287.089 110.231 286.959 110.142C286.154 109.599 285.235 110.867 284.708 111.251L284.305 110.864Z" fill="#334B3B"/>
</g>
<g opacity="0.3">
<path d="M371.465 159.861C370.053 160.853 368.5 161.656 367.038 162.588C366.093 163.186 364.91 164.036 363.708 163.786C363.187 163.68 362.935 163.462 362.384 163.387C361.683 163.293 361.036 163.578 360.448 163.793C359.74 164.039 358.931 164.196 358.284 164.581C356.174 165.849 354.733 168.071 353.47 170.121C352.75 171.287 352.391 172.65 351.489 173.588C350.953 174.142 350.344 174.247 349.646 174.463C349.147 174.617 348.45 174.973 348.011 175.067C346.823 175.337 345.887 174.644 344.598 174.785C343.949 174.851 343.69 174.953 343.345 175.566C343.01 176.138 343.256 176.946 342.79 177.39C342.399 177.244 342.102 176.466 341.919 176.107C341.411 175.122 340.704 174.287 340.136 173.322C338.615 170.805 336.707 168.591 335.404 165.931C334.814 164.726 334.272 163.221 333.284 162.229C332.406 161.376 331.064 161.027 330.196 160.154C329.178 159.123 328.505 157.628 327.874 156.314C327.08 154.64 326.503 152.605 325.401 151.104C324.683 150.13 324.059 149.715 322.879 149.745C321.09 149.78 319.649 149.662 318.397 148.252C316.247 145.86 314.745 142.062 314.039 138.948C314.239 137.676 315.136 137.369 316.736 137.366C318.466 137.361 320.154 137.137 321.842 136.853C323.2 136.642 324.608 136.3 325.955 136.029C327.313 135.758 328.642 135.646 330 135.405C332.636 134.903 335.326 134.831 337.971 134.189C341.424 133.37 345.182 133.119 348.134 130.994C348.214 130.934 348.303 130.873 348.393 130.822C348.295 131.113 348.227 131.323 348.188 131.444L348.159 131.534L348.259 131.503C348.498 131.411 349.066 131.186 349.834 130.97L349.844 130.97C351.351 130.527 353.557 130.099 355.132 130.706C355.744 130.951 356.803 132.032 358.056 133.612C362.018 138.599 368.06 148.439 369.277 151.679C369.564 152.487 370.368 155.41 371.465 159.861Z" fill="#334B3B"/>
</g>
<path fill-rule="evenodd" clip-rule="evenodd" d="M597.437 251.665L574.09 252.149L573.16 252.167L572.38 252.183L568.591 252.265L559.172 252.463L498.99 253.714C498.99 253.714 490.407 236.544 486.382 226.338C485.085 223.048 484.263 220.485 484.345 219.444C484.381 219.044 484.447 218.583 484.573 218.072L484.573 218.062C484.814 217.02 485.224 215.767 485.762 214.362C487.534 209.767 490.793 203.65 494.532 198.659C495.096 197.904 495.67 197.189 496.244 196.495C500.948 190.885 531.291 176.682 547.966 170.003C553.228 167.9 557.127 166.537 558.436 166.436C563.863 166.001 576.756 175.984 579.505 179.451C580.213 180.346 581.531 182.565 583.075 185.362C584.475 187.87 586.08 190.857 587.615 193.764C589.423 197.21 591.151 200.555 592.351 202.895C593.357 204.867 593.998 206.122 593.998 206.122C594.979 211.054 595.856 222.767 596.482 233.092C596.935 240.679 597.262 247.496 597.385 250.315C597.412 251.165 597.437 251.665 597.437 251.665Z" fill="url(#paint1_linear_2_2655)"/>
<path opacity="0.75" fill-rule="evenodd" clip-rule="evenodd" d="M583.064 185.352C575.983 170.78 558.426 166.426 558.426 166.426C554.722 195.958 543.574 210.731 541.951 212.745C537.856 214.529 535.481 215.229 535.481 215.229C535.481 215.229 536.875 246.948 535.765 249.278C534.654 251.607 498.98 253.704 498.98 253.704L618.126 252.713C610.017 233.61 583.064 185.352 583.064 185.352Z" fill="#A1A1AD"/>
<path opacity="0.6" fill-rule="evenodd" clip-rule="evenodd" d="M558.426 166.426C556.467 191.723 542.208 212.353 541.763 212.987L541.753 212.997C528.417 219.538 484.641 221.352 484.641 221.352C483.369 217.602 488.824 204.927 496.335 196.584C496.86 195.999 497.405 195.425 497.951 194.89C506.273 186.681 558.426 166.426 558.426 166.426Z" fill="#B7B49E"/>
<path fill-rule="evenodd" clip-rule="evenodd" d="M486.538 236.677C486.525 242.357 486.314 248.209 485.831 253.823L433.202 253.031C433.202 253.031 433.868 247.715 434.942 240.926C434.942 240.926 434.951 240.886 434.971 240.806C435.075 240.135 435.189 239.464 435.304 238.773C436.161 233.616 437.223 227.877 438.433 223.086C439.537 218.667 440.747 215.047 441.983 213.406C446.583 207.338 455.144 200.277 455.144 200.277C455.144 200.277 475.749 192.345 484.453 200.033C484.453 200.033 485.161 205.797 485.742 214.353L485.742 214.363C485.982 217.931 486.216 221.989 486.362 226.318L486.362 226.328C486.48 229.647 486.539 233.137 486.538 236.677Z" fill="url(#paint2_linear_2_2655)"/>
<path opacity="0.6" fill-rule="evenodd" clip-rule="evenodd" d="M484.463 200.033C484.463 200.033 478.879 215.2 472.107 218.606C469.07 220.131 445.348 218.829 445.348 218.829C442.038 217.596 440.747 215.047 441.973 213.407C446.573 207.338 455.134 200.277 455.134 200.277C455.134 200.277 475.759 192.345 484.463 200.033Z" fill="#B7B49E"/>
<path opacity="0.75" fill-rule="evenodd" clip-rule="evenodd" d="M433.212 253.031C433.212 253.031 466.354 250.755 468.663 248.156C470.971 245.556 472.117 218.606 472.117 218.606C472.117 218.606 480.229 215.208 484.473 200.033C484.473 200.033 487.229 228.421 485.841 253.823L433.212 253.031Z" fill="#A1A1AD"/>
<path fill-rule="evenodd" clip-rule="evenodd" d="M559.21 252.293L565.906 226.526L555.692 251.272L532.912 248.991L498.98 253.704L558.862 252.556C559.032 252.554 559.172 252.443 559.21 252.293Z" fill="#2B332F"/>
<path fill-rule="evenodd" clip-rule="evenodd" d="M579.495 179.442L559.006 206.153L580.214 180.556L579.495 179.442Z" fill="#2B332F"/>
<g opacity="0.6">
<path fill-rule="evenodd" clip-rule="evenodd" d="M580.214 180.556L584.503 189.97C584.503 189.97 574.549 200.313 559.014 207.003L580.214 180.556Z" fill="#B7B49E"/>
</g>
<g opacity="0.5">
<path fill-rule="evenodd" clip-rule="evenodd" d="M535.765 249.278L535.481 215.229L541.763 212.987C541.763 212.987 552.684 229.916 556.043 233.418C559.403 236.931 595.363 217.581 595.363 217.581L597.666 252.813L535.799 253.408L535.765 249.278Z" fill="#A1A1AD"/>
</g>
<path fill-rule="evenodd" clip-rule="evenodd" d="M653.465 252.429L573.363 252.545L573.233 252.546L572.303 252.544L559.153 252.563C559.153 252.563 559.162 252.533 559.172 252.483L559.172 252.473C559.335 251.672 560.692 245.33 562.22 239.007C563.507 233.786 564.923 228.574 565.916 226.536C567.539 223.222 579.379 211.144 592.341 202.905C597.703 199.501 603.25 196.765 608.35 195.572C621.056 192.606 631.718 191.658 637.629 192.938C637.639 192.938 637.639 192.938 637.649 192.938C639.833 193.41 641.37 194.187 642.119 195.291C643.911 197.936 646.829 204.852 648.851 209.886C649.749 212.138 650.475 214.022 650.843 214.969C651.273 216.106 651.747 221.512 652.17 227.869C652.891 238.723 653.465 252.429 653.465 252.429Z" fill="url(#paint3_linear_2_2655)"/>
<path fill-rule="evenodd" clip-rule="evenodd" d="M648.851 209.866C642.296 216.52 631.337 225.182 616.247 228.818C596.905 233.489 573.196 237.326 562.22 238.997C563.506 233.776 564.923 228.564 565.916 226.526C568.207 221.847 590.923 199.627 608.35 195.552C625.777 191.487 639.375 191.204 642.119 195.271C643.911 197.916 646.829 204.832 648.851 209.866Z" fill="#B7B49E"/>
<g opacity="0.5">
<path fill-rule="evenodd" clip-rule="evenodd" d="M559.143 252.553L616.962 251.012L619.989 227.786C619.989 227.786 635.77 223.115 648.851 209.866L650.843 214.949L653.465 252.429L559.143 252.553Z" fill="#A1A1AD"/>
</g>
<path fill-rule="evenodd" clip-rule="evenodd" d="M484.463 200.033C479.153 196.457 466.57 197.261 461.014 200.228C455.468 203.194 445.336 212.519 442.472 216.953C439.738 221.195 435.387 239.122 434.981 240.796C435.884 235.158 437.068 228.508 438.443 223.076C439.547 218.657 440.756 215.037 441.993 213.396C446.593 207.328 455.154 200.266 455.154 200.266C455.154 200.266 475.759 192.345 484.463 200.033Z" fill="#CAB285"/>
<path fill-rule="evenodd" clip-rule="evenodd" d="M485.219 213.917C485.219 213.917 501.992 194.957 508.74 189.97C522.635 179.694 558.426 166.426 558.426 166.426C558.426 166.426 510.581 181.625 498.477 193.166C489.031 202.185 485.219 213.917 485.219 213.917Z" fill="#CAB285"/>
<path fill-rule="evenodd" clip-rule="evenodd" d="M637.629 192.918C636.529 192.928 621.871 193.15 608.937 197.557C595.495 202.149 573.516 222.833 569.226 226.489C565.095 230.013 559.55 251 559.162 252.463C559.315 251.692 560.673 245.33 562.21 238.987C563.497 233.766 564.913 228.554 565.906 226.516C568.197 221.837 590.913 199.617 608.34 195.542C621.056 192.586 631.718 191.638 637.629 192.918Z" fill="#CAB285"/>
<g opacity="0.2">
<path fill-rule="evenodd" clip-rule="evenodd" d="M490.722 225.081C495.14 223.605 498.544 222.936 503.134 222.908C506.024 222.894 509.071 222.549 511.924 222.875C515.558 223.295 519.496 224.282 521.315 227.787C523.053 231.153 522.204 234.79 520.972 238.19C520.014 240.848 517.245 242.221 514.673 243.133C511.392 244.29 507.684 243.261 504.419 242.678C503.097 242.439 501.955 242.229 500.69 241.699C499.476 241.199 498.95 240.434 498.082 239.511C495.953 237.218 493.729 234.297 492.425 231.408C491.762 229.943 491.278 228.177 490.845 226.64C490.442 225.124 491.606 224.414 490.722 225.081Z" fill="#B7B49E"/>
<path fill-rule="evenodd" clip-rule="evenodd" d="M504.494 200.116C501.894 201.328 499.553 202.377 497.429 204.275C496.029 205.517 494.943 207.186 493.936 208.754C493.304 209.749 491.488 212.565 492.209 213.899C492.97 215.292 496.112 215.526 497.505 215.835C499.198 216.201 501.212 216.644 502.814 215.691C504.277 214.818 505.27 212.81 505.877 211.285C506.465 209.8 506.983 208.336 507.141 206.844C507.261 205.713 507.385 203.772 507.116 202.664C506.701 200.908 505.639 200.597 503.969 200.65L504.494 200.116Z" fill="#B7B49E"/>
<path fill-rule="evenodd" clip-rule="evenodd" d="M510.631 191.275C510.343 191.487 504.413 195.087 505.569 197.047C506.046 197.863 508.094 197.646 508.863 197.52C511.49 197.098 511.163 193.86 511.145 191.78L510.631 191.275Z" fill="#B7B49E"/>
<path fill-rule="evenodd" clip-rule="evenodd" d="M525.563 181.83C522.528 183.665 520.385 184.433 518.861 187.576C518.143 189.062 517.489 190.928 517.372 192.549C517.22 194.7 516.367 196.757 517.275 198.9C518.203 201.102 519.886 201.388 522.087 201.51C524.718 201.658 527.231 201.997 529.891 201.975C532.381 201.954 535.304 202.35 537.636 201.4C538.613 201.012 539.702 200.893 540.618 200.386C541.534 199.878 542.495 198.84 543.32 198.143C544.889 196.82 545.622 194.854 546.497 193.046C547.254 191.48 548.102 189.943 548.818 188.357C550.134 185.436 550.759 182.421 551.183 179.267C551.333 178.106 551.283 176.896 551.524 175.764C551.61 175.323 552.192 174.308 551.967 173.79C551.6 172.973 550.059 172.786 549.229 172.823C547.04 172.901 544.725 173.58 542.692 174.427C538.557 176.162 534.768 178.693 530.743 180.617C529.747 181.095 528.544 181.935 527.547 182.214C526.449 182.503 524.774 181.867 525.563 181.83Z" fill="#B7B49E"/>
<path fill-rule="evenodd" clip-rule="evenodd" d="M560.159 172.742C559.348 173.849 558.148 175.059 557.599 176.334C557.304 177.026 557.263 178.036 557.099 178.778C556.588 181.092 556.867 183.32 556.526 185.623C556.28 187.295 555.199 190.854 557.444 191.415C559.368 191.889 562.177 190.526 563.679 189.533C565.459 188.359 567.425 186.722 568.812 185.091C570 183.691 571.088 182.252 571.513 180.418C571.938 178.574 570.108 176.179 568.748 174.981C568.032 174.357 567.128 173.784 566.373 173.18C565.728 172.656 564.815 172.223 564.032 171.92C563.54 171.724 562.436 171.183 561.936 171.197C560.986 171.215 560.347 172.561 559.643 173.266L560.159 172.742Z" fill="#B7B49E"/>
<path fill-rule="evenodd" clip-rule="evenodd" d="M555.19 198.144C554.894 198.667 552.965 201.213 553.645 202.327C554.03 202.964 554.028 202.714 554.699 202.819C555.55 202.951 557.056 202.509 557.57 201.775C558.954 199.823 555.971 198.268 554.666 197.639L555.19 198.144Z" fill="#B7B49E"/>
<path fill-rule="evenodd" clip-rule="evenodd" d="M589.981 211.315C587.011 213.83 583.997 216.885 582.527 220.558C581.479 223.177 580.056 227.649 583.36 229.311C586.222 230.757 589.939 230.296 592.942 229.541C594.679 229.107 596.265 228.654 597.858 227.82C599.81 226.804 601.761 225.738 603.794 224.901C605.528 224.187 606.782 223.386 607.879 221.847C609.065 220.187 609.531 218.483 609.654 216.462C609.778 214.481 609.357 212.054 607.856 210.647C606.566 209.437 604.794 209.202 603.123 209.126C600.702 209.016 598.336 208.366 595.889 208.736C595.04 208.863 594.151 208.961 593.323 209.198C591.976 209.589 590.934 210.567 589.981 211.315Z" fill="#B7B49E"/>
<path fill-rule="evenodd" clip-rule="evenodd" d="M602.611 205.26C602.373 204.352 602.148 203.764 603.095 203.326C603.673 203.061 604.572 203.054 605.135 203.399C605.919 203.883 606.449 205.088 605.946 205.842C605.462 206.556 604.944 206.791 604.064 206.798C603.564 206.802 603.444 206.793 603.072 206.546C602.7 206.309 602.107 206.024 602.083 205.515L602.611 205.26Z" fill="#B7B49E"/>
<path fill-rule="evenodd" clip-rule="evenodd" d="M621.496 204.583C620.811 205.269 620.066 205.855 619.654 206.728C619.064 207.973 618.475 209.278 617.975 210.553C617.094 212.82 616.582 214.984 616.282 217.387C616.123 218.648 616.091 219.668 617.198 220.499C618.496 221.479 621.011 220.808 622.499 220.635C625.636 220.269 628.867 219.112 631.706 217.759C632.961 217.158 634.267 216.727 635.522 216.117C636.926 215.425 638.31 214.644 639.643 213.812C640.827 213.073 641.77 212.225 642.631 211.117C643.353 210.191 644.23 208.644 644.33 207.443C644.495 205.592 644.082 204.015 642.84 202.595C641.548 201.126 639.85 200.19 637.966 199.756C636.032 199.312 634.004 199.509 632.066 199.765C630.678 199.946 629.348 199.968 627.991 200.379C624.23 201.53 620.85 202.748 621.496 204.583Z" fill="#B7B49E"/>
<path fill-rule="evenodd" clip-rule="evenodd" d="M619.11 197.873C618.364 198.409 617.269 198.948 616.846 199.782C616.649 200.173 616.394 200.815 616.318 201.226C616.193 201.867 616.444 202.015 617.084 202.03C618.635 202.077 620.133 201.874 621.284 200.755C621.681 200.371 622.198 199.997 622.433 199.495C622.61 199.124 622.815 198.482 622.692 198.093C622.003 195.828 618.499 197.728 617.556 198.656L619.11 197.873Z" fill="#B7B49E"/>
<path fill-rule="evenodd" clip-rule="evenodd" d="M628.415 227.296C627.202 228.176 626.239 228.994 625.58 230.38C624.775 232.087 623.991 234.103 623.847 235.985C623.685 238.156 623.705 240.496 624.123 242.652C624.353 243.871 624.738 245.667 625.824 246.438C626.961 247.249 628.228 246.909 629.455 246.588C631.242 246.113 632.978 245.689 634.631 244.815C635.816 244.185 636.8 243.527 637.601 242.44C638.56 241.132 639.429 239.795 639.906 238.241C640.607 235.965 641.328 233.679 640.569 231.315C639.809 228.952 637.531 226.84 635.343 225.799C633.867 225.101 632.283 224.594 630.718 225.197C629.133 225.81 627.749 226.562 628.415 227.296Z" fill="#B7B49E"/>
<path fill-rule="evenodd" clip-rule="evenodd" d="M637.675 221.269C637.182 222.053 636.3 223.041 636.708 224.067C637.035 224.904 637.905 224.887 638.646 225.011C639.367 225.135 640.199 225.308 640.929 225.362C641.69 225.426 642.247 225.051 642.571 224.398C643.24 223.043 642.589 221.708 641.591 220.736C641.157 220.32 640.52 219.475 639.89 219.411C638.869 219.319 637.889 220.577 637.435 221.261L637.675 221.259L637.675 221.269Z" fill="#B7B49E"/>
<path fill-rule="evenodd" clip-rule="evenodd" d="M565.714 249.039C565.771 246.348 567.464 243.044 570.035 241.932C573.313 240.515 576.773 240.526 580.266 240.887C583.269 241.192 587.447 242.148 589.13 244.944C590.307 246.894 588.599 248.368 586.884 249.062C585.928 249.45 584.819 249.58 583.841 249.918C582.585 250.358 581.357 250.598 580.049 250.789C577.671 251.139 575.206 251.68 572.795 251.58C571.504 251.52 569.881 251.094 568.716 250.564C568.295 250.377 567.803 250.171 567.441 249.894C567.119 249.667 566.864 249.109 565.714 249.039Z" fill="#B7B49E"/>
<path fill-rule="evenodd" clip-rule="evenodd" d="M585.79 236.451C585.266 237.215 584.216 238.454 585.024 239.418C585.63 240.143 587.411 240.258 588.273 240.451C588.864 240.576 589.443 240.501 590.024 240.616C590.495 240.712 590.767 240.88 591.246 240.756C591.695 240.642 592.352 240.317 592.689 240.004C593.037 239.681 593.222 239.109 593.509 238.707C594.507 237.279 592.158 236.228 590.956 235.948C590.134 235.765 589.593 235.649 588.703 235.647C587.463 235.647 586.396 235.956 585.27 236.455L585.79 236.451Z" fill="#B7B49E"/>
<path fill-rule="evenodd" clip-rule="evenodd" d="M446.453 225.45C445.195 226.82 444.226 228.228 443.521 229.954C442.599 232.202 442.092 234.956 441.953 237.388C441.839 239.389 441.737 241.589 442.144 243.576C442.342 244.545 442.888 245.2 443.761 245.663C445.841 246.766 448.574 245.993 450.638 245.226C453.539 244.141 456.25 241.869 457.999 239.304C460.044 236.307 460.522 232.433 460.043 228.917C459.947 228.178 459.83 227.438 459.754 226.689C459.634 225.52 459.493 224.151 459.964 223.037C460.984 220.629 464.302 221.651 465.685 223.11C468.55 226.116 464.363 228.891 461.648 229.493C457.515 230.408 456.909 224.923 454.045 223.236C452.759 222.487 450.817 222.273 449.401 222.725C449.012 222.848 445.009 224.902 446.453 225.45Z" fill="#B7B49E"/>
<path fill-rule="evenodd" clip-rule="evenodd" d="M464.479 242.89C464.536 241.36 464.858 239.187 466.25 238.195C466.697 237.882 467.325 237.547 467.817 237.872C468.119 238.07 468.362 238.438 468.634 238.696C469.219 239.231 469.493 239.759 469.699 240.517C469.978 241.545 470.236 242.492 470.175 243.573C470.089 245.254 468.03 246.641 466.513 246.974C465.734 247.15 464.75 246.618 464.295 246.002C463.284 244.66 463.661 243.177 464.47 241.86L464.479 242.89Z" fill="#B7B49E"/>
<path fill-rule="evenodd" clip-rule="evenodd" d="M476.329 205.531C475.925 206.244 474.654 208.645 476.672 208.338C477.371 208.232 478.346 207.634 478.801 207.07C479.237 206.526 479.352 205.905 478.927 205.349C478.23 204.435 477.813 204.808 477.109 205.524L476.329 205.531Z" fill="#B7B49E"/>
<path fill-rule="evenodd" clip-rule="evenodd" d="M644.306 240.625C643.695 241.72 642.54 243.509 643.361 244.793C643.918 245.658 645.095 245.278 645.619 244.594C646.075 244.01 645.742 243.653 645.617 243.084C645.502 242.545 645.554 241.554 644.833 241.4L644.306 240.625Z" fill="#B7B49E"/>
<path fill-rule="evenodd" clip-rule="evenodd" d="M649.346 223.762C649.11 224.224 649.104 224.664 649.327 225.082C649.698 225.209 649.707 224.979 649.936 224.857C650.314 224.664 650.275 224.814 650.402 224.413C650.636 223.671 650.255 223.634 649.803 223.338C649.614 223.44 649.465 223.581 649.346 223.762Z" fill="#B7B49E"/>
</g>
<g opacity="0.5">
<path fill-rule="evenodd" clip-rule="evenodd" d="M537.519 182.491C537.375 183.272 536.899 184.876 537.743 185.429C538.487 185.913 539.458 185.915 540.269 186.088C540.529 186.146 540.872 186.413 541.121 186.271C541.28 186.18 541.685 185.566 541.803 185.405C542.367 184.591 542.897 183.416 543.039 182.435C543.133 181.764 542.948 181.126 542.782 180.477C542.576 179.709 541.933 179.314 541.132 179.251C540.212 179.178 539.001 179.088 538.286 179.704C537.144 180.694 537.736 182.129 537.096 183.344L537.519 182.491Z" fill="#B7B49E"/>
</g>
<g opacity="0.5">
<path fill-rule="evenodd" clip-rule="evenodd" d="M609.807 242.052C609.664 242.833 609.187 244.437 610.031 244.99C610.775 245.464 611.746 245.476 612.557 245.649C612.818 245.707 613.16 245.974 613.409 245.832C613.568 245.74 613.973 245.127 614.091 244.966C614.655 244.151 615.185 242.977 615.327 241.996C615.421 241.325 615.236 240.686 615.07 240.038C614.864 239.269 614.221 238.875 613.42 238.811C612.5 238.739 611.289 238.649 610.574 239.265C609.432 240.255 610.024 241.69 609.384 242.905L609.807 242.052Z" fill="#B7B49E"/>
</g>
<g opacity="0.5">
<path fill-rule="evenodd" clip-rule="evenodd" d="M535.871 188.675C535.416 189.318 535.119 189.641 535.245 190.39C535.329 190.879 535.419 190.859 535.89 191.015C536.361 191.181 537.096 191.715 537.361 191.092C537.577 190.601 537.319 189.713 537.156 189.294C537.084 189.115 536.931 188.726 536.78 188.597C536.488 188.35 536.369 188.521 536.08 188.663L535.87 188.665L535.871 188.675Z" fill="#B7B49E"/>
</g>
<g opacity="0.5">
<path fill-rule="evenodd" clip-rule="evenodd" d="M445.089 240.512C444.634 241.155 444.337 241.478 444.463 242.227C444.547 242.716 444.637 242.695 445.108 242.851C445.579 243.018 446.314 243.551 446.579 242.929C446.785 242.438 446.537 241.55 446.374 241.131C446.302 240.951 446.149 240.563 445.998 240.434C445.706 240.186 445.587 240.357 445.298 240.5L445.088 240.502L445.089 240.512Z" fill="#B7B49E"/>
</g>
<g opacity="0.5">
<path fill-rule="evenodd" clip-rule="evenodd" d="M527.977 238.812C527.446 239.907 527.294 240.838 527.064 242.02C526.93 242.711 526.766 243.452 527.261 244.028C527.715 244.554 528.427 244.729 529.049 244.983C529.711 245.258 530.303 245.553 531.015 245.727C531.636 245.872 532.427 245.965 532.943 245.501C533.747 244.764 534.317 243.58 534.729 242.596C535.21 241.452 535.549 240.219 535.119 238.973C534.852 238.205 534.267 237.49 533.742 236.894C533.075 236.14 532.273 235.896 531.351 235.584C529.997 235.135 529.305 234.891 528.385 236.089C528.108 236.441 527.701 236.874 527.575 237.315C527.4 237.947 527.557 238.796 527.563 239.466L527.977 238.812Z" fill="#B7B49E"/>
</g>
<g opacity="0.5">
<path fill-rule="evenodd" clip-rule="evenodd" d="M631.84 206.327C631.506 207.03 631.401 207.631 631.247 208.392C631.161 208.833 631.055 209.314 631.368 209.681C631.661 210.019 632.122 210.135 632.523 210.292C632.945 210.468 633.336 210.665 633.787 210.771C634.188 210.868 634.699 210.923 635.026 210.631C635.542 210.156 635.906 209.393 636.171 208.761C636.475 208.029 636.698 207.227 636.421 206.429C636.247 205.94 635.873 205.474 635.54 205.096C635.116 204.61 634.595 204.454 634.003 204.249C633.131 203.956 632.689 203.81 632.096 204.575C631.918 204.806 631.65 205.079 631.572 205.359C631.456 205.77 631.56 206.309 631.564 206.739L631.84 206.327Z" fill="#B7B49E"/>
</g>
<g opacity="0.3">
<path fill-rule="evenodd" clip-rule="evenodd" d="M547.499 174.037C546.73 175.284 545.431 176.715 544.188 177.485C543.014 178.195 541.57 178.957 540.274 179.398C539.635 179.623 538.966 179.679 538.338 179.894C536.832 180.436 536.028 182.323 535.529 183.687C535.128 184.801 534.507 185.796 534.136 186.919C533.804 187.902 533.502 188.874 533.12 189.828C532.796 190.59 532.292 191.235 531.978 191.997C531.556 192.991 532.253 194.985 530.855 195.257C529.647 195.477 528.432 194.937 527.29 194.696C526.148 194.436 524.306 194.241 523.323 195.049C522.667 195.565 522.376 196.657 522.073 197.4C521.504 198.805 520.287 199.155 518.992 199.775C516.821 200.804 514.631 202.042 512.286 202.611C511.507 202.788 510.706 202.654 509.917 202.831C506.803 203.567 503.652 203.423 500.672 202.188C498.514 201.296 496.512 199.882 494.532 198.669C495.096 197.914 495.67 197.199 496.244 196.505C500.948 190.895 531.291 176.692 547.966 170.013C548.089 170.402 548.182 170.802 548.246 171.191C548.374 172.24 548.062 173.133 547.499 174.037Z" fill="#334B3B"/>
</g>
<g opacity="0.3">
<path fill-rule="evenodd" clip-rule="evenodd" d="M494.63 228.409C495.506 227.992 496.414 227.724 497.363 227.596C497.618 228.184 498.3 228.399 498.733 228.825C499.066 229.152 499.319 229.56 499.513 229.989C499.931 230.935 500.079 231.924 500.617 232.829C501.347 234.063 502.323 234.845 502.486 236.374C502.584 237.333 502.8 239.292 501.845 239.869C501.268 240.224 500.536 239.94 499.944 239.775C498.792 239.455 497.899 239.112 496.933 238.4C495.584 237.401 494.433 236.051 493.512 234.659C492.873 233.694 492.515 232.677 492.605 231.516C492.706 230.375 493.005 227.863 494.63 228.409Z" fill="#334B3B"/>
</g>
<g opacity="0.3">
<path fill-rule="evenodd" clip-rule="evenodd" d="M547.553 212.958C547.305 214.42 546.797 215.845 546.599 217.316C546.486 218.187 546.251 219.999 546.807 220.745C547.343 221.45 549.017 221.896 549.74 222.19C551.405 222.857 553.11 223.393 554.746 224.159C557.226 225.318 560.208 228.014 562.95 225.751C563.744 225.094 564.366 224.139 564.97 223.314C565.652 222.378 566.433 221.282 566.974 220.257C567.525 219.202 567.796 218.02 568.216 216.907C568.529 216.074 569.032 215.24 569.255 214.378C569.507 213.396 569.579 212.415 569.531 211.416C569.494 210.586 569.211 210.238 568.457 209.814C567.061 209.036 565.06 208.953 563.5 208.926C561.309 208.884 558.875 209.584 556.728 209.992C554.652 210.389 552.451 210.348 550.416 210.934C548.959 211.347 548.967 213.517 547.553 212.958Z" fill="#334B3B"/>
</g>
<g opacity="0.3">
<path fill-rule="evenodd" clip-rule="evenodd" d="M486.538 236.677C486.525 242.357 486.314 248.209 485.831 253.823L433.202 253.031C433.202 253.031 433.868 247.715 434.942 240.926C434.942 240.926 434.951 240.886 434.971 240.806C435.075 240.135 435.189 239.464 435.304 238.773C435.61 239.57 435.86 240.698 436.761 240.811C436.961 240.839 437.17 240.777 437.381 240.816C437.521 240.835 437.532 240.994 437.683 241.033C438.133 241.109 438.582 240.986 439.023 241.102C439.915 241.325 440.692 242.198 441.407 242.752C442.152 243.346 442.917 243.97 443.771 244.383C445.186 245.071 446.219 245.332 447.663 244.62C450.312 243.298 452.582 240.869 454.463 238.634C456.642 236.045 458.609 233.279 460.918 230.82C461.84 229.832 462.842 228.863 463.865 227.965C464.421 227.48 465.055 226.755 465.804 226.599C466.133 226.526 466.813 226.48 467.124 226.628C467.676 226.923 468.024 227.82 468.298 228.328C468.674 229.045 469.182 229.981 469.906 230.455C470.509 230.85 471.399 230.822 471.982 231.218C472.294 231.415 472.538 231.893 472.731 232.221C473.015 232.729 473.268 233.087 473.691 233.493C474.397 234.188 474.79 234.554 475.79 234.556C477.18 234.564 478.346 234.095 479.592 233.534C481.315 232.76 482.975 231.486 484.89 232.06C485.722 232.313 486.296 232.809 486.403 233.668C486.436 234.017 486.409 234.408 486.402 234.758C486.407 235.388 486.473 236.027 486.538 236.677Z" fill="#334B3B"/>
</g>
<g opacity="0.3">
<path fill-rule="evenodd" clip-rule="evenodd" d="M573.15 252.157C573.181 252.267 573.202 252.396 573.223 252.536L572.293 252.534C572.302 252.474 572.322 252.414 572.331 252.354C572.341 252.294 572.36 252.243 572.37 252.183C572.602 251.191 572.794 250.3 573.15 252.157Z" fill="#334B3B"/>
</g>
<g opacity="0.3">
<path fill-rule="evenodd" clip-rule="evenodd" d="M653.465 252.429L573.363 252.545C573.612 252.413 573.841 252.281 574.09 252.149C574.09 252.149 574.09 252.149 574.1 252.149C575.752 251.255 577.375 250.392 579.252 250.016C580.281 249.817 581.28 249.679 582.329 249.67C583.429 249.661 584.461 249.883 585.542 249.924C586.042 249.95 586.561 249.825 587.062 249.921C587.402 249.998 587.614 250.146 587.974 250.163C590.055 250.266 592.152 249.989 594.234 250.161C595.305 250.242 596.326 250.354 597.375 250.305C597.815 250.302 598.255 250.258 598.704 250.174C599.962 249.944 601.251 249.813 602.499 249.533C604.136 249.159 605.38 248.429 607.11 248.464C607.76 248.469 608.319 248.294 608.938 248.199C609.697 248.093 610.518 248.156 611.288 248.149C612.478 248.15 613.719 248.269 614.856 247.89C616.192 247.459 617.597 246.867 618.731 246.047C619.963 245.157 621.066 244.268 622.461 243.636C623.786 243.045 625.022 242.625 626.44 242.323C628.217 241.958 630.035 241.693 631.801 241.289C634.047 240.78 636.028 239.633 638.049 238.577C640.09 237.51 642.081 236.363 643.889 234.928C645.22 233.887 646.461 232.726 647.731 231.596C649.111 230.374 650.549 228.842 652.16 227.849C652.891 238.723 653.465 252.429 653.465 252.429Z" fill="#334B3B"/>
</g>
<path d="M300.241 206.605C300.241 206.605 305.202 207.794 305.263 203.183L300.241 206.605Z" fill="url(#paint4_linear_2_2655)"/>
<path fill-rule="evenodd" clip-rule="evenodd" d="M309.752 89.9521C296.536 86.9619 262.945 97.7416 262.945 97.7416C245.683 108.376 233.829 154.836 233.461 156.289L233.451 156.319L233.897 152.265C236.794 139.781 250.442 103.416 257.016 96.7309C264.721 88.8966 300.785 85.6165 309.752 89.9521Z" fill="#CAB285"/>
<path d="M215.162 186.602C216.801 104.736 179.469 66.1449 179.469 66.1449L215.162 186.602Z" fill="url(#paint5_linear_2_2655)"/>
<path d="M318.019 179.786C297.164 200.951 289.461 251.036 289.461 251.036C289.461 251.036 292.32 205.221 296.923 196.002C301.526 186.784 318.019 179.786 318.019 179.786Z" fill="url(#paint6_linear_2_2655)"/>
<path d="M210.045 182.115C184.657 80.3622 125.774 50.1409 125.774 50.1409L210.045 182.115Z" fill="url(#paint7_linear_2_2655)"/>
<path d="M230.334 192.836C223.278 164.494 234.037 132.993 234.037 132.993L230.334 192.836Z" fill="url(#paint8_linear_2_2655)"/>
<path d="M220.246 191.83C206.695 130.441 209.969 67.2112 209.969 67.2112L220.246 191.83Z" fill="url(#paint9_linear_2_2655)"/>
<path d="M79.6259 232.131L59.0581 177.18C59.0581 177.18 78.1908 202.672 79.6259 232.131Z" fill="url(#paint10_linear_2_2655)"/>
<path d="M82.2273 228.659L81.5411 221.915L69.5928 104.34C69.5928 104.34 80.3751 149.062 82.1728 201.669C82.4663 210.507 82.5216 219.557 82.2273 228.659Z" fill="url(#paint11_linear_2_2655)"/>
<path d="M287.063 256.207L263.922 256.129L236.82 256.034L188.487 255.866L183.927 255.854L168.086 255.796L2.07531 255.217C2.07531 255.217 4.72851 214.713 28.3983 197.756C29.9491 196.643 31.5328 195.88 33.1389 195.406C51.5918 212.504 64.6343 238.006 65.2951 239.301L49.8353 199.718C67.1888 212.084 82.5127 243.747 82.5127 243.747C82.5127 243.747 81.5994 234.945 81.5311 221.915C81.5012 215.915 81.6538 209.013 82.1628 201.679C83.3142 185.009 86.2965 166.043 93.1238 150.056C99.1074 136.036 108.05 124.291 121.331 118.38C135.113 132.966 146.981 153.158 155.389 169.629L130.597 115.373C133.232 114.821 136.009 114.448 138.928 114.314C141.357 114.194 143.747 114.204 146.098 114.334L166.251 157.838L179.214 185.831C179.106 184.822 175.534 152.201 160.459 116.725C163.967 117.706 167.368 118.947 170.66 120.44C171.011 120.597 171.353 120.754 171.694 120.911L171.704 120.911C180.117 124.852 187.813 130.278 194.785 136.55C194.785 136.56 194.795 136.56 194.795 136.56C197.516 139.017 200.117 141.596 202.619 144.275L202.629 144.275C206.766 148.701 210.595 153.369 214.125 158.12C214.216 158.249 214.307 158.368 214.408 158.497C214.58 158.736 214.752 158.965 214.924 159.203C214.934 159.223 214.944 159.243 214.965 159.263C215.976 160.644 216.958 162.026 217.919 163.418C221.796 169.036 225.263 174.678 228.278 180.053C228.278 180.053 228.278 180.063 228.288 180.063C229.181 181.635 230.034 183.188 230.857 184.712L230.857 184.722C239.349 200.571 243.854 213.144 244.284 214.371C243.676 212.256 233.904 177.096 246.346 162.932C247.515 161.592 248.886 160.441 250.478 159.527C253.742 157.64 256.966 159.263 260.069 163.238C259.053 203.378 265.191 246.428 265.263 241.857C265.333 238.157 267.765 207.175 269.686 183.209C279.846 212.045 287.063 256.207 287.063 256.207Z" fill="url(#paint12_linear_2_2655)"/>
<path opacity="0.5" d="M79.6259 232.131L59.0581 177.18C59.0581 177.18 78.1908 202.672 79.6259 232.131Z" fill="url(#paint13_linear_2_2655)"/>
<path opacity="0.65" d="M168.096 255.796L59.689 255.418C58.0596 244.681 52.8341 221.194 36.7482 198.917C53.2791 215.79 64.685 238.086 65.2951 239.3L49.8353 199.718C67.1888 212.084 82.5127 243.747 82.5127 243.747C82.5127 243.747 81.5994 234.945 81.5311 221.915L69.5929 104.37C69.9243 105.737 80.4018 149.872 82.1627 201.669C83.3141 184.999 86.2964 166.033 93.1237 150.046C91.3972 180.531 145.746 243.872 145.746 243.872L120.901 179.646L159.965 247.333L156.364 230.393L168.096 255.796Z" fill="url(#paint14_linear_2_2655)"/>
<path opacity="0.65" d="M188.487 255.856L183.927 255.844L166.251 157.828L179.214 185.821C179.106 184.812 175.534 152.191 160.459 116.715C163.967 117.696 167.367 118.937 170.66 120.43C171.011 120.587 171.353 120.744 171.694 120.901L171.704 120.901C173.234 123.359 174.646 125.967 175.949 128.706C193.578 165.841 190.977 227.035 188.487 255.856Z" fill="url(#paint15_linear_2_2655)"/>
<path opacity="0.65" d="M236.82 256.034C236.987 248.383 237.407 191.957 214.955 159.253C215.966 160.635 216.948 162.016 217.909 163.408C221.786 169.026 225.253 174.668 228.268 180.043C228.268 180.043 228.268 180.053 228.278 180.053C229.171 181.625 230.024 183.178 230.847 184.702L230.847 184.712C239.339 200.562 243.844 213.134 244.274 214.361C243.666 212.246 233.894 177.086 246.336 162.922C246.386 162.952 246.417 162.971 246.417 162.971C235.272 182.875 260.449 247.418 263.942 256.149L236.82 256.034Z" fill="url(#paint16_linear_2_2655)"/>
<path d="M310.811 254.619L300.241 206.605L305.263 203.183L316.486 253.992C316.486 253.992 318.607 221.673 318.8 197.951C318.8 197.951 347.805 185.249 383.475 180.292L385.278 197.398L387.355 180.26C387.355 180.26 395.856 175.529 411.379 174.63C411.379 174.63 411.874 218.487 402.505 242.636L408.828 240.643C408.828 240.643 415.558 204.486 432.655 186.103L438.145 187.217C438.145 187.217 423.677 205.578 415.373 233.988C415.373 233.988 430.443 195.432 451.717 177.794L456.099 182.808C456.099 182.808 430.687 207.94 417.493 254.402L310.811 254.619Z" fill="url(#paint17_linear_2_2655)"/>
<path d="M318.8 197.961C318.8 197.961 341.189 197.734 353.464 195.882L354.437 210.655L357.876 194.875L373.693 189.684L373.726 193.574L374.621 189.386L383.472 184.692L383.475 180.292C383.475 180.292 340.961 185.916 318.8 197.961Z" fill="#476A27"/>
<path d="M387.355 180.26C387.355 180.26 402.879 179.481 411.379 174.63C411.379 174.63 397.043 172.759 387.355 180.26Z" fill="#568705"/>
<path d="M376.551 254.342C376.551 254.342 375.877 223.817 376.121 202.604L381.113 204.022C381.113 204.022 388.676 245.221 389.269 254.076L392.379 254.05C392.379 254.05 400.421 189.281 402.684 168.072L405.306 167.05C405.306 167.05 401.023 230.438 396.024 254.57L376.551 254.342Z" fill="url(#paint18_linear_2_2655)"/>
<path d="M318.8 197.961C318.8 197.961 316.838 242.138 316.486 254.002L337.799 254.294C337.799 254.294 338.868 221.634 337.387 209.526L334.887 209.587C334.887 209.587 336.643 235.543 335.93 247.13L330.384 250.086C330.384 250.086 329.315 206.953 328.1 197.933L318.8 197.961Z" fill="url(#paint19_linear_2_2655)"/>
<path d="M404.064 255.743C404.064 255.743 412.346 207.873 432.656 186.103L438.145 187.217C438.145 187.217 415.926 212.713 410.413 254.45L404.064 255.743Z" fill="url(#paint20_linear_2_2655)"/>
<path d="M450.595 176.384C450.595 176.384 424.042 203.805 414.988 238.182L420.041 236.13C420.041 236.13 439.153 194.139 455.13 181.716L450.595 176.384Z" fill="url(#paint21_linear_2_2655)"/>
<path d="M399.445 253.562C399.445 253.562 410.444 212.419 412.871 195.258L418.3 191.463C418.3 191.463 408.534 236.505 402.599 253.955L399.445 253.562Z" fill="url(#paint22_linear_2_2655)"/>
<defs>
<linearGradient id="paint0_linear_2_2655" x1="307.573" y1="256.543" x2="306.17" y2="87.9331" gradientUnits="userSpaceOnUse">
<stop stop-color="#49535C"/>
<stop offset="1" stop-color="#57614E"/>
</linearGradient>
<linearGradient id="paint1_linear_2_2655" x1="541.032" y1="253.359" x2="540.31" y2="166.564" gradientUnits="userSpaceOnUse">
<stop stop-color="#49535C"/>
<stop offset="1" stop-color="#57614E"/>
</linearGradient>
<linearGradient id="paint2_linear_2_2655" x1="459.957" y1="254.034" x2="459.481" y2="196.79" gradientUnits="userSpaceOnUse">
<stop stop-color="#49535C"/>
<stop offset="1" stop-color="#57614E"/>
</linearGradient>
<linearGradient id="paint3_linear_2_2655" x1="606.306" y1="252.816" x2="605.805" y2="192.573" gradientUnits="userSpaceOnUse">
<stop stop-color="#333A40"/>
<stop offset="0.9888" stop-color="#444C46"/>
</linearGradient>
<linearGradient id="paint4_linear_2_2655" x1="303.594" y1="206.33" x2="302.65" y2="204.726" gradientUnits="userSpaceOnUse">
<stop stop-color="#33643C"/>
<stop offset="1" stop-color="#6F784E"/>
</linearGradient>
<linearGradient id="paint5_linear_2_2655" x1="205.071" y1="261.763" x2="189.531" y2="-22.6722" gradientUnits="userSpaceOnUse">
<stop stop-color="#173422"/>
<stop offset="1" stop-color="#2B583A"/>
</linearGradient>
<linearGradient id="paint6_linear_2_2655" x1="305.968" y1="256.25" x2="290.428" y2="-28.1842" gradientUnits="userSpaceOnUse">
<stop stop-color="#173422"/>
<stop offset="1" stop-color="#2B583A"/>
</linearGradient>
<linearGradient id="paint7_linear_2_2655" x1="175.953" y1="263.354" x2="160.413" y2="-21.0812" gradientUnits="userSpaceOnUse">
<stop stop-color="#173422"/>
<stop offset="1" stop-color="#2B583A"/>
</linearGradient>
<linearGradient id="paint8_linear_2_2655" x1="236.788" y1="260.031" x2="221.248" y2="-24.4047" gradientUnits="userSpaceOnUse">
<stop stop-color="#173422"/>
<stop offset="1" stop-color="#2B583A"/>
</linearGradient>
<linearGradient id="paint9_linear_2_2655" x1="221.198" y1="260.882" x2="205.658" y2="-23.5531" gradientUnits="userSpaceOnUse">
<stop stop-color="#173422"/>
<stop offset="1" stop-color="#2B583A"/>
</linearGradient>
<linearGradient id="paint10_linear_2_2655" x1="72.8582" y1="268.986" x2="57.318" y2="-15.4486" gradientUnits="userSpaceOnUse">
<stop stop-color="#173422"/>
<stop offset="1" stop-color="#2B583A"/>
</linearGradient>
<linearGradient id="paint11_linear_2_2655" x1="82.2343" y1="268.474" x2="66.6942" y2="-15.9606" gradientUnits="userSpaceOnUse">
<stop stop-color="#173422"/>
<stop offset="1" stop-color="#2B583A"/>
</linearGradient>
<linearGradient id="paint12_linear_2_2655" x1="145.077" y1="265.041" x2="129.537" y2="-19.3937" gradientUnits="userSpaceOnUse">
<stop stop-color="#173422"/>
<stop offset="1" stop-color="#2B583A"/>
</linearGradient>
<linearGradient id="paint13_linear_2_2655" x1="142.758" y1="29.3447" x2="81.9035" y2="174.664" gradientUnits="userSpaceOnUse">
<stop offset="0.00540541" stop-color="white"/>
<stop offset="0.149" stop-color="#F2F4F2"/>
<stop offset="0.4163" stop-color="#CFD6D1"/>
<stop offset="0.7755" stop-color="#97A79C"/>
<stop offset="0.9946" stop-color="#718779"/>
</linearGradient>
<linearGradient id="paint14_linear_2_2655" x1="176.118" y1="43.3151" x2="115.264" y2="188.633" gradientUnits="userSpaceOnUse">
<stop stop-color="white"/>
<stop offset="1" stop-color="#25442C"/>
</linearGradient>
<linearGradient id="paint15_linear_2_2655" x1="225.661" y1="64.0615" x2="164.807" y2="209.38" gradientUnits="userSpaceOnUse">
<stop stop-color="white"/>
<stop offset="1" stop-color="#25442C"/>
</linearGradient>
<linearGradient id="paint16_linear_2_2655" x1="288.552" y1="90.398" x2="227.699" y2="235.716" gradientUnits="userSpaceOnUse">
<stop stop-color="white"/>
<stop offset="1" stop-color="#25442C"/>
</linearGradient>
<linearGradient id="paint17_linear_2_2655" x1="378.663" y1="254.711" x2="377.999" y2="174.907" gradientUnits="userSpaceOnUse">
<stop stop-color="#223932"/>
<stop offset="1" stop-color="#3E6A27"/>
</linearGradient>
<linearGradient id="paint18_linear_2_2655" x1="411.413" y1="245.508" x2="375.317" y2="184.172" gradientUnits="userSpaceOnUse">
<stop stop-color="#223932"/>
<stop offset="0.9888" stop-color="#2E4A27"/>
</linearGradient>
<linearGradient id="paint19_linear_2_2655" x1="327.435" y1="254.381" x2="326.965" y2="197.889" gradientUnits="userSpaceOnUse">
<stop stop-color="#223932"/>
<stop offset="0.9888" stop-color="#2E4A27"/>
</linearGradient>
<linearGradient id="paint20_linear_2_2655" x1="421.384" y1="255.596" x2="420.807" y2="186.196" gradientUnits="userSpaceOnUse">
<stop stop-color="#428735"/>
<stop offset="1" stop-color="#CDCA27"/>
</linearGradient>
<linearGradient id="paint21_linear_2_2655" x1="435.296" y1="238.007" x2="434.784" y2="176.511" gradientUnits="userSpaceOnUse">
<stop stop-color="#428735"/>
<stop offset="1" stop-color="#CDCA27"/>
</linearGradient>
<linearGradient id="paint22_linear_2_2655" x1="421.001" y1="243.126" x2="397.723" y2="203.571" gradientUnits="userSpaceOnUse">
<stop stop-color="#223932"/>
<stop offset="0.9888" stop-color="#2E4A27"/>
</linearGradient>
</defs>
</svg>
